<svg width="232.65562" height="196.07008" xmlns="http://www.w3.org/2000/svg">
 <defs>
  <filter id="ah">
   <feGaussianBlur stdDeviation="1.9328"/>
  </filter>
  <filter id="ai">
   <feGaussianBlur stdDeviation="0.2573"/>
  </filter>
  <filter id="aj">
   <feGaussianBlur stdDeviation="1.1006"/>
  </filter>
  <linearGradient y2="0.19659" y1="0.9235" x2="0.89681" x1="0.1533" id="aa">
   <stop offset="0" stop-color="#d6af54"/>
   <stop offset="1" stop-color="#cbbc81"/>
  </linearGradient>
  <linearGradient y2="0.58785" y1="0.38941" x2="1.44902" x1="0.1982" id="z">
   <stop offset="0" stop-color="#efdfaf"/>
   <stop offset="1" stop-color="#fbf3dc"/>
  </linearGradient>
  <radialGradient gradientUnits="userSpaceOnUse" gradientTransform="matrix(2.1352 -.12538 .06259 1.066 -2515.1 887.83)" r="81.116" cy="1334.2" cx="1043.6" id="l">
   <stop offset="0" stop-color="#e1c679"/>
   <stop offset="1" stop-color="#fbf3dc"/>
  </radialGradient>
  <radialGradient gradientUnits="userSpaceOnUse" gradientTransform="matrix(5.144100189208984,0.7114999890327454,-0.2603299915790558,1.882200002670288,-5254.419921875,-1064.17431640625)" r="42.88" cy="1306.9" cx="1052.4" id="k">
   <stop offset="0" stop-color="#b79961"/>
   <stop offset="1" stop-color="#cea54a"/>
  </radialGradient>
  <radialGradient gradientUnits="userSpaceOnUse" gradientTransform="matrix(1.1332999467849731,0.022210000082850456,-0.020640000700950623,1.0530999898910522,-396.50201416015625,-123.30430603027344)" r="35.219" cy="2183.1" cx="245.68" id="j">
   <stop offset="0" stop-color="#d0aa7b"/>
   <stop offset="1" stop-opacity="0" stop-color="#d0aa7b"/>
  </radialGradient>
  <radialGradient gradientUnits="userSpaceOnUse" gradientTransform="matrix(1.0679999589920044,-1.0329999923706055,0.7174299955368042,0.7417500019073486,-1946.02001953125,734.4357299804688)" r="40.703" cy="2128.6" cx="170.42" id="i">
   <stop offset="0" stop-color="#cbbc81"/>
   <stop offset="1" stop-opacity="0" stop-color="#cbbc81"/>
  </radialGradient>
  <radialGradient gradientUnits="userSpaceOnUse" gradientTransform="matrix(1.8149000406265259,-0.24050000309944153,0.1814199984073639,1.3690999746322632,-1054.4000244140625,-744.0842895507812)" r="15.03" cy="2213" cx="299.52" id="h">
   <stop offset="0" stop-color="#cabb80"/>
   <stop offset="1" stop-opacity="0" stop-color="#cabb80"/>
  </radialGradient>
 </defs>
 <g>
  <title>background</title>
  <rect fill="none" id="canvas_background" height="506.20577" width="674.27436" y="-1" x="-1"/>
 </g>
 <g>
  <title>Layer 1</title>
  <g id="svg_1" transform="matrix(.5732 0 0 .5732 178.87 -1104.1)">
   <path id="svg_2" opacity="0.5" filter="url(#ah)" d="m-155.08405,2070.59712l-131.51677,61.28679c0,0 -6.49509,4.2815 -6.84584,7.7002c-0.27732,2.70242 4.03022,7.06134 4.03022,7.06134l3.22609,1.35064c1.07731,1.4856 2.23313,2.68077 2.23313,2.68077l181.80489,75.62953l49.92363,21.23935l0.31783,0.85165l0.4748,1.24437l1.09524,-0.73408l125.47401,-82.08976l-0.14016,-0.12461l-0.21249,-0.18892l-0.56123,-0.43584l-0.1285,0.07396l-9.01905,-5.36244l2.20204,-1.26765c2.72375,-1.59246 4.41583,-1.19667 4.41563,-1.19644s-0.12684,-0.55455 -0.59258,-0.96964l0.38878,-0.22423l-226.56822,-86.52571l-0.00146,0.00073z"/>
   <path id="svg_3" fill="url(#aa)" d="m-51.171,2244.3l126.01,-81.844l-15.16,-9.0072l-133.22,68.928l22.37,21.9232z"/>
   <path id="svg_4" opacity="0.3" filter="url(#ai)" d="m73.58416,2162.5569l-123.90231,81.07402l-18.65317,-9.8776l73.62369,-39.60908l39.72582,-21.48144l29.20598,-10.10591z"/>
   <path id="svg_5" fill="url(#z)" d="m71.293,2152.9l-226.6,-86.499l-131.5,61.275s-6.4994,4.2863 -6.8502,7.7048c-0.27733,2.7027 4.066,7.0641 4.066,7.0641l237.21,100.91s-3.0427,-14.668 0.673,-18.592c46.825,-30.179 123,-71.865 123,-71.865l0.0012,0.0021z"/>
   <path id="svg_6" fill="url(#l)" d="m60.042,2151.8l-214.99,-79.435l-126.46,59.257s-6.4997,4.2863 -6.8502,7.7049c-0.27732,2.7027 4.066,7.0641 4.066,7.0641l225.61,93.847s-3.0427,-14.668 0.673,-18.592c46.825,-30.179 117.95,-69.847 117.95,-69.847l0.0012,0.001z"/>
   <path id="svg_7" opacity="0.4726" filter="url(#aj)" fill="#fff" d="m-274.91598,2130.19355a1.60157,1.60157 0 0 0 -0.15721,3.0221l212.0927,88.58091a1.61139,1.61139 0 1 0 1.29948,-2.95527l-212.15954,-88.5772a1.60157,1.60157 0 0 0 -1.07537,-0.06969l-0.00005,-0.00085z"/>
   <path id="svg_8" fill="#c8a250" d="m69.135,2152.8s-87.783,47.733 -122.75,72.624l-0.25512,0.2164l-0.12173,0.2074c-1.5757,3.1451 -0.95054,7.6471 -0.13074,11.457s2.0128,6.9121 2.0128,6.9121l0.4748,1.2444l1.0953,-0.7341l125.5,-82.116l-0.96341,-0.7534l-125.02,81.571c-0.30592,-0.8787 -1.0587,-5.2918 -1.6876,-8.2153c-0.75968,-3.5307 -0.55778,-7.0181 0.38558,-9.1897c17.05,-10.62 12.708,-8.7962 64.775,-39.712c23.772,-14.115 45.649,-25.761 54.632,-31.013c2.7238,-1.5927 4.4396,-1.1546 4.4396,-1.1546s-0.41303,-1.7796 -2.384,-1.3444l-0.00248,0.0002z"/>
   <g id="svg_9">
    <path id="svg_10" fill="url(#k)" d="m-183.72932,2091.9938c-1.10974,0.108 -2.24502,1.0764 -3.41522,2.9717c-1.2231,1.9798 -3.36371,4.4549 -3.77381,4.3783c-0.14946,-0.028 -0.40424,0.056 -0.55395,0.221s-0.51679,0.3066 -0.86391,0.3027c-0.51284,0 -0.85061,0.23 -1.69465,1.1702c-0.57092,0.6365 -0.96996,1.2954 -0.92312,1.4398c0.14233,0.4536 -0.37115,0.7364 -0.73099,0.4209c-0.20345,-0.1809 -0.89308,-0.1723 -1.70201,-0.024c-1.06937,0.1935 -1.43999,0.3804 -1.77586,0.8599c-0.27034,0.3879 -0.53663,0.5344 -0.66842,0.4172c-0.30858,-0.2707 -0.94963,0.2186 -2.41112,1.842c-1.15655,1.2849 -1.31306,1.6007 -1.42525,2.54c-0.12207,1.0227 -0.0957,1.0342 0.71989,1.5321c0.46489,0.2838 1.26943,0.809 1.83101,1.1521c1.36224,0.8315 1.70604,1.1693 1.73126,1.5989c0.0154,0.262 -0.10095,0.2877 -0.4284,0.2137c-0.24755,-0.056 -0.49113,0.05 -0.55374,0.2211c-0.065,0.1709 -0.50417,0.3244 -0.98577,0.3728c-0.8285,0.07 -0.9589,0.1592 -2.53277,1.9121c-1.65163,1.8409 -1.69007,1.8795 -2.29662,1.6465c-0.33653,-0.1302 -1.08842,-0.6931 -1.71305,-1.2853l-1.13699,-1.1296l-2.85783,2.813l-2.79506,2.8092l-1.07823,-0.1253c-1.04808,-0.1227 -2.02143,0.2173 -2.65451,0.9116c-0.5401,0.592 -1.02429,0.6584 -1.12612,0.1283c-0.0402,-0.2475 -0.30049,-0.622 -0.5499,-0.7864c-0.34181,-0.2274 -0.41946,-0.4515 -0.24687,-0.9932c0.526,-1.6569 0.58752,-1.9483 0.17383,-2.4037c-0.44759,-0.4927 -1.95025,-1.0153 -2.18554,-0.7532c-0.0784,0.088 -0.0832,0.2985 -0.0361,0.4429c0.13697,0.4353 -0.18701,0.6028 -0.55025,0.2843c-0.1875,-0.1647 -0.27452,-0.5046 -0.16806,-0.7459c0.15692,-0.3563 0.0902,-0.5805 -0.57202,-1.163c-0.60079,-0.5257 -0.85355,-0.5937 -0.83799,-0.3288c0.0149,0.2543 -0.15484,0.4282 -0.59111,0.6647c-0.34266,0.1851 -1.15603,1.0384 -1.84224,1.8715c-0.98104,1.1906 -1.23026,1.6351 -1.14107,2.0193c0.063,0.2695 -0.029,0.6372 -0.20318,0.8309c-0.16431,0.1939 -0.24034,0.4317 -0.15474,0.5758c0.12361,0.2076 -0.1051,0.4724 -1.00456,1.1294c-1.41595,1.0343 -1.93596,1.5306 -1.5433,1.6022c0.21227,0.039 -0.23357,0.6235 -1.58786,1.9198c-2.0815,1.993 -3.81902,3.9402 -5.14351,5.7183c-0.91676,1.2308 -0.96707,1.6805 -0.33638,2.8538c0.2497,0.4649 0.20861,0.7066 -0.12525,1.078c-0.23995,0.2667 -0.38318,0.5642 -0.33634,0.7125c0.05,0.1577 -0.61737,1.0495 -1.63568,2.1746c-0.32714,0.3618 -0.62253,0.7644 -1.00064,1.1924c0.28419,-0.3527 0.73101,-0.7196 1.31821,-1.1481l0.72362,-0.5462l-0.53182,0.5979c-0.28201,0.3386 -0.81748,1.0825 -1.22574,1.6464c-0.69311,0.9528 -0.74809,0.9543 -0.73099,0.4209c0.009,-0.3136 0.16296,-0.6183 0.44672,-0.9709c-0.71305,0.8065 -1.49893,1.6572 -1.94937,2.1925l-1.29631,1.5248l0.36179,0.7974c0.18956,0.4551 0.55074,1.2496 0.79352,1.717c0.36473,0.7017 0.36937,0.9266 0.0155,1.3217c-0.56051,0.6239 -0.52731,1.1456 0.16511,1.7537c0.70945,0.621 0.73267,1.0675 -0.006,2.0157c-0.3224,0.4133 -0.52544,0.8709 -0.44693,0.9709c0.21516,0.2708 0.27682,1.102 0.0921,1.5692c-0.0971,0.2433 -0.0485,0.5605 0.16437,0.683c0.20158,0.1125 0.61193,0.5949 0.8859,1.1446c0.36079,0.7221 0.5954,1.0212 0.81228,0.96c0.21064,-0.062 0.29789,-0.039 0.26205,0.1753c-0.0269,0.1623 0.26951,0.6017 0.68672,0.9674c0.54076,0.4737 0.76476,0.8841 0.7716,1.3399c0.004,0.4379 0.15333,0.6774 0.49083,0.8532c0.32662,0.1694 0.41294,0.3405 0.28037,0.4873c-0.11482,0.1246 -0.0669,0.9043 0.0995,1.6945c0.36225,1.7141 0.28099,2.2678 -0.46539,2.7986c-0.54607,0.3882 -0.77146,0.7132 -0.75691,1.0521l0.38371,0.1018c-0.0174,-0.2968 0.1253,-0.6028 0.63895,-0.9192c0.44346,-0.2746 0.49457,-0.2472 0.0184,0.3138c-0.27571,0.3256 -0.41363,0.5274 -0.3989,0.7162l55.42159,23.5752c0.0363,-0.039 0.16215,0.025 0.25837,0.1091l0.3247,0.1695c0.0268,-0.091 0.0385,-0.1479 -0.011,-0.1879c-0.10839,-0.094 1.18616,-1.7001 3.40452,-4.2305c3.19761,-3.6492 3.53171,-4.0714 2.86532,-3.7582c-0.56232,0.2646 -0.82511,0.2263 -1.07425,-0.061c-0.40806,-0.4725 -0.0399,-1.1174 0.91575,-1.5654c0.58873,-0.2784 0.67569,-0.3846 0.58333,-0.7899c-0.0887,-0.3788 0.16696,-0.8056 1.26661,-2.027c0.74946,-0.8322 1.51771,-1.5563 1.73184,-1.6133c0.22516,-0.062 0.83414,0.2487 1.42488,0.6723c0.8259,0.5936 1.11401,0.6545 1.41033,0.4209c0.20061,-0.1596 0.78125,-0.2873 1.30706,-0.2653c0.94925,0.034 0.94732,0.01 1.51369,-1.0335c0.35795,-0.6583 1.13935,-1.5633 2.11948,-2.5176c1.52776,-1.4875 1.57519,-1.5372 2.07153,-1.1923c0.34327,0.2376 0.59207,0.2348 0.75673,0.018c0.14937,-0.193 0.36703,-0.2079 0.56478,-0.033c0.1762,0.1546 0.56259,0.28 0.83429,0.2657c0.33011,-0.019 0.8516,0.2905 1.56516,0.9158c0.8877,0.7775 1.0028,1.0373 0.90454,1.4585c-0.0869,0.3816 0.0775,0.6635 0.63501,1.1594c0.40739,0.3626 0.82335,0.904 0.88959,1.2074c0.0766,0.3556 0.53613,0.9022 1.28834,1.5617c0.81816,0.7171 1.29373,1.3214 1.56505,1.9866c0.60192,1.4716 0.93,1.6659 3.04933,1.5214c1.40884,-0.083 2.18943,-0.024 2.91697,0.3324c0.62147,0.3085 1.11057,0.4499 1.33998,0.2993c0.20023,-0.1296 0.52207,-0.1292 0.69418,0.021s0.4745,0.1628 0.69396,0.021c0.22548,-0.1482 0.56342,-0.1509 0.75673,0.018c0.48955,0.4299 1.36711,0.2612 2.05644,-0.3728l0.53529,-0.5353l1.12963,1.0043c0.78113,0.6959 1.16334,0.8997 1.30321,0.7422c0.13881,-0.1539 0.32804,-0.018 0.65356,0.4025c0.32927,0.4261 0.59356,0.5154 0.90792,0.4504s0.84967,0.2722 1.89033,1.0859c1.27745,0.9967 1.51454,1.1448 1.9457,0.9562c0.3865,-0.1684 0.66962,-0.1122 1.21834,0.3694l0.73086,0.6498l-0.66454,0.4798c-0.35018,0.2796 -0.57442,0.5584 -0.53181,0.5981c0.19441,0.1729 2.23092,0.4349 2.34808,0.3029c0.0724,-0.081 0.52686,0.091 0.96724,0.3844c0.46124,0.309 1.04431,0.5255 1.41403,0.4836c0.54239,-0.064 0.82619,0.095 1.95287,1.082c1.78567,1.5658 2.32092,2.2778 1.98245,2.6546c-0.14886,0.1652 -0.18658,0.3986 -0.0928,0.5722s-0.0145,0.6284 -0.25838,0.9601c-0.47957,0.6559 -0.50029,0.6351 1.23999,2.8874c0.48292,0.6236 0.90054,1.3904 0.92296,1.7722c0.0344,0.5854 0.33157,0.9579 2.44746,3.0682l2.47338,2.4368l1.08172,0.1885c0.6466,0.091 1.31748,0.3428 1.67597,0.6573c0.48553,0.4309 0.72978,0.4964 1.34042,0.2992c0.59948,-0.1937 0.87926,-0.1652 1.3363,0.2365c0.44586,0.3902 0.76143,0.4333 1.21095,0.2437c0.52637,-0.2238 0.67668,-0.1597 1.61342,0.6612c0.73731,0.6466 1.14496,0.9151 1.36946,0.8012c0.17485,-0.087 0.51631,0.032 0.77153,0.2697c0.25492,0.2363 0.78515,0.5015 1.23328,0.6203s1.07341,0.4227 1.36209,0.6757s0.62894,0.4137 0.77522,0.3324c0.19294,-0.1077 0.72455,0.2358 1.90506,1.3368c1.45592,1.3578 1.74751,1.5508 2.87944,1.8462c0.69284,0.1811 1.35106,0.4296 1.48048,0.5428c0.12898,0.1167 0.2949,0.1327 0.3803,0.04c0.0824,-0.093 0.4274,0.028 0.70876,0.2736c0.29175,0.2541 0.64644,0.3614 0.83451,0.2657c0.25578,-0.1285 0.6148,0.1439 1.70156,1.0968c1.69533,1.4868 2.04594,1.6415 2.52176,1.1115c0.4092,-0.4568 1.594,-0.6001 2.00101,-0.2439c0.14682,0.1285 0.39676,0.09 0.56114,-0.095c0.18855,-0.219 0.33614,-0.2743 0.4358,-0.088c0.0865,0.1599 0.37828,0.2538 0.64229,0.2143c0.64546,-0.089 2.01266,0.4288 2.63971,0.9784c0.28012,0.2458 0.61429,0.3796 0.70876,0.2734c0.11067,-0.1222 0.31217,-0.018 0.5871,0.3435c0.23857,0.3082 0.52199,0.5664 0.66071,0.5279c0.46681,-0.1324 0.88996,0.4658 1.10003,1.573c0.23886,1.2582 0.34818,1.3649 1.02249,1.3253c0.27182,-0.016 0.61482,0.071 0.76806,0.2069c0.18072,0.1587 0.43465,0.1116 0.68305,-0.1644c0.26046,-0.2934 0.58479,-0.3745 0.99326,-0.249c0.33204,0.1048 0.73077,0.053 0.93758,-0.1172c0.26046,-0.2167 0.58932,-0.1953 1.01148,0.065c0.45085,0.2782 0.69048,0.2687 1.00784,0c0.23562,-0.1981 0.66782,-0.3544 0.92298,-0.3694c0.54299,-0.032 1.79246,-1.3509 1.95717,-2.067c0.0759,-0.3137 -0.10354,-0.6322 -0.43193,-0.9193c-0.94493,-0.829 -0.70476,-1.2526 2.38188,-4.4855c2.017,-2.1137 2.74061,-2.9191 2.59198,-3.0495c-0.11077,-0.098 -0.0424,-0.3566 0.15474,-0.5758s0.28945,-0.7774 0.24385,-1.2109s0.0489,-0.9921 0.24406,-1.2112c0.21566,-0.2389 0.25167,-0.4322 0.0907,-0.5721c-0.14895,-0.1283 -0.12824,-0.3961 0.0288,-0.5684c0.15476,-0.174 0.2518,-0.7327 0.24386,-1.2109s0.15039,-0.942 0.31748,-1.0263c0.15576,-0.084 0.18895,-0.3216 0.0928,-0.5722s-0.11335,-0.8722 -0.0192,-1.3847c0.11606,-0.6143 0.0232,-1.3193 -0.30583,-1.9974c-0.36359,-0.7442 -0.37944,-1.0653 -0.13193,-1.1887c0.17447,-0.094 0.20693,-0.2343 0.10542,-0.3211c-0.37882,-0.3322 -0.67663,-3.0797 -0.39429,-3.5038c0.21522,-0.3231 0.11509,-0.7038 -0.26896,-1.3696c-0.2863,-0.5007 -0.41945,-1.0021 -0.31724,-1.1153s-0.003,-0.5275 -0.24532,-0.9302c-0.29167,-0.4791 -0.45115,-1.1991 -0.37619,-2.1193c0.0892,-1.1082 0.0328,-1.5208 -0.36166,-1.8681c-0.27578,-0.2413 -0.47357,-0.5337 -0.41698,-0.6682c0.1166,-0.2766 -0.0789,-0.4676 -2.54006,-2.4961c-2.09536,-1.7278 -2.07872,-1.7947 -1.25481,-4.209c0.69099,-2.0216 0.5731,-3.4236 -0.39287,-4.5745c-0.40425,-0.4806 -1.97614,-1.8869 -3.45535,-3.0721c-2.6174,-2.0943 -3.39596,-2.4655 -3.83214,-1.9793c-0.0863,0.099 0.11667,0.1624 0.45047,0.1621s0.71823,0.11 0.83429,0.2658c0.12847,0.181 -0.15473,0.2475 -0.6869,0.1025c-0.7757,-0.2093 -0.8721,-0.2929 -0.8601,-0.7052c0.007,-0.2526 0.002,-0.6956 0.003,-1.0079s0.12356,-0.8878 0.30685,-1.2146c0.19869,-0.3565 0.26442,-0.8754 0.11051,-1.3292c-0.14543,-0.4332 -0.10745,-0.8811 0.0612,-1.0744s0.18195,-0.5138 0.0833,-0.6976s-0.004,-0.4682 0.15105,-0.6386s0.16671,-0.9594 0.0228,-1.7647c-0.13094,-0.8069 -0.12867,-1.6806 0.01,-1.9531c0.13407,-0.271 0.13016,-0.8484 -0.0118,-1.259s-0.18981,-1.7365 -0.1732,-2.9498s-0.11401,-2.3065 -0.26757,-2.4404s-0.33555,-1.0074 -0.42792,-1.9274c-0.21864,-2.1546 -0.73286,-2.6251 -2.67255,-2.6141c-0.76765,0 -1.55963,-0.1392 -1.78332,-0.3362c-0.22141,-0.1949 -0.59474,-0.3204 -0.83451,-0.2658c-0.36361,0.073 -0.57121,-0.1057 -1.31774,-0.9933c-0.91816,-1.0919 -2.59721,-2.152 -3.46676,-2.1899c-0.23775,-0.01 -0.67871,-0.3126 -1.11835,-0.8158c-0.57723,-0.6607 -0.81451,-0.8666 -1.3106,-0.8679c-0.34353,0 -0.74104,0.1656 -0.86391,0.3027c-0.17913,0.1969 -0.39344,0.057 -1.04475,-0.6316c-0.59095,-0.6244 -0.96274,-0.8879 -1.31057,-0.8675s-0.68446,-0.1698 -1.17768,-0.7498c-0.41281,-0.4842 -0.75643,-0.7496 -0.92287,-0.7015c-0.14959,0.043 -0.45071,-0.1042 -0.64619,-0.277s-0.58468,-0.2804 -0.83429,-0.2658s-0.94989,-0.3151 -1.55412,-0.7276c-0.85491,-0.584 -1.1321,-0.9224 -1.28119,-1.4362c-0.10489,-0.3632 -0.30391,-0.6875 -0.48365,-0.7273c-0.0525,-0.018 -0.0413,-0.047 -0.0656,-0.058c0.1452,-0.01 0.21701,-0.2488 0.2214,-0.5169c0.006,-0.2682 0.12943,-0.6785 0.26231,-0.8969c0.16032,-0.2618 0.11099,-0.5546 -0.17545,-0.8716s-0.35517,-0.6043 -0.17389,-0.8084c0.14886,-0.1652 0.15768,-0.5623 0.0103,-0.8823c-0.14095,-0.3207 -0.17665,-0.6732 -0.0479,-0.8161c0.14685,-0.1629 0.0494,-0.4353 -0.23057,-0.6792c-0.24242,-0.2133 -0.34703,-0.4148 -0.28036,-0.4873s0.0728,-0.584 0.0575,-1.137c-0.0213,-0.7641 -0.12854,-1.1308 -0.59434,-1.5395c-0.50807,-0.4426 -0.64708,-0.7629 -0.60519,-1.728c0.0328,-0.6462 -0.0736,-1.2543 -0.20492,-1.3736c-0.13778,-0.1205 -0.1525,-0.2983 -0.084,-0.3728s-0.0714,-0.5964 -0.32113,-1.1778c-0.42389,-0.983 -0.45344,-1.1835 0.16647,-2.529c0.36575,-0.7954 0.65131,-1.7815 0.62801,-2.1782s0.22056,-1.0787 0.53888,-1.5433c0.77428,-1.1285 0.85685,-1.576 0.37324,-2.226c-0.22578,-0.3056 -0.42886,-0.8706 -0.45384,-1.296c-0.025,-0.4257 -0.15202,-0.9104 -0.31377,-1.0524s-0.21404,-0.5437 -0.1135,-0.8748c0.13432,-0.4493 0.0211,-0.6991 -0.37675,-1.0488c-0.29685,-0.257 -0.43577,-0.5175 -0.35052,-0.6091c0.0824,-0.093 0.004,-0.2961 -0.14964,-0.4322s-0.35341,-0.5781 -0.43562,-0.9821c-0.0923,-0.4775 -0.40548,-0.9613 -0.90042,-1.3955c-0.66393,-0.5828 -0.72343,-0.8443 -0.66818,-1.7243c0.0512,-0.8072 -0.0444,-1.121 -0.53157,-1.5434c-0.3717,-0.3277 -0.56912,-0.6394 -0.49101,-0.8527c0.0704,-0.1884 -0.0481,-0.4537 -0.22477,-0.6167s-0.24028,-0.403 -0.15333,-0.4949c0.0845,-0.093 -0.0408,-0.3304 -0.28426,-0.5501c-0.24964,-0.2193 -0.47893,-0.6468 -0.49473,-0.9158s-0.27714,-0.6659 -0.55726,-0.9117s-0.52406,-0.5945 -0.48735,-0.7903c0.0357,-0.1949 -0.22445,-0.8668 -0.59066,-1.4769c-0.36491,-0.6098 -0.59205,-1.205 -0.5166,-1.2921s-0.0444,-0.2813 -0.28058,-0.4873s-0.34993,-0.5371 -0.29165,-0.6758c0.10522,-0.2515 -2.41389,-2.9854 -3.63227,-3.9431c-0.60737,-0.4771 -0.64369,-0.4642 -1.43282,0.2727c-0.77101,0.7208 -1.41816,2.0148 -1.12612,2.2702c0.0723,0.064 0.0154,0.2628 -0.1621,0.4504c-0.21202,0.228 -0.1953,0.4835 0.0405,0.6906c0.20095,0.1746 0.2299,0.4122 0.0951,0.5611c-0.12863,0.1447 -0.28429,0.6027 -0.31791,1.0263c-0.0521,0.6452 -0.49697,1.363 -2.82457,4.4485c-1.53049,2.0285 -2.91064,3.8003 -3.10906,3.8985s-0.5684,0.033 -0.76413,-0.1437c-0.19441,-0.1728 -0.54778,-0.2393 -0.82712,-0.14c-0.43725,0.1543 -0.59256,0.056 -1.17029,-0.624c-0.56582,-0.6633 -0.8215,-0.7338 -1.3621,-0.6757c-0.40611,0.05 -0.79615,-0.1161 -1.15945,-0.4358c-0.6889,-0.603 -1.35174,-0.5615 -3.95768,0.1702c-1.49813,0.4192 -1.9952,0.4231 -2.32229,0.1364c-0.26722,-0.2342 -0.54604,-0.239 -0.82315,-0.076c-0.23807,0.1383 -0.48913,0.1209 -0.5684,-0.029c-0.1995,-0.3688 -0.38514,-0.3704 -2.77647,-0.089c-1.1377,0.1354 -2.16565,0.093 -2.33332,-0.051c-0.16716,-0.1466 -0.60397,-0.2367 -0.95618,-0.1958s-0.83994,-0.1286 -1.02632,-0.3177c-0.59707,-0.6082 -0.74838,-0.6381 -1.15555,-0.3731c-0.2698,0.1744 -0.5152,0.1331 -0.82691,-0.14c-0.25331,-0.2234 -0.75311,-0.3537 -1.0891,-0.314c-0.33462,0.041 -0.78002,-0.042 -0.95617,-0.1959s-0.46255,-0.2402 -0.6388,-0.151s-0.67346,-0.1212 -1.15924,-0.4359c-0.50738,-0.3286 -0.97742,-0.4373 -1.08887,-0.3138c-0.13868,0.156 -0.40078,-0.013 -0.91573,-0.5761c-0.6105,-0.6655 -0.74574,-0.7647 -0.9746,-0.5097c-0.22621,0.2526 -0.3656,0.1885 -0.84188,-0.3913c-1.81678,-2.2125 -1.62348,-2.0696 -2.43632,-1.8093c-0.41352,0.1314 -1.30417,0.1537 -1.95324,-0.012c-0.98606,-0.2487 -1.29102,-0.2571 -1.75367,0.1652c-0.41226,0.3753 -0.74345,0.4749 -1.30334,0.3284c-0.41329,-0.1128 -0.82421,-0.076 -0.94143,0.055c-0.24375,0.2712 -0.49225,0.1553 -2.32216,-0.9343c-0.7178,-0.4275 -1.39779,-0.74 -1.55064,-0.6648c-0.18302,0.094 -0.50646,-0.054 -0.9116,-0.5132c-0.51223,-0.5827 -0.75255,-0.7126 -1.74634,-0.7792c-0.67954,-0.046 -1.24343,-0.2312 -1.34734,-0.4246c-0.11085,-0.2092 -0.3873,-0.2611 -0.7017,-0.1495c-0.36855,0.1309 -0.71728,0.012 -1.15556,-0.3731c-0.41941,-0.3666 -0.79331,-0.4728 -1.15556,-0.3731c-0.28962,0.081 -0.65514,0.01 -0.82691,-0.14c-0.16917,-0.1443 -0.43075,-0.1182 -0.56498,0.033c-0.4197,0.4677 -3.29555,0.3756 -4.29004,-0.1261c-0.5012,-0.2525 -0.88063,-0.5769 -0.86031,-0.7051c0.0651,-0.387 -0.53183,-0.7487 -1.11099,-0.6905l0.00046,0.0057z"/>
    <path id="svg_11" fill="url(#j)" d="m-144.07001,2139.3632c-6.19576,-0.1451 -11.73294,5.3323 -17.53125,7.9375c-7.6603,3.4418 -16.89806,4.854 -22.6875,10.9375c-5.07548,5.3332 -8.41414,12.9837 -8.59375,20.3437c-0.0513,2.1 0.47256,4.6362 1.28125,7.25l7.46875,3.1876c0.0363,-0.039 0.15378,0.01 0.25,0.094l0.3125,0.1875c0.0268,-0.091 0.0495,-0.1475 0,-0.1875c-0.10839,-0.094 1.18789,-1.7196 3.40625,-4.25c3.19761,-3.6492 3.54139,-4.0632 2.875,-3.75c-0.56232,0.2646 -0.84461,0.2248 -1.09375,-0.062c-0.40806,-0.4725 -0.0181,-1.1145 0.9375,-1.5625c0.58873,-0.2784 0.65486,-0.376 0.5625,-0.7813c-0.0887,-0.3787 0.1816,-0.8098 1.28125,-2.0312c0.74946,-0.8322 1.50462,-1.568 1.71875,-1.625c0.22516,-0.062 0.84676,0.2639 1.4375,0.6875c0.8259,0.5936 1.10993,0.6399 1.40625,0.4063c0.20061,-0.1596 0.78669,-0.272 1.3125,-0.25c0.94925,0.034 0.93363,-0.019 1.5,-1.0626c0.35795,-0.6583 1.14487,-1.5457 2.125,-2.5c1.52776,-1.4875 1.56616,-1.5323 2.0625,-1.1874c0.34327,0.2375 0.61659,0.2168 0.78125,0c0.14937,-0.1931 0.36475,-0.2062 0.5625,-0.031c0.1762,0.1546 0.5408,0.2956 0.8125,0.2813c0.33011,-0.019 0.84894,0.2809 1.5625,0.9062c0.8877,0.7775 1.00451,1.0475 0.90625,1.4688c-0.0869,0.3816 0.0987,0.6603 0.65625,1.1562c0.40739,0.3626 0.80876,0.9154 0.875,1.2188c0.0766,0.3555 0.52904,0.8717 1.28125,1.5312c0.81816,0.7171 1.29118,1.3348 1.5625,2c0.60192,1.4716 0.94317,1.6757 3.0625,1.5312c1.40884,-0.083 2.17871,-0.044 2.90625,0.3126c0.62147,0.3085 1.11434,0.4631 1.34375,0.3124c0.20023,-0.1296 0.54664,-0.1189 0.71875,0.031s0.46804,0.1418 0.6875,0c0.22548,-0.1482 0.55669,-0.1376 0.75,0.031c0.48955,0.4299 1.37317,0.259 2.0625,-0.375l0.53125,-0.5313l1.125,1c0.78113,0.6959 1.17263,0.9075 1.3125,0.75c0.13881,-0.1539 0.33073,-0.014 0.65625,0.4063c0.32927,0.4261 0.59189,0.5024 0.90625,0.4374s0.83434,0.2801 1.875,1.0938c1.27745,0.9967 1.50634,1.1261 1.9375,0.9375c0.3865,-0.1684 0.67003,-0.1066 1.21875,0.375l0.75,0.6563l-0.65625,0.4687c-0.35018,0.2796 -0.57386,0.554 -0.53125,0.5937c0.19441,0.173 2.22659,0.4445 2.34375,0.3126c0.0724,-0.081 0.52837,0.081 0.96875,0.375c0.46124,0.309 1.03653,0.5419 1.40625,0.5c0.54239,-0.064 0.81082,0.1067 1.9375,1.0937c0.0392,0.034 0.0557,0.06 0.0937,0.094c2.73567,-3.5428 5.50105,-8.048 5.15625,-11.5c-0.34871,-3.4911 -5.77427,-4.5369 -7.03125,-7.8124c-2.4292,-6.3305 2.89382,-14.2119 0,-20.3438c-2.45114,-5.1939 -7.63127,-10.0959 -13.3125,-10.9375c-0.4192,-0.062 -0.83695,-0.1153 -1.25,-0.125l0.00005,-0.0008z"/>
    <path id="svg_12" fill="url(#i)" d="m-183.72626,2091.9882c-1.10974,0.108 -2.23605,1.0734 -3.40625,2.9687c-1.2231,1.9799 -3.37115,4.4516 -3.78125,4.375c-0.14946,-0.028 -0.41279,0.054 -0.5625,0.2188c-0.14873,0.1673 -0.52788,0.3164 -0.875,0.3125c-0.51284,0 -0.84346,0.2473 -1.6875,1.1875c-0.57092,0.6365 -0.95309,1.2931 -0.90625,1.4375c0.14233,0.4536 -0.39016,0.7217 -0.75,0.4063c-0.20345,-0.1809 -0.87857,-0.1796 -1.6875,-0.031c-1.06937,0.1935 -1.44538,0.3955 -1.78125,0.875c-0.27034,0.3879 -0.52446,0.5235 -0.65625,0.4063c-0.30858,-0.2708 -0.97601,0.2203 -2.4375,1.8437c-1.15655,1.2849 -1.29406,1.5919 -1.40625,2.5313c-0.12207,1.0226 -0.0968,1.0333 0.71875,1.5312c0.46489,0.2838 1.28217,0.8131 1.84375,1.1562c1.36224,0.8315 1.69353,1.1955 1.71875,1.625c0.0154,0.2621 -0.11005,0.2615 -0.4375,0.1876c-0.24755,-0.056 -0.49989,0.048 -0.5625,0.2187c-0.065,0.1709 -0.48715,0.3266 -0.96875,0.375c-0.8285,0.07 -0.95738,0.1846 -2.53125,1.9375c-1.65163,1.8409 -1.70595,1.858 -2.3125,1.625c-0.33653,-0.1302 -1.06287,-0.6891 -1.6875,-1.2812l-1.15625,-1.125l-2.84375,2.8124l-2.8125,2.8126l-1.0625,-0.125c-1.04808,-0.1227 -2.02317,0.2119 -2.65625,0.9062c-0.5401,0.592 -1.02317,0.6551 -1.125,0.125c-0.0402,-0.2475 -0.31309,-0.6168 -0.5625,-0.7812c-0.34181,-0.2275 -0.42259,-0.4584 -0.25,-1c0.526,-1.6569 0.60119,-1.9509 0.1875,-2.4063c-0.44759,-0.4927 -1.95221,-1.0121 -2.1875,-0.75c-0.0784,0.088 -0.0784,0.2931 -0.0312,0.4375c0.13697,0.4353 -0.19926,0.5998 -0.5625,0.2812c-0.1875,-0.1646 -0.26271,-0.4774 -0.15625,-0.7187c0.15692,-0.3563 0.0685,-0.605 -0.59375,-1.1875c-0.60079,-0.5257 -0.82806,-0.5774 -0.8125,-0.3125c0.0149,0.2543 -0.15748,0.4198 -0.59375,0.6563c-0.34266,0.1851 -1.15754,1.0418 -1.84375,1.875c-0.98104,1.1905 -1.24544,1.647 -1.15625,2.0312c0.063,0.2695 -0.0133,0.6188 -0.1875,0.8125c-0.16431,0.1939 -0.24185,0.4496 -0.15625,0.5937c0.12361,0.2077 -0.10054,0.468 -1,1.125c-1.41595,1.0343 -1.95516,1.5222 -1.5625,1.5938c0.21227,0.039 -0.20821,0.6099 -1.5625,1.9062c-2.0815,1.993 -3.83176,3.9407 -5.15625,5.7188c-0.91676,1.2308 -0.97444,1.7017 -0.34375,2.875c0.2497,0.4649 0.20886,0.6911 -0.125,1.0625c-0.23995,0.2667 -0.39059,0.5704 -0.34375,0.7187c0.05,0.1578 -0.60669,1.0624 -1.625,2.1876c-0.32714,0.3618 -0.62189,0.7595 -1,1.1874c0.28419,-0.3526 0.7253,-0.7277 1.3125,-1.1562l0.71875,-0.5312l-0.53125,0.5937c-0.28201,0.3386 -0.81049,1.0611 -1.21875,1.625c-0.69311,0.9528 -0.73585,0.9709 -0.71875,0.4375c0.009,-0.3136 0.15374,-0.6161 0.4375,-0.9688c-0.71305,0.8066 -1.48706,1.6522 -1.9375,2.1876l-1.3125,1.5312l0.375,0.7812c0.18956,0.4552 0.53847,1.2514 0.78125,1.7188c0.36473,0.7017 0.38512,0.9486 0.0312,1.3438c-0.56051,0.6239 -0.53617,1.1418 0.15625,1.75c0.70945,0.621 0.73867,1.0518 0,2c-0.3224,0.4133 -0.54726,0.8687 -0.46875,0.9687c0.21516,0.2708 0.27847,1.0953 0.0937,1.5625c-0.0971,0.2433 -0.0254,0.565 0.1875,0.6875c0.20158,0.1125 0.60103,0.6065 0.875,1.1563c0.36079,0.722 0.59562,1.0299 0.8125,0.9687c0.21064,-0.062 0.28584,-0.058 0.25,0.1563c-0.0269,0.1622 0.27029,0.603 0.6875,0.9687c0.54076,0.4737 0.77441,0.8879 0.78125,1.3437c0.004,0.4379 0.1625,0.668 0.5,0.8438c0.32662,0.1694 0.41382,0.3532 0.28125,0.5c-0.11482,0.1246 -0.0727,0.8973 0.0937,1.6875c0.36225,1.7141 0.27763,2.2817 -0.46875,2.8125c-0.54607,0.3882 -0.76455,0.6924 -0.75,1.0312l0.375,0.125c-0.0174,-0.2968 0.11135,-0.621 0.625,-0.9374c0.44346,-0.2747 0.50742,-0.2485 0.0312,0.3124c-0.27571,0.3257 -0.42098,0.53 -0.40625,0.7188l24.8125,10.5625c2.64757,-1.9235 5.0226,-4.4116 7,-6.7813c5.0265,-6.0235 5.24834,-14.8247 8.625,-21.9062c3.87038,-8.1169 8.16564,-16.0732 13.28125,-23.4688c3.47611,-5.0252 7.77231,-9.4552 11.75,-14.0937c3.57813,-4.1725 8.19819,-7.5809 11.09375,-12.2187c-0.37863,0.3204 -0.72456,0.3874 -1.25,0.25c-0.41329,-0.1128 -0.82028,-0.069 -0.9375,0.062c-0.24375,0.2713 -0.48259,0.1521 -2.3125,-0.9374c-0.7178,-0.4275 -1.40965,-0.7315 -1.5625,-0.6563c-0.18302,0.094 -0.50111,-0.072 -0.90625,-0.5313c-0.51223,-0.5826 -0.75621,-0.7146 -1.75,-0.7812c-0.67954,-0.046 -1.23984,-0.2128 -1.34375,-0.4062c-0.11085,-0.2092 -0.3731,-0.2679 -0.6875,-0.1563c-0.36855,0.1309 -0.71797,0.01 -1.15625,-0.375c-0.41941,-0.3666 -0.794,-0.4747 -1.15625,-0.375c-0.28962,0.081 -0.67198,0.025 -0.84375,-0.125c-0.16917,-0.1443 -0.42827,-0.1199 -0.5625,0.031c-0.4197,0.4677 -3.28676,0.3766 -4.28125,-0.125c-0.5012,-0.2526 -0.89532,-0.5906 -0.875,-0.7188c0.0651,-0.387 -0.51459,-0.7457 -1.09375,-0.6875l0.00015,0.0004z"/>
    <path id="svg_13" fill="url(#h)" d="m-100.60126,2195.6757c-1.06127,0.01 -2.09836,0.063 -3.09375,0.125c-2.46926,0.1537 -4.80878,1.2568 -7.03125,2.3438c-2.51409,1.2296 -6.03203,3.5365 -8.90625,5.5624l0.625,0.625l1.09375,0.1876c0.6466,0.091 1.29776,0.3417 1.65625,0.6562c0.48553,0.4309 0.73311,0.4784 1.34375,0.2812c0.59948,-0.1936 0.88671,-0.1516 1.34375,0.25c0.44586,0.3902 0.76923,0.4397 1.21875,0.25c0.52637,-0.2238 0.68826,-0.1646 1.625,0.6563c0.73731,0.6466 1.11925,0.9264 1.34375,0.8125c0.17485,-0.087 0.52603,0.012 0.78125,0.25c0.25492,0.2363 0.80187,0.5062 1.25,0.625s1.05507,0.4345 1.34375,0.6875s0.63497,0.3938 0.78125,0.3125c0.19294,-0.1077 0.72574,0.2427 1.90625,1.3438c1.45592,1.3578 1.74307,1.5483 2.875,1.8437c0.69284,0.1811 1.33933,0.4493 1.46875,0.5625c0.12898,0.1167 0.32085,0.1239 0.40625,0.031c0.0824,-0.093 0.40614,0.036 0.6875,0.2813c0.29175,0.2541 0.65568,0.3457 0.84375,0.25c0.25578,-0.1285 0.60074,0.1408 1.6875,1.0937c1.69533,1.4869 2.05543,1.6551 2.53125,1.125c0.4092,-0.4567 1.59299,-0.6062 2,-0.25c0.14682,0.1285 0.39812,0.091 0.5625,-0.094l0.0312,-0.031c0.40244,-2.6841 0.76088,-5.7838 0.625,-7.9062c-0.2061,-3.2192 -0.0404,-7.1802 -2.375,-9.4062c-2.16536,-2.0647 -5.44118,-2.4887 -8.625,-2.4688l0.00005,0.0002z"/>
   </g>
   <path id="svg_14" fill="#957b3d" d="m-174.28,2081.4l-0.375,0.9375l208.06,86.188l0.375,-0.9062l-208.06,-86.219l0,-0.0003zm-32.844,14.094l-0.40625,0.9374l213.59,88.406l0.375,-0.9375l-213.56,-88.406l0.00125,0.0001zm-32.875,16.437l-0.375,0.9063l213.59,88.406l0.375,-0.9063l-213.59,-88.406zm-34.281,14.75l-0.375,0.9376l219.69,90.062l0.40625,-0.9062l-219.72,-90.094l-0.00125,0.0006z"/>
   <path id="svg_15" fill="#957b3d" d="m-137.26748,2079.6034l-0.1875,0.094l-126.46875,59.2812l-0.0312,0l-0.0312,0.031c0,0 -1.6431,1.0662 -3.34375,2.5938s-3.51364,3.4686 -3.71875,5.4688c-0.1685,1.6421 0.95466,3.4435 2.03125,4.9062s2.1875,2.5625 2.1875,2.5625l0.0625,0.062l0.0937,0.031l0.46875,0.1876l1.125,-0.5938l-1.09375,-0.4375c-0.0285,-0.029 -1.05083,-1.0317 -2.0625,-2.4063c-1.02574,-1.3936 -1.92132,-3.1582 -1.8125,-4.2187c0.14546,-1.4185 1.73817,-3.3423 3.375,-4.8125c1.6096,-1.4458 3.13566,-2.4657 3.1875,-2.5l0.0625,-0.031l126.1875,-59.125l0.21875,0.062l-0.0625,-1.0624l-0.1875,-0.094l-0.00005,0.0011z"/>
   <path id="svg_16" fill="#957b3d" d="m-85.68446,2097.7923l-0.1875,0.094l-128.81584,60.4547l-0.0312,0l-0.0312,0.031c0,0 -1.6431,1.0662 -3.34375,2.5938s-3.51364,3.4686 -3.71875,5.4688c-0.1685,1.6421 0.95466,3.4435 2.03125,4.9062s2.1875,2.5625 2.1875,2.5625l0.0625,0.062l0.0937,0.031l0.46875,0.1876l1.125,-0.5938l-1.09375,-0.4375c-0.0285,-0.029 -1.05083,-1.0317 -2.0625,-2.4063c-1.02574,-1.3936 -1.92132,-3.1582 -1.8125,-4.2187c0.14546,-1.4185 1.73817,-3.3423 3.375,-4.8125c1.6096,-1.4458 3.13566,-2.4657 3.1875,-2.5l0.0625,-0.031l128.53459,-60.2985l0.21875,0.062l-0.0625,-1.0624l-0.1875,-0.094l-0.00005,0.0011z"/>
   <path id="svg_17" fill="#957b3d" d="m-30.32388,2118.1269l-0.1875,0.094l-132.72765,62.8018l-0.0312,0l-0.0312,0.031c0,0 -1.6431,1.0662 -3.34375,2.5938s-3.51364,3.4686 -3.71875,5.4688c-0.1685,1.6421 0.95466,3.4435 2.03125,4.9062s2.1875,2.5625 2.1875,2.5625l0.0625,0.062l0.0937,0.031l0.46875,0.1876l1.125,-0.5938l-1.09375,-0.4375c-0.0285,-0.029 -1.05083,-1.0317 -2.0625,-2.4063c-1.02574,-1.3936 -1.92132,-3.1582 -1.8125,-4.2187c0.14546,-1.4185 1.73817,-3.3423 3.375,-4.8125c1.6096,-1.4458 3.13566,-2.4657 3.1875,-2.5l0.0625,-0.031l132.4464,-62.6456l0.21875,0.062l-0.0625,-1.0624l-0.1875,-0.094l-0.00005,0.0011z"/>
   <path id="svg_18" fill="#957b3d" d="m20.95136,2137.6906l-0.1875,0.094l-128.12839,66.473l-0.0312,0l-0.0312,0.031c0,0 -1.6431,1.0662 -3.34375,2.5938s-3.51364,3.4686 -3.71875,5.4688c-0.1685,1.6421 0.95466,3.4435 2.03125,4.9062s2.1875,2.5625 2.1875,2.5625l0.0625,0.062l0.0937,0.031l0.46875,0.1876l1.125,-0.5938l-1.09375,-0.4375c-0.0285,-0.029 -1.05083,-1.0317 -2.0625,-2.4063c-1.02574,-1.3936 -1.92132,-3.1582 -1.8125,-4.2187c0.14546,-1.4185 1.73817,-3.3423 3.375,-4.8125c1.6096,-1.4458 3.13566,-2.4657 3.1875,-2.5l0.0625,-0.031l127.84714,-66.3168l0.21875,0.062l-0.0625,-1.0624l-0.1875,-0.094l-0.00005,0.0011z"/>
  </g>
 </g>
</svg>