<svg width="95" height="200" xmlns="http://www.w3.org/2000/svg">
 <symbol viewBox="-0.001 -5.217 9.651 5.217" id="y">
  <path id="svg_1" fill-rule="evenodd" fill="#020202" clip-rule="evenodd" d="m9.45,-0.2c0.133,-0.367 0.2,-0.767 0.2,-1.2c-0.1,-2.367 -1.65,-3.633 -4.65,-3.8c-1.1,-0.1 -2.183,0.233 -3.25,1c-1.2,0.8 -1.783,1.8 -1.75,3c0,0.4 0.05,0.8 0.15,1.2c0.1,-1.167 0.583,-2.15 1.45,-2.95c0.833,-0.8 1.85,-1.216 3.05,-1.25c1.2,-0.033 2.25,0.333 3.15,1.1c0.933,0.767 1.483,1.733 1.65,2.9z"/>
 </symbol>
 <defs>
  <radialGradient gradientUnits="userSpaceOnUse" gradientTransform="matrix(0.7337204217910767,-0.04510053992271423,-0.009182523936033249,-0.23923704028129578,93.86511993408203,249.41978454589844)" r="16.097" cy="229.19" cx="43.717" id="q">
   <stop offset="0.0863" stop-opacity="0.4471"/>
   <stop offset="1" stop-opacity="0"/>
  </radialGradient>
  <linearGradient y2="1.2511" y1="-0.5489" x2="0.50004" x1="0.49998" id="s">
   <stop offset="0" stop-color="#221F1F"/>
   <stop offset="0.051" stop-opacity="0.8824" stop-color="#1E1B1B"/>
   <stop offset="0.3255" stop-opacity="0.3882" stop-color="#0D0C0C"/>
   <stop offset="0.6235" stop-opacity="0.0902" stop-color="#030303"/>
   <stop offset="1" stop-opacity="0"/>
  </linearGradient>
 </defs>
 <symbol viewBox="-0.001 -5.217 9.651 5.217" id="z">
  <path id="svg_2" fill-rule="evenodd" fill="#020202" clip-rule="evenodd" d="m9.45,-0.2c0.133,-0.4 0.2,-0.816 0.2,-1.25c-0.1,-2.333 -1.633,-3.583 -4.6,-3.75c-1.1,-0.1 -2.2,0.233 -3.3,1c-1.2,0.8 -1.783,1.8 -1.75,3l0.15,1.2c0.1,-1.167 0.583,-2.15 1.45,-2.95s1.9,-1.216 3.1,-1.25c1.2,-0.033 2.25,0.333 3.15,1.1s1.433,1.733 1.6,2.9z"/>
 </symbol>
 <symbol viewBox="-0.002 -5.009 8.301 5.009" id="aa">
  <path id="svg_3" fill-rule="evenodd" fill="#020202" clip-rule="evenodd" d="m8.15,-0.25c0.1,-0.367 0.15,-0.75 0.15,-1.15c-0.1,-2.233 -1.417,-3.433 -3.95,-3.6c-0.967,-0.067 -1.917,0.25 -2.85,0.95c-1.033,0.8 -1.533,1.767 -1.5,2.9l0.15,1.15c0.067,-1.1 0.467,-2.033 1.2,-2.8c0.767,-0.767 1.667,-1.167 2.7,-1.2c1.034,-0.033 1.934,0.317 2.7,1.05c0.8,0.733 1.267,1.633 1.4,2.7z"/>
 </symbol>
 <symbol viewBox="-0.002 -4.819 8.612 4.819" id="ab">
  <path id="svg_4" fill-rule="evenodd" fill="#020202" clip-rule="evenodd" d="m8.45,-0.2c0.133,-0.533 0.183,-0.917 0.15,-1.15c-0.033,-2.2 -1.4,-3.35 -4.1,-3.45c-0.967,-0.1 -1.95,0.2 -2.95,0.9c-1.067,0.767 -1.583,1.7 -1.55,2.8l0.1,1.1c0.1,-1.067 0.533,-1.967 1.3,-2.7s1.684,-1.117 2.75,-1.15c1.067,-0.066 2.017,0.267 2.85,1c0.833,0.7 1.317,1.583 1.45,2.65z"/>
 </symbol>
 <g>
  <title>background</title>
  <rect fill="none" id="canvas_background" height="202" width="97" y="-1" x="-1"/>
 </g>
 <g>
  <title>Layer 1</title>
  <g id="svg_123">
   <g id="svg_122">
    <g id="svg_120">
     <path id="svg_115" fill="url(#q)" d="m84.02405,193.5237c2.35073,0.6496 3.52609,1.42262 3.52609,2.31999s-1.17536,1.67039 -3.52609,2.31999s-5.1907,0.97439 -8.52138,0.97439c-3.32995,0 -6.17066,-0.3248 -8.52138,-0.97439s-3.52609,-1.42262 -3.52609,-2.31999s1.17536,-1.67039 3.52609,-2.31999c2.39994,-0.6496 5.23992,-0.97439 8.52138,-0.97439c3.30571,0 6.14641,0.3248 8.52138,0.97439z"/>
     <polygon id="svg_117" fill="#C5C2BC" points="63.67559099197388,187.9553552865982 76.82478380203247,188.88334906101227 76.67786455154419,198.3952966928482 63.67559099197388,198.3952966928482 "/>
     <polygon id="svg_118" fill="url(#s)" points="63.67559099197388,188.28015387058258 76.82478380203247,189.2545496225357 76.67786455154419,198.72009527683258 63.67559099197388,198.72009527683258 "/>
    </g>
    <polygon id="svg_116" fill="#83807F" points="76.12692308425903,188.55189764499664 80.82830858230591,188.22709906101227 80.35083055496216,195.04785406589508 76.67786455154419,198.66704046726227 "/>
    <path id="svg_119" fill="#C5C2BC" d="m76.67803,198.66704c-0.04848,-0.49462 -0.07346,-1.43839 -0.07346,-2.83038c0,-0.80364 0.04922,-1.65461 0.14692,-2.55199l0.11019,-1.25279l0.11019,3.38625c0,0.92799 -0.0977,2.01375 -0.29384,3.24798l0,0.00093z"/>
   </g>
   <g id="svg_121">
    <path id="svg_7" fill="url(#q)" d="m32.93706,193.79544c2.35073,0.6496 3.52609,1.42262 3.52609,2.31999s-1.17536,1.67039 -3.52609,2.31999s-5.1907,0.97439 -8.52138,0.97439c-3.32995,0 -6.17066,-0.3248 -8.52138,-0.97439s-3.52609,-1.42262 -3.52609,-2.31999s1.17536,-1.67039 3.52609,-2.31999c2.39994,-0.6496 5.23992,-0.97439 8.52138,-0.97439c3.30571,0 6.14641,0.3248 8.52138,0.97439z"/>
    <polygon id="svg_10" fill="#83807F" points="25.04009485244751,188.55189764499664 29.741547107696533,188.22709906101227 29.264057636260986,195.04785406589508 25.591047763824463,198.66704046726227 "/>
    <polygon id="svg_11" fill="#C5C2BC" points="12.588593006134033,188.22709906101227 25.737967014312744,189.15509283542633 25.591047763824463,198.66704046726227 12.588593006134033,198.66704046726227 "/>
    <polygon id="svg_12" fill="url(#s)" points="12.588593006134033,188.55189764499664 25.737967014312744,189.52629339694977 25.591047763824463,198.99183905124664 12.588593006134033,198.99183905124664 "/>
    <path id="svg_13" fill="#C5C2BC" d="m25.59105,198.66704c-0.04848,-0.49462 -0.07346,-1.43839 -0.07346,-2.83038c0,-0.80364 0.04922,-1.65461 0.14692,-2.55199l0.11019,-1.25279l0.11019,3.38625c0,0.92799 -0.0977,2.01375 -0.29384,3.24798l0,0.00093z"/>
   </g>
   <g id="svg_18" fill-rule="evenodd" clip-rule="evenodd">
    <polygon id="svg_19" fill="#DAD5CD" points="86.05985307693481,181.01872503757477 6.334256649017334,182.03952276706696 6.334256649017334,15.650120377540588 86.05985307693481,15.650120377540588 "/>
    <polygon id="svg_27" fill="#DAD5CD" points="88.44801378250122,186.92827093601227 4.251559734344482,186.97467291355133 4.251559734344482,180.52511847019196 88.44801378250122,180.52511847019196 "/>
    <polygon id="svg_28" fill="#C5C2BC" points="88.44801378250122,188.7842584848404 4.251559734344482,188.83066046237946 4.251559734344482,184.51549017429352 88.44801378250122,184.51549017429352 "/>
    <rect id="svg_29" fill="#A6A29E" height="2.96958" width="84.19645" y="187.20668" x="4.25156"/>
    <rect id="svg_30" fill="#E9E3DA" height="2.41279" width="84.19645" y="180.06112" x="4.25156"/>
    <polygon id="svg_31" fill="#DAD5CD" points="90.53070116043091,7.268511414527893 86.36531114578247,18.68284285068512 6.334256649017334,18.68284285068512 2.4743266105651855,7.268511414527893 "/>
    <polygon id="svg_32" fill="#B6B1AB" points="90.53070116043091,7.268511414527893 89.08670091629028,11.25888979434967 3.8072524070739746,11.25888979434967 2.4743266105651855,7.268511414527893 "/>
    <polygon id="svg_33" fill="#989491" points="90.53070116043091,7.0829139947891235 89.08670091629028,9.588497757911682 3.8072524070739746,9.588497757911682 2.4743266105651855,7.0829139947891235 "/>
    <polygon id="svg_34" fill="#B6B1AB" points="87.97592973709106,14.228471398353577 86.36531114578247,18.68284285068512 6.334256649017334,18.68284285068512 4.806945323944092,14.228471398353577 "/>
    <polygon id="svg_35" fill="#989491" points="87.97592973709106,13.950072884559631 86.36531114578247,16.734057068824768 6.334256649017334,16.734057068824768 4.806945323944092,13.950072884559631 "/>
    <polygon id="svg_36" fill="#E9E3DA" points="88.17032670974731,13.764474511146545 87.55938768386841,15.434862732887268 5.223484516143799,15.434862732887268 4.6680989265441895,13.764474511146545 "/>
    <rect id="svg_37" fill="#DAD5CD" height="5.56797" width="88.6673" y="2.02534" x="1.8634"/>
    <rect id="svg_38" fill="#C5C2BC" height="2.41279" width="88.6673" y="5.27332" x="1.8634"/>
    <rect id="svg_39" fill="#E9E3DA" height="2.08799" width="88.6673" y="1.88614" x="1.8634"/>
   </g>
  </g>
 </g>
</svg>