<?xml version="1.0" encoding="UTF-8"?>
<!DOCTYPE svg  PUBLIC '-//W3C//DTD SVG 1.1//EN'  'http://www.w3.org/Graphics/SVG/1.1/DTD/svg11.dtd'>
<svg enable-background="new 0 0 287.55 245.5" version="1.1" viewBox="0 0 287.55 245.5" xml:space="preserve" xmlns="http://www.w3.org/2000/svg" xmlns:xlink="http://www.w3.org/1999/xlink">
<symbol id="be" viewBox="0.021 -15.9 199.954 15.9">
			<linearGradient id="aw" x1="16111" x2="16124" y1="-119.38" y2="-119.38" gradientTransform="matrix(7.722e-5 1 -1 -.001 -20.622 -16126)" gradientUnits="userSpaceOnUse">
			<stop stop-opacity=".298" offset="0"/>
			<stop stop-opacity=".1647" offset=".0745"/>
			<stop stop-opacity="0" offset=".5137"/>
			<stop stop-opacity=".9255" offset="1"/>
		</linearGradient>
		<path d="m197.4-8.45c1.2-1.633 1.983-3.367 2.35-5.2 0.2-0.934 0.267-1.684 0.2-2.25h-44.65c0.5 0.867 0.583 1.7 0.25 2.5-0.933 2.467-6.917 4.267-17.95 5.4-8 0.8-18.1 1.217-30.3 1.25l0.05-0.15h-14.7l0.05 0.15c-12.233-0.033-22.333-0.45-30.3-1.25-11.033-1.133-17.017-2.933-17.95-5.4-0.333-0.8-0.25-1.633 0.25-2.5h-44.65c-0.066 0.566-0.017 1.316 0.15 2.25 0.367 1.833 1.167 3.566 2.4 5.2 2.133 2.9 4.383 5.017 6.75 6.35 1.2 0.633 2.167 1 2.9 1.1l39.9 1 47.85-0.9 47.85 0.9 39.9-1 2.9-1.1c2.37-1.333 4.62-3.45 6.75-6.35z" clip-rule="evenodd" fill="url(#aw)" fill-rule="evenodd"/>
</symbol>
<symbol id="bf" viewBox="0 -5.4 197.8 5.4">
			<radialGradient id="ax" cx="98.9" cy="-2.7002" r="69.959" gradientTransform="matrix(1 0 0 -.7838 0 -4.8164)" gradientUnits="userSpaceOnUse">
			<stop stop-opacity="0" offset=".2118"/>
			<stop stop-opacity=".651" offset=".8118"/>
			<stop stop-opacity=".9255" offset="1"/>
		</radialGradient>
		<polygon points="197.8 -5.4 0 -5.4 0 0 197.8 0" clip-rule="evenodd" fill="url(#ax)" fill-rule="evenodd"/>
</symbol>
<symbol id="bg" viewBox="0 -19 4.15 19">
		<path d="m4.15-1.25v-16.95c0-0.233-0.2-0.417-0.6-0.55-0.4-0.167-0.883-0.25-1.45-0.25-0.5 0-1 0.233-1.5 0.7-0.4 0.4-0.6 0.75-0.6 1.05v16c0 0.233 0.267 0.5 0.8 0.8 0.567 0.3 1.117 0.45 1.65 0.45l-0.35-0.45c0.566 0 1.05-0.083 1.45-0.25 0.4-0.133 0.6-0.317 0.6-0.55z" clip-rule="evenodd" fill-rule="evenodd"/>
</symbol>
<symbol id="bh" viewBox="0 -19 4.1 19">
		<path d="m4.1-1.25v-16.95c0-0.233-0.2-0.417-0.6-0.55-0.4-0.167-0.883-0.25-1.45-0.25-0.5 0-0.983 0.233-1.45 0.7-0.4 0.4-0.6 0.75-0.6 1.05v16c0 0.233 0.25 0.5 0.75 0.8 0.567 0.3 1.117 0.45 1.65 0.45l-0.35-0.45c0.567 0 1.05-0.083 1.45-0.25 0.4-0.133 0.6-0.317 0.6-0.55z" clip-rule="evenodd" fill-rule="evenodd"/>
</symbol>
<symbol id="bi" viewBox="0 -19.05 4.15 19.05">
		<path d="m4.15-1.25v-16.95c0-0.233-0.2-0.433-0.6-0.6-0.433-0.167-0.917-0.25-1.45-0.25-0.5 0-1 0.233-1.5 0.7-0.4 0.4-0.6 0.75-0.6 1.05v16.05c0 0.233 0.267 0.5 0.8 0.8 0.567 0.3 1.117 0.45 1.65 0.45l-0.35-0.45c0.566 0 1.05-0.083 1.45-0.25 0.4-0.133 0.6-0.317 0.6-0.55z" clip-rule="evenodd" fill-rule="evenodd"/>
</symbol>
<symbol id="af" viewBox="0 -19.05 4.1 19.05">
		<path d="m4.1-1.25v-16.95c0-0.233-0.2-0.433-0.6-0.6s-0.883-0.25-1.45-0.25c-0.5 0-0.983 0.233-1.45 0.7-0.4 0.4-0.6 0.75-0.6 1.05v16.05c0 0.233 0.25 0.5 0.75 0.8 0.567 0.3 1.117 0.45 1.65 0.45l-0.35-0.45c0.567 0 1.05-0.083 1.45-0.25 0.4-0.133 0.6-0.317 0.6-0.55z" clip-rule="evenodd" fill-rule="evenodd"/>
</symbol>
<symbol id="ag" viewBox="0 -195.3 2.15 195.3">
		<polygon points="0 0 2.15 -3.8 2.15 -192.2 0 -195.3" clip-rule="evenodd" fill="#6E3F1E" fill-rule="evenodd"/>
</symbol>
<symbol id="ah" viewBox="0 -203.85 173.75 203.85">
			<radialGradient id="ay" cx="86.875" cy="-101.92" r="98.363" gradientTransform="matrix(1 0 0 -1.0362 0 -207.54)" gradientUnits="userSpaceOnUse">
			<stop stop-opacity=".3647" offset="0"/>
			<stop stop-opacity=".902" offset="1"/>
		</radialGradient>
		<polygon points="173.75 -203.85 0 -203.85 0 0 173.75 0" clip-rule="evenodd" fill="url(#ay)" fill-rule="evenodd"/>
</symbol>
<symbol id="ai" viewBox="0 -10.4 76.55 10.4">
			<radialGradient id="az" cx="38.275" cy="-5.2002" r="38.238" gradientTransform="matrix(1 0 0 -.1362 0 -5.9087)" gradientUnits="userSpaceOnUse">
			<stop stop-opacity=".9255" offset="0"/>
			<stop stop-opacity="0" offset="1"/>
		</radialGradient>
		<path d="m76.55-5.2c0-1.433-3.733-2.667-11.2-3.7-7.467-1-16.5-1.5-27.1-1.5-10.567 0-19.583 0.5-27.05 1.5-7.467 1.033-11.2 2.267-11.2 3.7 0 1.434 3.733 2.65 11.2 3.65 7.5 1.033 16.517 1.55 27.05 1.55 10.567 0 19.6-0.517 27.1-1.55 7.467-1 11.2-2.217 11.2-3.65z" clip-rule="evenodd" fill="url(#az)" fill-rule="evenodd"/>
</symbol>
<symbol id="aj" viewBox="0 -6.4 205.35 6.4">
			<radialGradient id="ba" cx="102.67" cy="-3.2002" r="72.638" gradientTransform="matrix(1 0 0 -1.0983 0 -6.7144)" gradientUnits="userSpaceOnUse">
			<stop stop-opacity="0" offset=".2118"/>
			<stop stop-opacity=".651" offset=".8118"/>
			<stop stop-opacity=".9255" offset="1"/>
		</radialGradient>
		<polygon points="205.35 -6.4 0 -6.4 0 0 205.35 0" clip-rule="evenodd" fill="url(#ba)" fill-rule="evenodd"/>
</symbol>
<symbol id="ak" viewBox="0 -200.65 50.25 200.65">
			<radialGradient id="bb" cx="158.63" cy="29.767" r="25.555" gradientTransform="matrix(.9999 .0163 .0658 -4.0221 -133.26 16.846)" gradientUnits="userSpaceOnUse">
			<stop stop-opacity=".4588" offset="0"/>
			<stop stop-opacity=".9255" offset="1"/>
		</radialGradient>
		<polygon points="0 0 50.25 0 50.25 -200.65 0 -195.3" clip-rule="evenodd" fill="url(#bb)" fill-rule="evenodd"/>
</symbol>
<symbol id="al" viewBox="0 -10.4 76.55 10.4">
			<radialGradient id="bc" cx="38.275" cy="-5.2002" r="38.287" gradientTransform="matrix(1 0 0 -.1362 0 -5.9087)" gradientUnits="userSpaceOnUse">
			<stop stop-opacity=".9255" offset="0"/>
			<stop stop-opacity="0" offset="1"/>
		</radialGradient>
		<path d="m76.55-5.2c0-1.433-3.733-2.667-11.2-3.7-7.434-1-16.45-1.5-27.05-1.5s-19.633 0.5-27.1 1.5c-7.467 1.033-11.2 2.267-11.2 3.7 0 1.434 3.733 2.65 11.2 3.65 7.5 1.033 16.533 1.55 27.1 1.55s19.583-0.517 27.05-1.55c7.467-1 11.2-2.217 11.2-3.65z" clip-rule="evenodd" fill="url(#bc)" fill-rule="evenodd"/>
</symbol>
<symbol id="am" viewBox="0 -201.55 2.15 201.55">
		<polygon points="0 0 2.15 -3.8 2.15 -197.85 0 -201.55" clip-rule="evenodd" fill="#6E3F1E" fill-rule="evenodd"/>
</symbol>
<symbol id="an" viewBox="0 -202.8 47.9 202.8">
			<radialGradient id="bd" cx="85.696" cy="-39.687" r="33.163" gradientTransform="matrix(1 .0077 .0246 -3.1873 -60.768 -228.55)" gradientUnits="userSpaceOnUse">
			<stop stop-opacity=".4588" offset="0"/>
			<stop stop-opacity=".9255" offset="1"/>
		</radialGradient>
		<polygon points="0 -1.2 47.9 0 47.9 -196.5 0 -202.8" clip-rule="evenodd" fill="url(#bd)" fill-rule="evenodd"/>
</symbol>
		<radialGradient id="bj" cx="149.92" cy="234.6" r="136.18" gradientTransform="matrix(1 0 0 -.0802 0 253.42)" gradientUnits="userSpaceOnUse">
		<stop stop-opacity=".4392" offset="0"/>
		<stop stop-opacity="0" offset="1"/>
	</radialGradient>
	<path d="m53.65 226.85c26.6-2.133 58.7-3.199 96.3-3.199s69.7 1.066 96.3 3.199c26.566 2.134 39.85 4.717 39.85 7.75 0 3-13.283 5.567-39.85 7.7-26.633 2.134-58.733 3.2-96.3 3.2s-69.667-1.066-96.3-3.2c-26.601-2.133-39.9-4.7-39.9-7.7 0-3.03 13.3-5.62 39.9-7.75z" clip-rule="evenodd" fill="url(#bj)" fill-rule="evenodd"/>
		<use transform="matrix(1 0 0 -1 36.7 230.95)" y="-10.4" width="76.55" height="10.4" enable-background="new" opacity=".7305" xlink:href="#al"/>
		<use transform="matrix(1 0 0 -1 184.05 230.95)" y="-10.4" width="76.55" height="10.4" enable-background="new" opacity=".7305" xlink:href="#ai"/>
	<path d="m109.7 226.52c4.133-1.591 9.183-2.6 15.15-3.025 9.63-0.68 4.58 0.33-15.15 3.02zm-37.6 4.93c15.79-2.017 28.323-3.658 37.6-4.925-1.997 0.77-3.78 1.678-5.35 2.725-1.534 1-2.75 2.083-3.65 3.25l-0.95 1.4-10.65 5-17-7.44z" clip-rule="evenodd" fill="#7E5E36" fill-rule="evenodd"/>
	<path d="m189.05 233.9c-0.633-1.467-2.167-3.017-4.6-4.65-1.663-1.101-3.563-2.051-5.7-2.85 1.148 0.161 2.348 0.328 3.6 0.5 10.567 1.466 22.018 2.983 34.351 4.55l-17 7.45-10.65-5zm-10.3-7.5c-18.208-2.529-23.141-3.496-14.8-2.9 5.79 0.42 10.73 1.38 14.8 2.9z" clip-rule="evenodd" fill="#7E5E36" fill-rule="evenodd"/>
	<path d="m137.05 229.9l0.05-0.15c-12.233 0.033-22.333 0.45-30.3 1.25-11.033 1.134-17.017 2.934-17.95 5.4-0.333 0.8-0.25 1.633 0.25 2.5h-44.65c-0.067-0.567-0.017-1.317 0.15-2.25 0.367-1.834 1.167-3.567 2.4-5.2 2.133-2.9 4.383-5.017 6.75-6.351 1.2-0.633 2.167-1 2.9-1.1l39.899-1 47.851 0.9 47.85-0.9 39.9 1 2.899 1.1c2.367 1.334 4.617 3.45 6.75 6.351 1.2 1.633 1.983 3.366 2.351 5.2 0.199 0.933 0.267 1.683 0.199 2.25h-44.65c0.5-0.867 0.583-1.7 0.25-2.5-0.934-2.467-6.917-4.267-17.95-5.4-8-0.8-18.1-1.217-30.3-1.25l0.05 0.15h-14.7z" clip-rule="evenodd" fill="#D7A355" fill-rule="evenodd"/>
		<use transform="matrix(1 0 0 -1 44.4 223)" x="0.021" y="-15.9" width="199.954" height="15.9" enable-background="new" opacity=".2617" xlink:href="#be"/>
<path d="m95.25 24.55c-7.733-0.6-15.467-1.45-23.2-2.55-15.433-2.133-23.066-4.383-22.899-6.75 0.2-2.367-0.884-4.517-3.25-6.45l-3.55-2.2 12.249-0.7 89.7 1.05 89.7-1.05 12.8 0.95c-1.3 0.467-2.583 1.15-3.85 2.05-2.533 1.867-3.7 3.983-3.5 6.35 0.167 2.367-7.467 4.617-22.9 6.75l-23.2 2.55-49.05-5.65-49.05 5.65z" clip-rule="evenodd" fill="#906833" fill-rule="evenodd"/>
<rect x="48.65" y="11.25" width="191" height="214.45" clip-rule="evenodd" fill="#E6AE5B" fill-rule="evenodd"/>
<rect x="41.45" width="205.35" height="6.4" clip-rule="evenodd" fill="#E6AE5B" fill-rule="evenodd"/>
<use transform="matrix(1 0 0 -1 41.45 0)" y="-6.4" width="205.35" height="6.4" enable-background="new" opacity=".0508" xlink:href="#aj"/>
<path d="m89.45 5.9c32.733-0.533 56.717-0.733 71.95-0.6 24.366 0.167 52.833 0.684 85.399 1.55-32.833-0.067-65.883-0.117-99.149-0.15-44.914-0.045-75.105-0.079-90.575-0.1l32.375-0.7z" clip-rule="evenodd" fill="#F0D48A" fill-rule="evenodd"/>
<rect x="44.9" y="219.6" width="197.8" height="5.4" clip-rule="evenodd" fill="#FDE8B4" fill-rule="evenodd"/>
<rect x="44.9" y="220.6" width="197.8" height="5.4" clip-rule="evenodd" fill="#E6AE5B" fill-rule="evenodd"/>
<use transform="matrix(1 0 0 -1 44.9 220.6)" y="-5.4" width="197.8" height="5.4" enable-background="new" opacity=".0508" xlink:href="#bf"/>
		<use transform="matrix(1 0 0 -1 51.55 27)" y="-19" width="4.15" height="19" enable-background="new" opacity=".6094" xlink:href="#bg"/>
	<linearGradient id="ao" x1="50.788" x2="54.913" y1="35.675" y2="35.675" gradientUnits="userSpaceOnUse">
		<stop stop-color="#A6A6A6" offset=".0118"/>
		<stop stop-color="#C9C9C9" offset=".2824"/>
		<stop stop-color="#666" offset="1"/>
	</linearGradient>
	<path d="m54.9 27.2v16.95c0 0.233-0.2 0.417-0.601 0.55-0.433 0.167-0.933 0.25-1.5 0.25-0.566 0-1.05-0.083-1.45-0.25-0.4-0.133-0.6-0.317-0.6-0.55v-16.95c0-0.233 0.2-0.417 0.6-0.55 0.4-0.167 0.883-0.25 1.45-0.25s1.067 0.083 1.5 0.25c0.401 0.133 0.601 0.317 0.601 0.55z" clip-rule="evenodd" fill="url(#ao)" fill-rule="evenodd"/>
		<use transform="matrix(1 0 0 -1 232.65 27)" y="-19" width="4.1" height="19" enable-background="new" opacity=".6094" xlink:href="#bh"/>
	<linearGradient id="ap" x1="231.84" x2="235.96" y1="35.675" y2="35.675" gradientUnits="userSpaceOnUse">
		<stop stop-color="#A6A6A6" offset=".0118"/>
		<stop stop-color="#C9C9C9" offset=".2824"/>
		<stop stop-color="#666" offset="1"/>
	</linearGradient>
	<path d="m235.95 27.2v16.95c0 0.233-0.2 0.417-0.601 0.55-0.399 0.167-0.883 0.25-1.449 0.25s-1.051-0.083-1.45-0.25c-0.4-0.133-0.601-0.317-0.601-0.55v-16.95c0-0.233 0.2-0.417 0.601-0.55 0.399-0.167 0.884-0.25 1.45-0.25s1.05 0.083 1.449 0.25c0.4 0.133 0.6 0.317 0.6 0.55z" clip-rule="evenodd" fill="url(#ap)" fill-rule="evenodd"/>
		<use transform="matrix(1 0 0 -1 51.55 181.1)" y="-19.05" width="4.15" height="19.05" enable-background="new" opacity=".6094" xlink:href="#bi"/>
	<linearGradient id="aq" x1="50.788" x2="54.913" y1="189.78" y2="189.78" gradientUnits="userSpaceOnUse">
		<stop stop-color="#A6A6A6" offset=".0118"/>
		<stop stop-color="#C9C9C9" offset=".2824"/>
		<stop stop-color="#666" offset="1"/>
	</linearGradient>
	<path d="m54.9 198.25c0 0.233-0.2 0.417-0.601 0.55-0.433 0.167-0.933 0.25-1.5 0.25-0.566 0-1.05-0.083-1.45-0.25-0.4-0.133-0.6-0.316-0.6-0.55v-16.95c0-0.233 0.2-0.416 0.6-0.55 0.4-0.167 0.883-0.25 1.45-0.25s1.067 0.083 1.5 0.25c0.4 0.134 0.601 0.316 0.601 0.55v16.95z" clip-rule="evenodd" fill="url(#aq)" fill-rule="evenodd"/>
		<use transform="matrix(1 0 0 -1 232.65 181.1)" y="-19.05" width="4.1" height="19.05" enable-background="new" opacity=".6094" xlink:href="#af"/>
	<linearGradient id="ar" x1="231.84" x2="235.96" y1="189.78" y2="189.78" gradientUnits="userSpaceOnUse">
		<stop stop-color="#A6A6A6" offset=".0118"/>
		<stop stop-color="#C9C9C9" offset=".2824"/>
		<stop stop-color="#666" offset="1"/>
	</linearGradient>
	<path d="m235.95 198.25c0 0.233-0.2 0.417-0.601 0.55-0.399 0.167-0.883 0.25-1.449 0.25s-1.051-0.083-1.45-0.25c-0.4-0.133-0.601-0.316-0.601-0.55v-16.95c0-0.233 0.2-0.416 0.601-0.55 0.399-0.167 0.884-0.25 1.45-0.25s1.05 0.083 1.449 0.25c0.4 0.134 0.601 0.316 0.601 0.55v16.95z" clip-rule="evenodd" fill="url(#ar)" fill-rule="evenodd"/>
	<rect x="57" y="13.861" width="173.75" height="200" clip-rule="evenodd" fill="#AE8246" fill-rule="evenodd"/>
		<use transform="matrix(1 0 0 -.9811 57 13.9)" y="-203.85" width="173.75" height="203.85" enable-background="new" opacity=".6211" xlink:href="#ah"/>
		<radialGradient id="as" cx="-501.8" cy="2180.4" r="97.251" gradientTransform="matrix(.0036 -.9811 -.1138 -.00040433 307.5 -379.07)" gradientUnits="userSpaceOnUse">
		<stop stop-color="#624A2B" offset="0"/>
		<stop stop-color="#3C2D1B" offset="1"/>
	</radialGradient>
	<polygon points="59.399 13.861 68.55 13.861 68.55 204.05 59.399 211.6 58.6 19.944" clip-rule="evenodd" fill="url(#as)" fill-rule="evenodd"/>
		<radialGradient id="at" cx="2349.4" cy="510.5" r="97.251" gradientTransform="matrix(-.0036 -.9811 .1138 -.00040433 178.89 2418.3)" gradientUnits="userSpaceOnUse">
		<stop stop-color="#624A2B" offset="0"/>
		<stop stop-color="#3C2D1B" offset="1"/>
	</radialGradient>
	<polygon points="218.7 13.861 227.85 13.861 228.65 19.944 227.85 211.6 218.7 204.05" clip-rule="evenodd" fill="url(#at)" fill-rule="evenodd"/>
	<polygon points="57 13.861 59.399 13.861 59.399 211.6 226.75 211.6 226.75 13.861 230.75 13.861 230.75 213.86 57 213.86" clip-rule="evenodd" fill="#C08F4D" fill-rule="evenodd"/>
	<polygon points="239.15 16.55 287.55 16.8 246.6 26.15 232.55 17.35" clip-rule="evenodd" fill="#6F401F" fill-rule="evenodd"/>
		<linearGradient id="au" x1="17.274" x2="29.3" y1="-25.586" y2="-25.586" gradientTransform="matrix(.0915 .9958 -.9958 .0915 -.00048636 .00020927)" gradientUnits="userSpaceOnUse">
		<stop stop-color="#C77A44" offset="0"/>
		<stop stop-color="#6D3F1F" offset="1"/>
	</linearGradient>
	<path d="m53.05 16.7l-32.8 11.1-17.85-1.45-1-9.7 23.1-0.9c7.2-0.3 14.917-0.3 23.15 0l5.4 0.95z" clip-rule="evenodd" fill="url(#au)" fill-rule="evenodd"/>
		<linearGradient id="av" x1="25.593" x2="215.59" y1="7.7827" y2="7.7827" gradientTransform="matrix(.0917 .9958 -.9958 .0917 -.00028469 .00026086)" gradientUnits="userSpaceOnUse">
		<stop stop-color="#B16532" offset="0"/>
		<stop stop-color="#6D3F1F" offset="1"/>
	</linearGradient>
	<polygon points="1.4 16.65 6.15 18.05 5.15 219.5 0 218.45" clip-rule="evenodd" fill="url(#av)" fill-rule="evenodd"/>
	<polygon points="5.15 17.9 53.05 16.7 53.05 213.2 5.15 219.5" clip-rule="evenodd" fill="#A65F27" fill-rule="evenodd"/>
	<g clip-rule="evenodd" fill="#8D5021" fill-rule="evenodd">
		<path d="m43.25 26.05c-0.467 15.8-0.667 25.85-0.6 30.15 0.033 1 0.267 8.816 0.7 23.45 0.4 12.833 0.6 21.167 0.6 25 0 3.967 0.116 9.617 0.35 16.95 0.167 4.333 0.434 11.966 0.8 22.9 0.267 7.6 0.333 13.566 0.2 17.9-0.066 2.466-0.233 5.366-0.5 8.699-0.066 1.367-0.333 5.017-0.8 10.95-0.4 5.101-0.6 8.634-0.6 10.601 0 4.333-0.15 11.633-0.45 21.899l-0.55 0.05c0.1-3 0.133-6.733 0.1-11.199-0.033-9.2 0.017-15.167 0.15-17.9 0.433-5.033 0.916-10.967 1.45-17.8 0.633-7.867 0.783-13.65 0.45-17.351-0.667-7.899-1.05-14-1.149-18.3-0.034-0.8-0.2-6.267-0.5-16.4-0.067-1.533-0.101-5.167-0.101-10.9 0-4.433 0.05-7.667 0.15-9.7 0.066-0.833 0.017-3.083-0.15-6.75-0.466-12.4-0.7-18.783-0.7-19.15-0.3-9.2-0.45-18.65-0.45-28.35 0-8.233 0.116-13.517 0.35-15.85 0.467-2.5 0.917-5.167 1.35-8l0.95-0.05c-0.667 4.767-1.017 7.817-1.05 9.15z"/>
		<path d="m49.1 25.85c-0.267 25.433-0.4 44.833-0.4 58.2v80.7c0 11.3-0.283 20.767-0.85 28.4-0.2 2.399-0.3 9.333-0.3 20.8l-1.45 0.15c0.067-5.833 0.383-13.149 0.95-21.949 0.534-8.267 0.8-15.034 0.8-20.301 0-9.1-0.05-19.466-0.15-31.1-0.033-5.8-0.033-12.167 0-19.1 0.1-9.733 0.15-20.383 0.15-31.95 0-14.4-0.05-25.633-0.15-33.7l-0.15-7.75c-0.066-1.7-0.1-4.283-0.1-7.75 0.066-6.967 0.383-14.867 0.95-23.7h0.9l-0.2 9.05z"/>
		<path d="m7.4 17.85c-0.334 9.933-0.5 24.584-0.5 43.95 0 1.333 0.216 5.733 0.649 13.2 0.367 6.067 0.4 11.117 0.101 15.15-0.167 2.534-0.567 7.733-1.2 15.6-0.567 7.767-1 14.267-1.3 19.5v-11.55l1-12.35c0.767-10.1 1-18.233 0.7-24.4-0.567-6.633-0.9-12.867-1-18.7-0.2-12.6 0.05-26.05 0.75-40.35l0.8-0.05z"/>
		<path d="m5.55 189.65c0.2 4.966 0.3 14.883 0.3 29.75l-0.7 0.1v-43.6l0.4 13.75z"/>
		<path d="m36.75 32.55c0 22.267 0.05 36.684 0.15 43.25 0.166 10.167 0.267 16.134 0.3 17.9 0.167 7.3 0.4 11.917 0.7 13.85 0.333 2.1 0.649 6.884 0.95 14.35 0.233 6.4 0.4 12.933 0.5 19.6 0.1 7.733-0.433 17.517-1.6 29.35l0.3 37c0 2.334-0.083 4.784-0.25 7.351l-1.35 0.2c0.267-4.367 0.417-7.15 0.45-8.351 0.033-0.866 0.083-4.483 0.149-10.85 0.034-4.467 0.017-9.967-0.05-16.5-0.066-5.3-0.05-9.75 0.05-13.351 0.101-3.666 0.267-7.133 0.5-10.399 0.3-4.9 0.567-9.684 0.8-14.351 0.267-6.133 0.2-12.449-0.2-18.95-0.934-15.633-1.45-24.383-1.55-26.25-0.467-10.633-0.733-19.883-0.8-27.75 0.068-7.833 0.101-13.75 0.101-17.75v-25.7c0-2.233 0.066-3.917 0.2-5.05 0.1-0.767 0.3-1.783 0.6-3.05l1.15-0.05-0.25 1.4c-0.367 2.733-0.583 4.566-0.65 5.5-0.134 1.933-0.2 4.8-0.2 8.6z"/>
		<path d="m46.7 42.75c0.167 4.967 0.25 9.033 0.25 12.2 0 2.233-0.083 8.45-0.25 18.65-0.2 10.233-0.3 18.55-0.3 24.95 0 11.434 0.05 27.05 0.149 46.851 0 3.966 0.167 7.899 0.5 11.8 0.267 3.566 0.384 6.366 0.351 8.399-0.067 2.534-0.4 7.551-1 15.051-0.7 8.267-1.084 13.017-1.15 14.25-0.2 4.199-0.383 10.666-0.55 19.399l-1.25 0.15c1.066-13.2 1.9-24.417 2.5-33.65 0.5-7.533 0.667-12.434 0.5-14.7-0.333-4.066-0.5-7.1-0.5-9.1 0-3.6-0.083-14.15-0.25-31.65-0.2-17.466-0.3-29.066-0.3-34.8v-18.75c0-2.466 0.066-5.017 0.2-7.65s0.2-6.15 0.2-10.55c0-3.967-0.133-7.517-0.399-10.65-0.267-2.833-0.367-6.284-0.3-10.35 0.067-6.067 0.35-11.317 0.85-15.75h1.3c-0.566 8.566-0.85 13.933-0.85 16.1-1e-3 1.6 0.099 4.867 0.299 9.8z"/>
		<path d="m23.2 43.65c0 3.4-0.233 10.333-0.7 20.8-0.566 12.033-0.883 19.6-0.95 22.7-0.1 4.567-0.133 10.167-0.1 16.8 0.066 11.8 0.1 19.083 0.1 21.85 0 12.634-0.233 21.75-0.7 27.351-0.133 1.666-0.3 7.05-0.5 16.149-0.167 8.267-0.3 16.033-0.4 23.3l-0.25 25-1.4 0.15 0.2-9.2c0.167-12.533 0.316-22.35 0.45-29.45 0.233-12.933 0.616-22.149 1.15-27.649 0.567-5.4 0.85-13.95 0.85-25.65-0.1-13.667-0.134-23.7-0.1-30.1 0.1-14.1 0.167-21.467 0.2-22.1 0.101-6.333 0.367-13.7 0.8-22.1 0.4-7.467 0.55-13.433 0.45-17.9-0.233-5.633-0.433-11-0.6-16.1l0.9-0.05c0.4 16.234 0.6 24.967 0.6 26.2z"/>
		<path d="m25.4 35.4c0.267 4.7 0.35 8.383 0.25 11.05-0.034 1.8-0.167 5.316-0.4 10.55-0.2 7.1-0.3 23.917-0.3 50.45 0 3.966 0.1 10.6 0.3 19.899 0.2 9.301 0.3 15.75 0.3 19.351 0 4.033-0.366 9.767-1.1 17.2-0.733 7.433-1.1 12.033-1.1 13.8 0 4.233 0.05 8.233 0.15 12 0 2.6-0.2 9.883-0.6 21.85-0.034 2-0.134 3.884-0.3 5.65l-1.35 0.2 0.75-8.95c0.6-6.033 0.783-10.2 0.55-12.5-0.366-4-0.55-6.617-0.55-7.851 0-4.966 0.167-11.05 0.5-18.25 0.4-7.833 0.867-14.216 1.4-19.149 0.5-4.334 0.683-11.351 0.55-21.05-0.3-12.833-0.517-23.267-0.65-31.3-0.2-10.067-0.183-20.217 0.05-30.45 0.333-10.3 0.55-17.466 0.65-21.5 0.1-3.833 0.083-8.517-0.05-14.05-0.033-1.667-0.2-6.633-0.5-14.9l0.7-0.05c0.233 7 0.483 13 0.75 18z"/>
		<path d="m38.65 34.95c-0.2 4.233-0.167 17.7 0.1 40.4 0 10.167 0.533 22.133 1.6 35.9 0.433 5.433 0.733 15.267 0.9 29.5 0.1 7.866 0.184 18.7 0.25 32.5 0.033 6.233-0.066 13.55-0.3 21.95-0.233 8.066-0.533 14.633-0.9 19.7l-0.9 0.1c0.233-3.967 0.416-11.75 0.55-23.35l0.1-25.65c0.101-6.533 0.15-15.533 0.15-27 0-6.5-0.25-13.8-0.75-21.9-0.634-9.733-1-16.317-1.1-19.75-0.133-4.333-0.217-9.917-0.25-16.75-0.034-5.967-0.15-11.45-0.35-16.45-0.2-5.3-0.25-9.333-0.15-12.1 0.2-4.267 0.3-7.85 0.3-10.75 0-4.633 0.149-8.466 0.45-11.5 0.333-3.433 0.517-6.05 0.55-7.85 0.033-1.667 0.183-3.3 0.45-4.9l1.35-0.05-0.2 1.75c-0.066 0.767-0.383 3.15-0.95 7.15-0.5 3.6-0.8 6.617-0.9 9.05z"/>
		<path d="m11.5 25.6c0 5.7 0.1 17.083 0.3 34.15 0 4.3-0.1 10.45-0.3 18.45s-0.3 12.633-0.3 13.9c0 1.6 0.15 4.9 0.45 9.9 0.333 5.367 0.533 9.75 0.6 13.15 0.133 7.4-0.6 16.133-2.2 26.2-0.5 3.034-0.75 19.233-0.75 48.601l-0.1 29-0.9 0.1 0.1-30.45c0-4.699 0.05-10.267 0.149-16.699 0.101-6.434 0.15-11.817 0.15-16.15 0-5.333 0.383-12.116 1.15-20.35 0.867-8.101 1.367-13.284 1.5-15.55 0.167-2.6 0.15-5.934-0.05-10-0.3-5.633-0.466-9.417-0.5-11.35-0.1-5.4 0.034-16.283 0.4-32.65 0.1-4.8 0.05-11.567-0.15-20.3-0.2-9.366-0.283-16.133-0.25-20.3l0.05-7.5h0.65v7.85z"/>
		<path d="m14.05 31.9c-0.2 14.733-0.3 34.034-0.3 57.9 0 1 0.017 8.35 0.05 22.05 0.034 8.033 0.017 13.25-0.05 15.65-0.033 1.467-0.2 4.684-0.5 9.65-0.267 4.333-0.4 7.899-0.4 10.699 0 3.367-0.167 7.5-0.5 12.4-0.267 4.033-0.55 7.2-0.85 9.5-0.167 1.4-0.283 6.05-0.35 13.95-0.134 10.3-0.217 16-0.25 17.1v17.95l-0.5 0.05 0.1-8.149c0.066-4.867 0.066-11.284 0-19.25-0.033-7.567-0.033-13.084 0-16.551 0.033-3.333 0.267-6.133 0.7-8.399 0.4-2.101 0.6-5.417 0.6-9.95 0-5.267 0.101-10.45 0.3-15.55 0.267-6.167 0.466-11.45 0.6-15.851 0.167-5.266 0.217-10.883 0.15-16.85-0.1-10.066-0.15-15.25-0.15-15.55 0.2-21.533 0.3-35.016 0.3-40.45 0-2.2 0.184-13.717 0.55-34.55h0.75l-0.25 14.2z"/>
		<path d="m16.1 48.2c-0.067 2.966-0.1 9.15-0.1 18.55 0.033 10.133 0.117 18.35 0.25 24.65 0.133 5.967 0.167 15.633 0.1 29-0.067 11.333-0.15 19.317-0.25 23.95-0.034 2.101-0.4 6.9-1.1 14.4-0.733 7.667-1.15 13.267-1.25 16.8-0.133 4.566-0.35 18.867-0.65 42.9l-0.95 0.1 0.25-24.35c0.166-13.667 0.45-22.617 0.85-26.851 0.6-4.866 1.167-11.183 1.7-18.949 0.633-9.334 0.9-17.434 0.8-24.301-0.267-10.133-0.434-20.766-0.5-31.899-0.066-13.534-0.083-22.967-0.05-28.3 0.033-3.8 0.05-7.367 0.05-10.7 0-2.9 0.184-7.534 0.55-13.9 0.4-7.133 0.65-14.35 0.75-21.65l0.75-0.05c-0.234 7.899-0.633 18.099-1.2 30.599z"/>
		<path d="m9.55 45.4c-0.033 11.934 0.034 20.317 0.2 25.15 0.2 5.967 0.133 12.95-0.2 20.95-0.3 6.6-0.683 11.967-1.149 16.1-0.334 2.9-0.584 7.733-0.75 14.5-0.034 0.767-0.134 5.833-0.3 15.2-0.133 7.033-0.383 13.851-0.75 20.45-0.2 3.6 0 14.65 0.6 33.15 0.167 5.433 0.25 14.866 0.25 28.3l-0.75 0.1-0.1-23.35c-0.067-5.834-0.183-12.2-0.35-19.101-0.168-6-0.251-10.68-0.251-14.05 0-3.434 0.15-7.233 0.45-11.399 0.267-3.867 0.366-7.233 0.3-10.101-0.2-11.166-0.15-20.45 0.15-27.85 0.066-2.034 0.35-4.817 0.85-8.35 0.5-3.633 0.867-8.033 1.1-13.2 0.233-5.5 0.216-13.133-0.05-22.9-0.366-11.933-0.55-18.4-0.55-19.4 0-10.5 0.167-21.083 0.5-31.75l0.95-0.05c0 4.967-0.05 14.167-0.15 27.6z"/>
		<path d="m28.15 39.2c0.066 4.733 0.083 11 0.05 18.8 0 4.2-0.017 9.583-0.05 16.15 0 5.434 0.149 12.1 0.45 20 0.033 1.934 0.216 6.417 0.55 13.45 0.333 7.033 0.55 13.45 0.649 19.25 0.267 16.534 0.4 26.284 0.4 29.25 0 3.067-0.75 9.317-2.25 18.75-1.567 9.634-2.367 15.45-2.4 17.45-0.033 2.267-0.133 5.517-0.3 9.75-0.066 3.934 0.083 8.033 0.45 12.3l0.2 2.4-1.2 0.2c-0.467-3.533-0.733-7.033-0.8-10.5-0.034-4.566 0.466-11.283 1.5-20.15 1.399-11.1 2.466-19.816 3.2-26.149 0.833-7.101 1.083-13.15 0.75-18.15-0.7-11.134-1.1-20.833-1.2-29.1-0.166-13.2-0.349-20.917-0.549-23.15-0.267-3.066-0.417-5.233-0.45-6.5-0.134-4.733-0.15-8.467-0.05-11.2 0.133-3.5 0.25-6.9 0.35-10.2 0.133-4.033 0.167-7.617 0.1-10.75-0.167-4.733-0.3-9.633-0.399-14.7-0.067-4.367-0.217-8.316-0.45-11.85-0.333-4.667-0.5-7.05-0.5-7.15l1.15-0.05c0.1 2.133 0.25 5.617 0.45 10.45 0.199 4.467 0.316 8.267 0.349 11.4z"/>
		<path d="m20.3 48.25c-0.233 3.833-0.55 8.733-0.95 14.7-0.433 10.3-0.534 22.8-0.3 37.5 0.134 6.233 0.05 16.133-0.25 29.7l-0.45 22.55c0 2.233-0.217 5.633-0.65 10.2-0.5 5.333-0.783 8.85-0.85 10.55-0.5 12.033-0.983 26.934-1.45 44.7l-0.65 0.1c0.2-10.366 0.367-17.783 0.5-22.25 0.367-13.533 0.65-21.816 0.85-24.85 0.267-2.134 0.517-5.167 0.75-9.101 0.433-6.767 0.733-12.366 0.9-16.8 0.2-6.033 0.3-13.134 0.3-21.3-0.1-19.4-0.149-33.483-0.149-42.25 0-5.2 0.149-10.317 0.45-15.35 0.667-12.067 1.05-19.233 1.15-21.5 0.4-8.2 0.483-13.283 0.25-15.25-0.6-4.967-0.967-8.983-1.1-12.05h1.25c0.399 6.567 0.666 11.284 0.8 14.15 0.199 3.867 0.066 9.383-0.401 16.55z"/>
		<path d="m30.8 29.25c0 1.8 0.317 9.733 0.95 23.8 0.633 14.1 0.95 23.717 0.95 28.85v13.35c0 4.467 0.1 9.983 0.3 16.55 0.1 4 0.133 14.601 0.1 31.8-0.034 9.101-0.067 20.584-0.1 34.45 0 5.667-0.483 9.717-1.45 12.15-0.3 0.8-0.983 1.7-2.05 2.7-0.367 0.333-0.55 2.116-0.55 5.35 0 1.733 0.033 4.017 0.1 6.85 0 1.233 0.134 3.067 0.4 5.5 0.267 2.2 0.533 4.067 0.8 5.601l-2.5 0.35-0.15-1.35c-0.367-3.566-0.483-6.733-0.35-9.5 0.233-4.867 0.35-7.884 0.35-9.05 0-3.5 0.183-5.467 0.55-5.9 0.2-0.233 0.6-0.45 1.2-0.65 0.3-0.5 0.683-0.883 1.15-1.149 0.4-0.7 0.783-2.767 1.15-6.2 0.366-3.467 0.55-7.3 0.55-11.5-0.1-6.8-0.184-13.434-0.25-19.9-0.067-7.433-0.167-15.233-0.3-23.399-0.2-11.233-0.334-18.684-0.4-22.35-0.1-6.5-0.133-9.767-0.1-9.8 0.166-0.033 0.283-1.716 0.35-5.05 0.133-4.5 0.083-8.816-0.15-12.95-0.633-11.633-1.067-20.167-1.3-25.6-0.633-15.8-0.75-27.434-0.35-34.9l1.1-0.05v12z"/>
		<path d="m34.4 44.95c0.2 15.933 0.45 28.667 0.75 38.2 0.333 10.2 0.533 17.483 0.6 21.85 0.033 0.467 0.133 9.333 0.3 26.6 0.101 12.534 0.034 21.917-0.2 28.15-0.1 2.134-0.383 6.167-0.85 12.1-0.367 4.967-0.65 10.034-0.85 15.2-0.733 9.667-1.117 15.517-1.15 17.55-0.1 2.667-0.117 6.417-0.05 11.25l-1.15 0.15c-0.033-4.3-0.083-7.033-0.149-8.2-0.101-1.066-0.15-1.95-0.15-2.649 0-1.2 0.3-3.667 0.9-7.4 0.566-3.7 0.85-6.767 0.85-9.2 0-2.3 0.25-6.85 0.75-13.649 0.566-8.334 0.95-14.75 1.15-19.25 0.233-5.801 0.3-11.834 0.2-18.101-0.167-7.066-0.284-12.649-0.35-16.75 0-1.066-0.316-12-0.95-32.8-0.566-19.267-0.883-35.6-0.95-49-0.034-11.933 0.067-19.2 0.3-21.8l1.05-0.05c-0.2 1.967-0.3 3.5-0.3 4.6-1e-3 3.533 0.082 11.267 0.249 23.2z"/>
	</g>
		<use transform="matrix(1 0 0 -1 5.1499 16.7)" y="-202.8" width="47.9" height="202.8" enable-background="new" opacity=".3594" xlink:href="#an"/>
		<use transform="matrix(1 0 0 -1 5.2998 17.9)" y="-201.55" width="2.15" height="201.55" enable-background="new" opacity=".4609" xlink:href="#am"/>
	<polygon points="232.2 17.35 282.45 17.35 282.45 218 232.2 212.65" clip-rule="evenodd" fill="#A65F27" fill-rule="evenodd"/>
	<g clip-rule="evenodd" fill="#8D5021" fill-rule="evenodd">
		<path d="m248.65 46.8c-0.167 2.167-0.384 5.284-0.65 9.35-0.267 7.467-0.434 12.167-0.5 14.1-0.133 6.833-0.05 12.567 0.25 17.2 0.3 4.5 0.383 10.367 0.25 17.6-0.066 3.934-0.184 9.017-0.35 15.25-0.033 1.967-0.268 7.601-0.7 16.9-0.366 8.2-0.517 13.483-0.45 15.85 0.133 4.2 0.6 11.566 1.4 22.101 0.232 3.866 0.133 10.116-0.301 18.75-0.232 4.6-0.533 10.233-0.899 16.899l-0.101 3.351-1.1-0.101 1.25-26.1c0.367-8 0.4-13 0.1-15-0.633-4.667-1.05-8.75-1.25-12.25-0.399-7.467-0.533-12.8-0.399-16 0-0.167 0.233-2.967 0.7-8.4 0.767-9.7 1.217-19.466 1.35-29.3 0.066-5.633 0-12.967-0.2-22-0.267-11.7-0.399-18.167-0.399-19.4-0.033-3.867 0.199-8.333 0.699-13.4 0.467-5.067 0.7-8.75 0.7-11.05-0.033-3.6-0.316-11.533-0.85-23.8h0.8c0.6 7.533 0.917 13.367 0.95 17.5 0.03 4.067-0.07 8.05-0.3 11.95z"/>
		<path d="m242.95 45.35c0.033 4.233-0.233 13.017-0.8 26.35-0.533 13.167-0.783 21.867-0.75 26.1 0 1.833 0.066 6.434 0.199 13.8 0.033 4.033 0.033 8.017 0 11.95 0 1.733-0.116 8.816-0.35 21.25-0.2 11.533-0.333 21.5-0.4 29.9-0.1 12.7-0.116 25.649-0.05 38.85l-0.899-0.1v-19c0-1.367 0.199-18.75 0.6-52.15 0.167-18.633 0.233-30.683 0.2-36.15-0.033-4.167 0.183-14.367 0.649-30.6 0.467-16.267 0.667-28.65 0.601-37.15l-0.25-21.05h0.649c0.1 5.467 0.3 14.8 0.6 28z"/>
		<path d="m245.3 47.1c-0.033 1.967-0.167 5.883-0.399 11.75-0.2 5.433-0.316 10.233-0.351 14.4 0 1.6-0.083 7.483-0.25 17.65-0.133 7.367-0.183 13.167-0.149 17.4 0.033 7.2 0.083 21.617 0.149 43.25 0.034 7.667-0.35 20.767-1.149 39.3-0.101 5.2-0.084 12.851 0.05 22.95l-0.9-0.1-0.05-18.05c0-2.767 0.167-7.301 0.5-13.601 0.367-6.866 0.584-13.916 0.65-21.149 0.1-8.567 0.1-16.417 0-23.551-0.101-8.666-0.2-15.917-0.301-21.75-0.333-19.033 0.018-36.05 1.051-51.05 0.399-5.966 0.533-13.65 0.399-23.05-0.233-10.767-0.366-18.816-0.399-24.15h0.649c0.034 2.333 0.15 7.85 0.351 16.55 0.13 6.3 0.18 10.7 0.15 13.2z"/>
		<path d="m240.7 38.45c0.1 5.4-0.116 12.45-0.65 21.15-0.366 6.3-0.733 11.183-1.1 14.65-0.2 1.7-0.434 8.083-0.7 19.15-0.233 9.4-0.383 17.1-0.45 23.1-0.066 6 0.05 23.25 0.351 51.75 0.066 5.566 0.25 18.384 0.55 38.45 0.066 2.233 0.066 4.45 0 6.649l-0.55-0.1v-0.7c0.066-4.7-0.033-12.149-0.301-22.35-0.3-10.9-0.449-18.351-0.449-22.351 0.033-4.199 0-11.8-0.101-22.8-0.066-11.2-0.1-19.684-0.1-25.45 0.066-19.5 0.384-34.5 0.95-45 0.033-0.667 0.416-5.567 1.149-14.7 0.467-6 0.684-11.417 0.65-16.25-0.134-17.066-0.2-25.833-0.2-26.3h0.7c0.07 9.8 0.15 16.834 0.25 21.1z"/>
		<path d="m256.8 25.95c0.134 23.267 0.017 37.3-0.35 42.1-0.067 0.9-0.55 6.117-1.45 15.65-0.767 8.133-1.166 13.5-1.2 16.1-0.033 3.333-0.283 4.684-0.75 4.05-0.433-0.6-0.716-2.667-0.85-6.2-0.101-3.3-0.083-11.65 0.05-25.05 0.033-3.4 0.25-6.967 0.65-10.7 0.366-3.4 0.517-6.716 0.449-9.95-0.366-14.467-0.583-22.983-0.649-25.55l-0.25-9.05h1.25c0.533 13.6 0.833 25.483 0.899 35.65 0.033 2.467-0.199 5.633-0.699 9.5-0.5 4.167-0.783 8.117-0.851 11.85-0.167 7.233-0.083 13.15 0.25 17.75l0.3-2.1c0.2-1.333 0.5-4.35 0.9-9.05 0.467-5.267 0.75-9.333 0.85-12.2 0.167-3.167 0.301-9.183 0.4-18.05 0.133-8.9 0.167-15.617 0.1-20.15l-0.05-13.2h0.95l0.05 8.6z"/>
		<path d="m281 45.45c0 11.133-0.333 25.417-1 42.85-0.166 7.567-0.083 18.583 0.25 33.05 0 2.266-0.166 9.833-0.5 22.7-0.367 13.533-0.566 22.884-0.6 28.05l-0.15 45.5-1.05-0.1-0.4-22.8c-0.133-1.967-0.183-4.917-0.149-8.851 0.033-7.933 0.416-16.899 1.149-26.899 0.733-9.9 1.017-20.283 0.851-31.15-0.334-12.133-0.533-21.633-0.601-28.5-0.033-6.633 0.25-14.767 0.851-24.4 0.566-8.933 0.767-16.617 0.6-23.05-0.2-8.267-0.233-19.767-0.1-34.5h1.449c-0.4 15.733-0.6 25.1-0.6 28.1z"/>
		<path d="m235.8 17.35h0.601l0.5 9.3c0.232 4.4 0.333 8.267 0.3 11.6 0 3.067-0.15 6.85-0.45 11.35-0.367 5.767-1.55 22.117-3.55 49.05-0.167 2.7-0.134 6.6 0.1 11.7 0.333 8.2 0.517 13.2 0.55 15 0.101 3.834 0.301 8.217 0.601 13.15 0.167 4.2 0.083 8.733-0.25 13.6-0.601 8.367-0.8 27-0.601 55.9 0.067 2.167 0.15 3.767 0.25 4.8l-0.949-0.1c-0.2-2.733-0.334-5.483-0.4-8.25-0.4-16.733 0-36.167 1.2-58.3 0.399-7.733 0.483-12.5 0.25-14.301-0.567-4.399-0.934-8.767-1.101-13.1-0.633-15.467-0.016-32.5 1.851-51.1 0.733-7.433 1.217-13.7 1.45-18.8 0.232-5.333 0.283-11.684 0.149-19.05-0.07-3.5-0.23-7.65-0.5-12.45z"/>
		<path d="m251.75 41.15c0.167 6.467 0.233 11.117 0.2 13.95-0.033 2.7-0.3 5.217-0.8 7.55-0.533 2.467-0.816 4.383-0.851 5.75-0.033 1.167 0.05 14.067 0.25 38.7 0.034 4.333-0.149 10.55-0.55 18.65-0.434 8.066-0.633 14.184-0.6 18.35 0.033 4.434 0.25 12.051 0.649 22.851 0.4 10.666 0.601 17.416 0.601 20.25 0.066 5.767-0.2 14.866-0.801 27.3l-1.199-0.1c0.199-8.867 0.416-15.4 0.649-19.601 0.4-7.666 0.5-13.916 0.3-18.75-0.399-6.267-0.699-12.616-0.899-19.05-0.233-7.233-0.134-16.267 0.3-27.1 0.5-13.134 0.75-21.917 0.75-26.351 0-7.066-0.117-14.517-0.35-22.35-0.233-8.467-0.351-13.317-0.351-14.55 0-1.733 0.3-3.883 0.9-6.45 0.634-2.633 0.967-7.483 1-14.55 0-6.267-0.116-11.75-0.351-16.45-0.066-0.967-0.35-4.917-0.85-11.85h1.4l0.1 5.9c0.03 2.3 0.2 8.267 0.5 17.9z"/>
		<path d="m238.8 17.35c0.167 8.033 0.2 19.117 0.101 33.25 0.033 3.433-0.316 8.967-1.051 16.6-0.833 8.3-1.283 13.716-1.35 16.25-0.2 6.767-0.3 10.867-0.3 12.3-0.033 4.4 0.066 9.1 0.3 14.1 0.2 4.433 0.217 11.883 0.05 22.35-0.233 13.066-0.35 20.767-0.35 23.1 0 0.566 0.017 9.816 0.05 27.75 0 14.3 0.084 24.316 0.25 30.05l-0.95-0.1c-0.399-10.233-0.6-17.467-0.6-21.7-0.067-5.267-0.05-11.916 0.05-19.95 0.1-9.267 0.283-16.366 0.55-21.3 0.267-5.366 0.367-12.483 0.3-21.35-0.033-8.9-0.232-15.767-0.6-20.6-0.3-4.333-0.434-8.117-0.4-11.35 0-1.4 0.084-4.566 0.25-9.5 0.367-9 1.101-17.15 2.2-24.45 0.567-3.866 0.884-10.183 0.95-18.95 0-2.033-0.05-8.7-0.15-20 0-1.267-0.066-3.434-0.199-6.5h0.9z"/>
		<path d="m278.3 32.3c0.233 13.934 0.384 26.833 0.45 38.7 0.033 3.667-0.2 9.2-0.7 16.6-0.466 7.433-0.7 11.917-0.7 13.45 0.033 1.9 0.15 8.583 0.351 20.05 0.167 11.567 0.2 19.667 0.1 24.3-0.066 4.066-0.366 10.383-0.899 18.949-0.533 8.101-0.801 12.983-0.801 14.65 0 1.7 0.134 5.9 0.4 12.6 0.267 6.767 0.417 11.75 0.45 14.95l-0.1 10.85-1.449-0.15c0.199-4.7 0.283-8.783 0.25-12.25-0.033-3.967-0.217-8.417-0.551-13.35-0.3-4.567-0.449-8.934-0.449-13.101 0.033-5.333 0.184-9.434 0.449-12.3 0.033-0.167 0.484-3.833 1.351-11 0.5-4.134 0.7-8.816 0.6-14.05-0.267-8.7-0.466-17.483-0.6-26.35-0.101-8.867 0.066-17.367 0.5-25.5 0.5-8.434 0.7-17.383 0.6-26.85-0.066-7.7-0.3-22.75-0.7-45.15h1.25l0.2 14.95z"/>
		<path d="m259.25 39.25c0.066 5.567-0.117 13.533-0.55 23.9-0.4 10.5-0.583 18.184-0.55 23.05 0.033 6.066-0.551 11.683-1.75 16.85-0.601 2.667-1.283 5.567-2.051 8.7-0.333 5.533-0.55 10.667-0.649 15.4-0.033 1.199-0.351 4.333-0.95 9.399-0.6 4.867-0.916 8.584-0.95 11.15-0.1 7.1 0.284 17.633 1.15 31.6 0.3 4.8 0.417 9.3 0.35 13.5-0.033 2.601-0.149 6.9-0.35 12.9l-0.101 9.149-1.3-0.149 0.55-24.601c0.067-4.833-0.066-11.25-0.399-19.25-0.4-9.033-0.684-15.716-0.851-20.05-0.133-4.666 0.2-10.233 1-16.7 0.867-7 1.301-12.133 1.301-15.399 0.033-4.367 0.35-8.083 0.949-11.15 0.967-5.2 1.551-8.583 1.75-10.15 0.467-3.833 0.783-7.933 0.95-12.3 0.233-6.5 0.4-10.417 0.5-11.75 0.367-6 0.634-24.667 0.8-56h0.95l0.2 21.9z"/>
		<path d="m275.2 47.25c-0.067 4.967 0.017 18.75 0.25 41.35l0.25 53.15c0.033 4.267-0.467 10.017-1.5 17.25-1.101 7.6-1.667 11.833-1.7 12.7-0.4 19.066-0.533 30.899-0.4 35.5l0.4 9.7-1.05-0.101c-0.267-5.833-0.467-15.95-0.601-30.35-0.066-9.2 0.101-15 0.5-17.4 0.768-3.066 1.5-7.583 2.2-13.55 0.9-7.6 1.351-13.783 1.351-18.55-0.134-7.8-0.217-16.133-0.25-25 0-10.434-0.018-17.767-0.051-22-0.1-9.333-0.166-15.417-0.199-18.25-0.066-7.1-0.051-16.534 0.05-28.3 0.1-14.133 0.149-22.816 0.149-26.05h0.75c0 9.933-0.05 19.9-0.15 29.9z"/>
		<path d="m261.2 22.7c0.066 6.033-0.017 16.367-0.25 31-0.233 14.867-0.333 24.667-0.3 29.4 0.066 5.833-0.334 12.2-1.2 19.1-0.9 7.3-1.366 11.566-1.4 12.8-0.033 2.367-0.183 5.067-0.45 8.1-0.333 3.733-0.566 6.867-0.699 9.4-0.134 2.866-0.533 6.566-1.2 11.1-0.667 4.267-1.017 7.434-1.05 9.5-0.033 2.134 0.149 6.517 0.55 13.15 0.467 7.6 0.733 13.3 0.8 17.1 0.133 7.5 0.2 18.117 0.2 31.851l-1-0.101 0.149-4.3c0.101-4.267 0.101-8.649 0-13.149-0.166-6.4-0.333-12.134-0.5-17.2-0.133-5-0.399-9.917-0.8-14.75-0.333-3.867-0.483-7.384-0.45-10.55 0-2.367 0.518-6.667 1.551-12.9 1-6.2 1.5-12.717 1.5-19.55 0.033-6.534 0.232-10.367 0.6-11.5 0.467-1.5 0.8-4.45 1-8.85 0.633-11.867 1.1-21.667 1.4-29.4 0.6-14.067 0.883-26.233 0.85-36.5 0-5.8-0.083-12.167-0.25-19.1h0.95v5.35z"/>
		<path d="m271.5 49.05c-0.267 6.8-0.35 13.517-0.25 20.15 0.066 3.867 0.184 10.417 0.35 19.65 0.033 6.2-0.016 11.6-0.149 16.2-0.101 4.567-0.15 7.667-0.15 9.3 0.034 5.033 0.25 13.167 0.65 24.4 0.167 4.6-0.167 9.767-1 15.5-0.434 2.967-0.95 6.25-1.55 9.85-0.066 0.801-0.4 3.184-1 7.15-0.533 3.566-0.851 6.566-0.95 9-0.167 3.7-0.067 15.75 0.3 36.15l-0.95-0.101-0.1-1.75c-0.3-5.5-0.384-10.383-0.25-14.649 0.167-6.801 0.25-11.25 0.25-13.351-0.033-4.666 0.1-8.517 0.399-11.55 0.334-3.4 0.518-6 0.551-7.8 0.033-2.367 0.566-5.983 1.6-10.851 1.1-5.233 1.75-9.8 1.95-13.699 0.2-4.267 0.134-9.117-0.2-14.551-0.5-7.466-0.783-12.766-0.85-15.899-0.233-11.7-0.301-21.367-0.2-29 0-0.434 0.267-7.684 0.8-21.75 0.467-12.434 0.667-22.934 0.6-31.5l-0.149-12.6h1.35c-0.03 4.433-0.38 15-1.05 31.7z"/>
		<path d="m263.65 30.4c0.133 7.233 0.1 15.883-0.101 25.95-0.2 8.8-0.433 15.066-0.7 18.8-0.199 3.467-0.449 9.617-0.75 18.45-0.3 9.333-0.433 15.917-0.399 19.75 0.033 5.4 0.149 13.966 0.35 25.7l-0.649 3.2c-0.533 2.5-1.101 4.684-1.7 6.55-0.601 1.9-0.934 5.733-1 11.5 0 0.033 0.033 4.5 0.1 13.4 0 2.166 0.25 8.066 0.75 17.7 0.267 5.366 0.684 13.466 1.25 24.3l-1.85-0.2c-0.333-8.7-0.601-15.033-0.8-19-0.634-12.167-0.917-21.366-0.851-27.6 0.2-5.367 0.333-9.284 0.4-11.75 0.1-3.267 0.316-5.717 0.649-7.351 0-0.033 0.551-2.116 1.65-6.25 0.633-2.399 0.917-5.25 0.85-8.55-0.199-4.366-0.316-8.2-0.35-11.5-0.066-6.1 0.033-13.517 0.3-22.25 0.3-11.033 0.817-21.617 1.55-31.75 0.601-8.733 0.851-18.4 0.75-29-0.066-5.733-0.3-13.45-0.699-23.15h0.949c0.2 7.2 0.3 11.55 0.3 13.05z"/>
		<path d="m269.7 26.1c0.134 15.9-0.25 28.15-1.15 36.75-0.3 2.867-0.433 8.35-0.399 16.45 0.033 4.833 0.1 13.417 0.199 25.75-0.033 18.667 0.067 32.217 0.301 40.65 0.066 3.467-0.233 6.983-0.9 10.55-0.4 1.9-0.916 4.333-1.55 7.3-0.366 2.566-0.583 4.384-0.65 5.45-0.167 1.934-0.233 4.816-0.2 8.65 0.033 4.199 0.134 17.05 0.301 38.55l-1.101-0.15c0-9.633-0.017-16.35-0.05-20.149l-0.2-25.75c-0.033-3.067 0.184-5.467 0.65-7.2 0.833-3.101 1.483-6.283 1.95-9.55 0.699-4.801 1.033-9.75 1-14.851-0.233-8.899-0.4-18.183-0.5-27.85-0.2-15.267-0.301-25.767-0.301-31.5 0-8.733 0.334-19.6 1-32.6 0.467-8.967 0.684-15.617 0.65-19.95 0-2.533-0.15-5.633-0.45-9.3h1.3l0.1 8.75z"/>
		<path d="m266.4 47.1c-0.334 7.1-0.533 12.35-0.601 15.75-0.066 3.633-0.216 9.867-0.45 18.7-0.199 8.3-0.283 15.167-0.25 20.6 0.067 8.934 0.051 21.05-0.05 36.35 0.034 3.333-0.066 6-0.3 8-0.133 1.333-0.467 3.8-1 7.4-0.934 6.866-1.383 11.083-1.35 12.649 0 2.2 0.083 8.15 0.25 17.851 0.232 12.366 0.482 22.883 0.75 31.55l-1.4-0.15c-0.267-9.333-0.467-20.033-0.6-32.1-0.167-13.233-0.084-20.767 0.25-22.601 0.633-3.466 1-6.233 1.1-8.3 0.2-4.066 0.533-7.133 1-9.2 0.3-1.366 0.45-5.666 0.45-12.899-0.067-8.934-0.083-19.633-0.05-32.1 0-7.8 0.1-15.35 0.3-22.65 0.333-9.567 0.6-18.167 0.8-25.8 0.267-9.966 0.383-16.033 0.35-18.2-0.199-3.867-0.433-8.733-0.699-14.6h1.149c0.2 5.133 0.434 11.117 0.7 17.95 0.03 2-0.08 5.933-0.35 11.8z"/>
	</g>
		<use transform="matrix(1 0 0 -1 232.2 17.35)" y="-200.65" width="50.25" height="200.65" enable-background="new" opacity=".3594" xlink:href="#ak"/>
	<polygon points="287.55 16.8 287.3 217.25 282.45 218 282.45 17.35" clip-rule="evenodd" fill="#5B3419" fill-rule="evenodd"/>
		<use transform="matrix(1 0 0 -1 232.55 17.35)" y="-195.3" width="2.15" height="195.3" enable-background="new" opacity=".4609" xlink:href="#ag"/>
	<path d="m282.4 28.7c0.399 0.453 0.6 30.403 0.6 89.85 0 59.9-0.2 89.851-0.6 89.851-0.4-0.454-0.601-30.403-0.601-89.851 0-59.9 0.2-89.85 0.6-89.85z" clip-rule="evenodd" fill="#A45F2E" fill-rule="evenodd"/>
	<path d="m5.1 28.7c0.4 0.453 0.6 30.403 0.6 89.85 0 59.9-0.2 89.851-0.6 89.851-0.4-0.454-0.6-30.403-0.6-89.851 0-59.9 0.2-89.85 0.6-89.85z" clip-rule="evenodd" fill="#C57942" fill-rule="evenodd"/>
</svg>
