<?xml version="1.0" encoding="UTF-8"?>
<svg viewBox="0 0 344.90106 801.62817" xmlns="http://www.w3.org/2000/svg" xmlns:xlink="http://www.w3.org/1999/xlink">
 <defs>
  <filter id="h">
   <feGaussianBlur stdDeviation="3.0502"/>
  </filter>
  <filter id="i" x="-.04825" y="-.18297" width="1.0965" height="1.3659">
   <feGaussianBlur stdDeviation="4.0096"/>
  </filter>
  <filter id="g" x="-.18092" y="-.06737" width="1.3618" height="1.1347">
   <feGaussianBlur stdDeviation="8.9469"/>
  </filter>
  <linearGradient id="a">
   <stop stop-color="#818100" offset="0"/>
   <stop stop-color="#d6d616" offset=".2186"/>
   <stop stop-color="#c6c600" offset=".4846"/>
   <stop stop-color="#ff0" offset=".7722"/>
   <stop stop-color="#585800" offset="1"/>
  </linearGradient>
  <linearGradient id="f" x1="281.43" x2="485.71" gradientUnits="userSpaceOnUse">
   <stop stop-color="#f88d8f" offset="0"/>
   <stop stop-color="#8b070b" offset=".5"/>
   <stop stop-color="#ec0e12" offset="1"/>
  </linearGradient>
  <linearGradient id="e" x1="238.49" x2="267.77" gradientUnits="userSpaceOnUse">
   <stop stop-color="#adad00" offset="0"/>
   <stop stop-color="#d6d600" offset=".1021"/>
   <stop stop-color="#ff0" offset=".2042"/>
   <stop stop-color="#747400" offset="1"/>
  </linearGradient>
  <linearGradient id="b" x1="383.28" x2="364.85" y1="272.65" y2="240.06" gradientUnits="userSpaceOnUse">
   <stop stop-color="#fff" offset="0"/>
   <stop stop-color="#e6e6e6" offset="1"/>
  </linearGradient>
  <linearGradient id="d" x1="336.54" x2="423.46" gradientUnits="userSpaceOnUse" xlink:href="#a"/>
  <linearGradient id="c" x1="346.87" x2="411.7" gradientUnits="userSpaceOnUse" xlink:href="#a"/>
 </defs>
 <g transform="translate(-203.48 -133.28)">
  <path d="m383.56 697.75c-49.198 0-90.983 14.712-106.06 35.156v22.469h212.12v-22.469c-15.08-20.445-56.865-35.156-106.06-35.156z"/>
  <path d="m293.8 701.28c-1.4142 0-20.098-1.1979-26.163-1.0607-8.739 0.19774-12.484 4.2704-15.91 8.8388l-7.4246 9.8995c1.1959 18.205 1.5652 27.224 10.253 25.456 0 0 4.309-8.0545 5.7452-10.872 1.94-3.8053 10.131-6.6066 15.645-6.8059 6.252-0.22593 17.501 1.4142 17.501 1.4142z"/>
  <path d="m321.5 240.22c-45.926-0.66348-61.122 9.901-81.844 37.75-39.744 53.414-36.69 126.06-35.688 186.59 1.5306 92.45 43.434 194.86 51.739 297.18-2.2389 1.8928 0.0836 15.794-0.80128 25.674l-5.5036 61.449 52.656-2.9375-14.604-62.118c-2.679-11.395-3.7667-21.178-5.712-24.104-7.6171-108.84-51.361-210.2-52.774-295.58-1.0059-60.757-1.9201-127.31 30.75-171.22 18.41-24.743 23.126-26.08 73.375-27.125l12.438 1.125 2.25-24.906-12.438-1.125c-4.6555-0.42001-9.2833-0.59037-13.844-0.65625z"/>
  <path d="m281.43 890.93v-560s7.381-40.714 102.14-40.714 102.14 40.714 102.14 40.714v560s-20.952 40.714-102.14 40.714-102.14-40.714-102.14-40.714z" fill="url(#f)"/>
  <path transform="matrix(1 0 0 1.0136 0 -12.711)" d="m337.84 351.28v569.16s9.3616 7.1262 45.719 7.1262 45.75-7.1262 45.75-7.1262v-569.16c-14.579 1.8684-29.923 2.9062-45.75 2.9062s-31.14-1.0379-45.719-2.9062z" fill="#b00b0e" filter="url(#h)"/>
  <path transform="matrix(.93558 0 0 .93558 24.719 22.891)" d="m383.56 290.22c-71.892 0-93.481 23.408-99.719 34.719 26.565 11.121 61.467 17.875 99.719 17.875s73.155-6.7564 99.719-17.875c-6.2449-11.315-27.847-34.719-99.719-34.719z" fill="#b00b0e" filter="url(#i)"/>
  <path d="m306.43 380.93c-1.8171-13.1-2.1588-28.782-7.5-35.714l16.071 5.3572c-3.8644 5.0827-5.7143 20.238-8.5714 30.357z" fill="#ececec"/>
  <path transform="matrix(.99999 .0053 -.0053 .99999 3.6636 -1.8885)" d="m363.93 353.26c0 1.0848-3.0381 1.9643-6.7857 1.9643s-6.7857-0.87944-6.7857-1.9643 3.0381-1.9643 6.7857-1.9643 6.7857 0.87944 6.7857 1.9643z" fill="#ececec"/>
  <path transform="matrix(.96124 -.16292 .11945 1.3111 70.755 -55.99)" d="m363.93 353.26c0 1.0848-3.0381 1.9643-6.7857 1.9643s-6.7857-0.87944-6.7857-1.9643 3.0381-1.9643 6.7857-1.9643 6.7857 0.87944 6.7857 1.9643z" fill="#ececec"/>
  <path transform="matrix(1 0 0 1.9407 0 -285.12)" d="m423.21 298.79c0 2.3669-19.348 4.2857-43.214 4.2857s-43.214-1.9188-43.214-4.2857 19.348-4.2857 43.214-4.2857 43.214 1.9188 43.214 4.2857z" fill="url(#d)"/>
  <path d="m363.57 266.78h31.429a16.429 3.2143 0 0 1 16.429 3.2143v22.366a16.429 3.2143 0 0 1 -16.429 3.2143h-31.429a16.429 3.2143 0 0 1 -16.429 -3.2143v-22.366a16.429 3.2143 0 0 1 16.429 -3.2143" fill="url(#c)"/>
  <path d="m366.53 266.74h25.513a19.429 2.4202 0 0 1 19.429 2.4202v0.375a19.429 2.4202 0 0 1 -19.429 2.4202h-25.513a19.429 2.4202 0 0 1 -19.429 -2.4202v-0.375a19.429 2.4202 0 0 1 19.429 -2.4202" fill="#8e8e03"/>
  <path transform="rotate(90)" d="m249.35-342.3h7.5513a10.602 6.8214 0 0 1 10.602 6.8214v27.113a10.602 6.8214 0 0 1 -10.602 6.8214h-7.5513a10.602 6.8214 0 0 1 -10.602 -6.8214v-27.113a10.602 6.8214 0 0 1 10.602 -6.8214" fill="#ccc"/>
  <path d="m277.5 733.88v23.125c30.912 29.733 78.293 35.018 106.73 34.531s80.323-2.5384 105.4-34.469v-23.156c-14.741 20.686-56.651 35.625-106.06 35.625-49.44 0-91.348-14.952-106.06-35.656z"/>
  <path d="m253.59 741.01c12.568 1.9092 19.028 0.4559 25.632-4.0168l1.8615 22.889c-9.5157 3.5488-18.405 4.3879-25.461 1.8598z" fill="#e6e6e6"/>
  <path d="m300.23 417.36s13.417 10.714 83.339 10.714 83.339-10.714 83.339-10.714v315s-21.988 17.078-83.339 17.078-83.339-17.078-83.339-17.078z" fill="#ececec"/>
  <path transform="rotate(90)" d="m253.13-342.36a8.4391 1.8214 0 0 1 8.4391 1.8214v37.235a8.4391 1.8214 0 0 1 -8.4391 1.8214 8.4391 1.8214 0 0 1 -8.4391 -1.8214v-37.235a8.4391 1.8214 0 0 1 8.4391 -1.8214" fill="#f2f2f2"/>
  <path transform="rotate(90)" d="m253.13-356.1a18.674 6.8214 0 0 1 18.674 6.8214v7.7046a18.674 6.8214 0 0 1 -18.674 6.8214 18.674 6.8214 0 0 1 -18.674 -6.8214v-7.7046a18.674 6.8214 0 0 1 18.674 -6.8214"/>
  <path transform="rotate(90)" d="m253.13-387.03a14.352 6.1311 0 0 1 14.352 6.1311v28.942a14.352 6.1311 0 0 1 -14.352 6.1311 14.352 6.1311 0 0 1 -14.352 -6.1311v-28.942a14.352 6.1311 0 0 1 14.352 -6.1311" fill="url(#e)"/>
  <path d="m373 242.86c49.282 2.358 113.22-1.9524 172 28.5 3.8118-5.1801 5.1544-9.4348 0-12.625-39.175-24.247-78.835-27.252-118.59-33.121-14.493-2.1399-17.118-8.7814-24.91-18.754l-50.091 16c-1.4555 5.0401-1.2476 20.981 4.3567 20.74z" fill="#4d4d4d"/>
  <path transform="translate(203.48 133.28)" d="m198.03 73.594-50.094 16c-0.77159 2.6718-1.0632 8.3923-0.34375 13.156l4.1562-0.40625c3.7731 5.0203 9.354 3.8978 11.375-1.3125l28.781-3.5c8.8084-1.075 11.655-3.4304 11.969-11.031 0.07556-1.8308 0.15983-3.4151 0.25-4.875-1.8727-2.3654-3.7495-5.031-6.0938-8.0312z"/>
  <path d="m378.97117,266.79131c.004.1064.0333.20347.0864.29129 .0883.14567.22035.23753.3962.27559s.34438.0122.50204-.0833c.0838-.0508.14942-.1226.19685-.21545s.0721-.1917.074-.29652c.002-.0252-.005-.0478-.0165-.0678-.0169-.0279-.0421-.0447-.0756-.0503s-.0631-.00045-.0891.015c-.038.023-.0562.0559-.0548.0986-.003.0673-.0188.12876-.0478.18449s-.0715.10049-.12731.13441c-.0977.0592-.20088.0781-.3094.0566s-.18581-.0771-.24143-.16879c-.0315-.0519-.0493-.11066-.0536-.17632l.0251-1.66031c-.001-.0376-.009-.0684-.0232-.0923-.0327-.0539-.0859-.0585-.15971-.0137l-.81718.49522c-.032.0193-.0506.0449-.0558.0768s.00042.0607.0157.0867 .0414.0492.0699.058 .0596.003.0935-.0179l.63459-.38457z"/>
  <path d="m350.02 233.36 4.7153-0.48308c3.7731 5.0203 9.3453 3.8983 11.366-1.312l28.779-3.5121c8.8084-1.075 11.648-3.4285 11.962-11.029 0.81755-19.808 2.0121-16.33 13.923-23.741 34.159-21.252 59.563-41.1 104.97-54.499 0.13328-3.3531-7.0605-6.3002-11.667-5.3033-59.523 12.88-106.72 48.415-160.87 75.66-4.4903 2.2593-6.0291 4.7865-4.9498 11.667z" fill="#4d4d4d"/>
  <path d="m392.86 256.29c0 10.848-8.7944 19.643-19.643 19.643s-19.643-8.7944-19.643-19.643 8.7944-19.643 19.643-19.643 19.643 8.7944 19.643 19.643z" fill="#d7d700"/>
  <path d="m395.63 219.57c0 1.9526-1.5829 3.5355-3.5355 3.5355s-3.5355-1.5829-3.5355-3.5355 1.5829-3.5355 3.5355-3.5355 3.5355 1.5829 3.5355 3.5355z" fill="#ececec"/>
  <path transform="matrix(.95512 0 0 .95512 16.751 11.503)" d="m392.86 256.29c0 10.848-8.7944 19.643-19.643 19.643s-19.643-8.7944-19.643-19.643 8.7944-19.643 19.643-19.643 19.643 8.7944 19.643 19.643z" fill="url(#b)"/>
  <path d="m412.24 182.97c-20.742 10.724-34.165 14.422-57.983 30.052-6.8604 4.502-0.65049 7.8815 4.2426 3.8891 18.632-15.203 29.816-20.86 53.74-33.941z" fill="#ececec"/>
  <path transform="matrix(.42731 0 0 .42731 213.74 146.78)" d="m392.86 256.29c0 10.848-8.7944 19.643-19.643 19.643s-19.643-8.7944-19.643-19.643 8.7944-19.643 19.643-19.643 19.643 8.7944 19.643 19.643z" fill="#e6e6e6"/>
  <path d="m373.22 247.91c-4.6356 0-8.4062 3.7394-8.4062 8.375 0 2.4824 1.0996 4.7133 2.8125 6.25-1.4176-1.503-2.3125-3.5209-2.3125-5.75 0-4.6356 3.7706-8.375 8.4062-8.375 2.1894 0 4.1931 0.81436 5.6875 2.1875-1.5342-1.6696-3.7413-2.6875-6.1875-2.6875z" fill="#ccc"/>
  <path d="m368.19 263-3.8438 5.125c4.5685 3.4185 10.699 3.9048 15.75 1.25l-2.9688-5.6562c-1.1666 0.6143-2.4962 0.96875-3.9062 0.96875-1.8911 0-3.6278-0.63228-5.0312-1.6875z" fill="#fede0a" stroke="#000" stroke-linecap="round" stroke-width=".37657"/>
  <path d="m381.5 257.66c-0.3666 2.2297-1.6185 4.1671-3.375 5.4375l3.7188 5.2188c3.1742-2.2843 5.3298-5.7356 5.9688-9.5938l-6.3125-1.0625z" fill="#f35c59" stroke="#000" stroke-linecap="round" stroke-width=".37657"/>
  <path d="m379.78 261.5c-1.0212 1.284-2.402 2.2691-4 2.7812l1.9688 6.0938c2.7832-0.89859 5.247-2.6133 7.0625-4.9062l-5.0312-3.9688z" fill="#00e567" stroke="#000" stroke-linecap="round" stroke-width=".37657"/>
  <path d="m370.34019,248.41662c-.63118.23055-1.22488.53039-1.76201.88538l7.49163,14.88374 .0267-.01 .0267-.01-3.8651-16.20836c-.64558.074-1.28061.22597-1.91785.45873z"/>
  <path d="m384.21491,257.14665 1.34014.0302c.14701.003.27297-.0453.37791-.14554s.15904-.22281.1623-.36739l.003-.14352c.003-.14459-.0464-.27057-.14896-.37794-.10037-.10497-.22284-.15909-.36749-.16235l-1.34015-.0302c-.14693-.003-.27289.0452-.37786.14553s-.15559.22406-.1589.371l-.003.14352c-.003.14693.0441.27168.14208.37425s.22398.15911.37092.16243zm.005-.23792c-.0793-.002-.14631-.0313-.20105-.0886s-.0812-.12552-.0794-.20483l.003-.14352c.002-.0793.0313-.14632.0885-.20105s.12552-.0812.20483-.0794l1.34015.0302c.0793.002.14632.0313.20105.0885s.0812.12552.0795.20483l-.003.14352c-.002.0793-.0313.14631-.0885.20104s-.12553.0812-.20484.0794z"/>
  <path d="m383.85961,261.67262c.0496-.0978.12292-.16007.2201-.18675 .0847-.0225.17178-.0107.26125.0344 .0874.0442.14708.1072.17905.18877 .036.0941.0291.19011-.0204.28793s-.12451.16319-.22165.1898c-.0847.0225-.17071.0116-.25811-.0327-.0895-.0453-.15023-.1088-.18218-.19037-.036-.0941-.0287-.19107.022-.29098zm-.21228-.10756c-.0686.1353-.16815.22086-.29878.25669-.11394.0286-.22919.0133-.34574-.0457s-.19849-.14504-.23968-.25483c-.0505-.1224-.0409-.25227.0287-.3896s.16709-.21879.29563-.2505c.11493-.0307.23071-.016.34724.0425s.19858.14507.23978.25487c.0505.12239.0414.25124-.0271.38654zm-.0617.41598c.0203.0836.0593.15895.11692.22603s.12695.1212.20812.16233c.14572.0738.29016.0908.43333.0509 .16193-.0409.2856-.14563.37101-.31421s.0962-.32929.0324-.48195c-.0525-.13906-.15157-.24551-.29728-.31933-.0812-.0411-.16559-.0643-.25321-.0695s-.17117.009-.25065.0418c-.0101-.12532-.0506-.23697-.12265-.33491s-.16525-.17593-.27978-.23395c-.17481-.0886-.34947-.11038-.524-.0654-.19122.0523-.33799.1793-.44031.38123s-.11847.39902-.0454.58517c.0669.16732.18681.29473.35952.38224 .11243.057.22995.0858.35255.0864s.23574-.0316.33943-.0969z"/>
  <path d="m379.616,264.76161 1.3562,1.67148c.028.0345.0566.0548.0858.0612s.0547.00092.0764-.0169c.0271-.0221.0433-.0576.0485-.10688l.0696-.66956c.004-.0361-.004-.066-.023-.0894-.0206-.0254-.0481-.0399-.0826-.0434s-.0643.005-.0897.0255c-.0217.0177-.0345.0445-.0382.0807l-.0427.38609-1.17536-1.44861c-.0235-.029-.0515-.0439-.0837-.0448s-.0602.008-.0838.0274c-.0271.0221-.0431.0477-.0478.0771s.005.0595.0304.0902z"/>
  <path d="m375.46958,266.6671 .52574,2.08725c.0104.043.0282.0736.052.0916s.0494.0236.0764.0168 .0636-.0341.089-.0765l.34526-.57789c.0186-.0312.0243-.0615.0169-.0908s-.0268-.0564-.0565-.0742-.0605-.0227-.0922-.0147-.05.0259-.0687.0571l-.20141.33216-.45564-1.80896c-.009-.0362-.0281-.0615-.0571-.0758s-.0581-.0178-.0875-.01-.0592.0251-.0759.0498-.0201.0563-.0102.0947z"/>
  <path d="m374.85885,267.86953-.46968.0518c-.0673.007-.12661-.01-.17814-.0508s-.0809-.0956-.0884-.16277l-.0523-.47319c-.007-.0673.01-.1266.0508-.17812s.0956-.0809.16276-.0884l.23665-.0261c.0673-.007.12545.01.17463.0512s.0774.096.0849.16315zm-.0156.24113c-.0107.074-.0244.14004-.0415.19823-.081.26486-.23892.46188-.47355.59109-.0462.0285-.0664.0672-.0611.11582 .003.0325.0178.0596.0425.0816s.0534.031.0859.0276c.0162-.002.032-.007.0475-.0158 .14157-.079.26342-.18229.36554-.30977s.17642-.26771.22286-.42069c.0639-.20894.0832-.42704.0582-.6543l-.0657-.59495c-.0149-.13449-.0738-.243-.17682-.32554s-.22024-.11301-.35238-.0984l-.23664.0261c-.13448.0148-.24195.0724-.32242.17293s-.11638.22179-.10152.35627l.0523.47319c.0148.13447.0738.24298.17681.32553s.21791.11327.35239.0984z"/>
  <path d="m370.77237,268.01445c-.0657.0838-.10684.17635-.1234.27768-.0275.16811.0132.32373.12228.46687 .10864.14538.25394.23294.43588.26267 .0966.0158.19323.004.2896-.036s.17933-.099.24886-.17743c.0172-.0185.0277-.0392.0314-.0623 .005-.0322-.003-.0613-.0248-.0874s-.0476-.0415-.0775-.0464c-.0438-.008-.0791.006-.10579.0394-.0459.0493-.0979.0858-.15612.1093s-.11958.0301-.1841.0194c-.1128-.0185-.20348-.0711-.27205-.15787-.0666-.0842-.0912-.17925-.074-.28515 .01-.0598.0343-.11618.0737-.16892l1.09727-1.24628c.0237-.0293.0378-.0577.0423-.0853 .0102-.0622-.0274-.10025-.11252-.11417l-.94303-.15407c-.0368-.006-.0675.002-.0923.0221s-.0395.0462-.0444.0761c-.006.0346-.00038.0644.0156.0895s.0436.0408.0827.0471l.73231.11966z"/>
  <path d="m369.20104,266.76587-.11827.34065c-.0122.0352-.0103.0668.006.0947s.0387.0468.0674.0568 .0638.0104.092-.003 .048-.0371.0595-.0701l.11828-.34065 .52903.18368-.90938,1.29603-.0147.0318c-.0115.0331-.009.0641.006.0931 .0159.029.0393.0488.0702.0595 .0221.008.0455.008.0703,4e-005s.0462-.0228.0642-.0462l.99953-1.42766c.004-.003.008-.0105.0146-.0208l.0125-.0252c.0214-.0618-.008-.10639-.0869-.13397l-.67787-.23537 .11824-.34053c.0122-.0353.0108-.0666-.004-.0941-.0152-.0275-.0382-.0466-.069-.0573s-.0632-.0115-.0907.00011-.0476.0359-.0607.0734l-.11824.34054-.22481-.0781c-.0375-.013-.0694-.0117-.0959.003-.0264.0155-.045.0388-.0557.0695s-.0115.0634.00011.0907 .0359.0476.0734.0607z"/>
  <path d="m305.53 529.78s12.564 7.1335 78.044 7.1335 78.044-7.1335 78.044-7.1335v19.638s-20.591 7.339-78.044 7.339-78.044-7.339-78.044-7.339z" fill="#efc302"/>
  <path d="m305.46 461.13s25.303 7.738 78.111 7.738 78.111-7.738 78.111-7.738v7.3922s-19.548 7.6991-78.111 7.6991-78.111-7.6991-78.111-7.6991z" fill="#1f82ba"/>
  <path d="m305.59 475.41v52.25s18.67 6.4281 69.844 7.0625v-54.406c-58.249-0.39365-69.844-4.9062-69.844-4.9062zm155.97 0s-11.621 4.5112-69.844 4.9062v54.406c51.169-0.63482 69.844-7.0625 69.844-7.0625v-52.25z" fill="#efc302"/>
  <path d="m300.22 687.16v10.131c12.073 3.029 37.564 11.913 83.344 11.913 45.735 0 71.256-8.8464 83.344-11.875v-10.131c-13.051 3.037-40.561 12.255-83.344 12.255-42.819 0-70.306-9.2561-83.344-12.293z" fill="#e30000"/>
  <g transform="matrix(.39441 0 0 .54142 305.53 427.72)" fill="#e30000">
   <path d="m-0.5869 11.131c1.7924-3.984 4.5523-3.6684 7.8695-2.7384 2.2098 0.61954 4.2646 2.1962 5.7924 4.8971 1.5371 2.7476 2.4088 5.9999 2.4088 10.112 0 4.0747-0.8623 6.9905-2.3994 9.0559-1.4903 2.028-3.571 2.6635-5.7642 2.0186-3.4773-1.0467-6.6654-3.4964-7.4196-6.6446-1.7963-7.4978-0.98529-15.594-0.48738-16.701zm2.2646 7.9436c0 2.8598 0.39366 5.2429 1.2185 7.1868 0.88104 2.0093 2.5306 3.299 4.4146 3.8597 1.1716 0.34579 2.1932-0.13084 3.0462-1.3832 0.8623-1.2617 1.3309-3.3364 1.3309-6.2522 0-2.8971-0.45927-5.1401-1.2934-6.7756-0.83418-1.6261-1.876-2.5934-3.0836-2.9532-1.9603-0.58408-3.6211-0.62852-4.4521 0.48597-0.77174 1.035-1.181 2.9345-1.181 5.8317z" fill-rule="evenodd"/>
   <path d="m18.277 11.28c4.1053 0.71027 7.9575 1.271 11.969 1.7944v4.2242c-2.8493-0.36448-5.5674-0.74765-8.3136-1.1869v20.99c-1.2466-0.2056-2.465-0.40186-3.6554-0.61681v-25.205" fill-rule="evenodd"/>
   <path d="m32.064 38.513v-25.205c1.1341 0.13084 2.287 0.28037 3.4492 0.41121v9.925c2.3338 0.27102 4.6395 0.52336 6.8796 0.75699v-9.925l3.5335 0.34579v25.224c-1.1903-0.11215-2.3713-0.23364-3.5335-0.35513v-11.028c-2.2401-0.23364-4.5458-0.48597-6.8796-0.74765v11.018c-1.1622-0.14018-2.3151-0.27102-3.4492-0.42055" fill-rule="evenodd"/>
   <path d="m49.526 40.382v-25.214c4.3021 0.39252 8.5761 0.74765 12.888 1.0841v4.2616c-3.1492-0.24299-6.2329-0.49532-9.3821-0.76634v5.5887c2.9337 0.25233 5.8018 0.49532 8.7167 0.71027v4.2522c-2.9149-0.22429-5.783-0.45793-8.7167-0.71027v6.8597c3.2617 0.28037 6.4485 0.54205 9.7289 0.79438v4.2429c-4.4427-0.33644-8.8198-0.70092-13.234-1.1028" fill-rule="evenodd"/>
   <path d="m69.602 41.99v-20.953l-5.1363-0.36448v-4.271c4.5739 0.33644 9.1759 0.64485 13.787 0.93456v4.2616c-1.734-0.1028-3.4492-0.21495-5.1456-0.3271v20.953c-1.1528-0.08411-2.3151-0.15887-3.5054-0.23364" fill-rule="evenodd"/>
   <path d="m78.75 17.364c1.3122 0.07476 2.5963 0.15887 3.8991 0.23364 1.3216 4.4485 2.7368 8.869 4.0678 13.318 1.1341-4.3083 2.3057-8.598 3.4398-12.906 1.2091 0.06542 2.4276 0.13084 3.6554 0.19626-1.9214 6.2896-3.9178 12.561-5.8392 18.85-0.62798 2.0467-1.3028 3.57-1.9683 4.6167-0.65609 1.056-1.5184 1.5514-2.5775 1.4953-1.031-0.05607-1.8371-0.2056-2.4182-0.43924v-3.7756c0.49676 0.07476 0.94665 0.12149 1.3403 0.14018 0.81543 0.04673 1.3965-0.14018 1.7527-0.55139 0.33742-0.41121 0.69359-1.299 1.0123-2.7102-2.0995-6.1681-4.2646-12.299-6.3641-18.467" fill-rule="evenodd"/>
   <path d="m95.659 18.289 3.4773 0.16822v20.981c1.6777 0.07476 3.3554 0.15887 5.0426 0.22429v-20.981l3.4679 0.14953v20.981l5.2019 0.21495v-20.99c1.1528 0.04673 2.3151 0.08411 3.4773 0.13084 9e-3 8.411 0.0187 16.822 0.0281 25.233-6.8984-0.25233-13.797-0.55139-20.695-0.89718v-25.214" fill-rule="evenodd"/>
   <path d="m120.01 19.299 3.2617 0.11215v16.785c2.3151-5.5326 4.7332-11.037 7.039-16.57 1.1622 0.03738 2.3338 0.06542 3.496 0.1028v25.214c-1.0966-0.03738-2.1932-0.06542-3.2805-0.09346v-16.458c-2.3057 5.4205-4.7239 10.813-7.0296 16.233-1.1622-0.02804-2.3244-0.07477-3.4867-0.11215v-25.214" fill-rule="evenodd"/>
   <path d="m141.29 45.13v-20.944c-1.7152-0.04673-3.4304-0.08411-5.1363-0.13084v-4.271c4.5833 0.12149 9.1853 0.23364 13.787 0.31775v4.2616l-5.1363-0.1028v20.953l-3.5148-0.08411" fill-rule="evenodd"/>
   <path d="m152.22 45.364v-25.214c4.2834 0.08411 8.5855 0.14953 12.869 0.2056v4.2616c-3.1211-0.03738-6.2423-0.08411-9.3728-0.14018v5.598c2.9149 0.04673 5.8205 0.08411 8.726 0.13084v4.2429c-2.9056-0.03738-5.8111-0.08411-8.726-0.13084v6.8597c3.243 0.05607 6.4766 0.1028 9.7102 0.14953v4.2429c-4.3958-0.05607-8.8104-0.12149-13.206-0.2056" fill-rule="evenodd"/>
   <path d="m169.66 20.411c4.049 0.04673 8.1168 0.07476 12.175 0.1028v25.214c-1.1716-0.0093-2.3432-0.0093-3.5148-0.02804v-20.944l-5.23-0.04673v10.766c0 3.084-0.075 5.2242-0.2062 6.4485-0.14996 1.2149-0.49675 2.1775-1.0404 2.8411-0.553 0.69158-1.4059 1.0187-2.5775 1.0093-0.4124-0.0093-1.1528-0.05607-2.2401-0.19626v-3.9438l0.78731 0.02804c0.74045 0.0093 1.2372-0.12149 1.4809-0.41121s0.37491-0.99064 0.37491-2.1121c0-1.4486-9e-3 -2.8878-9e-3 -4.3364v-14.392" fill-rule="evenodd"/>
   <path d="m185.52464,20.53232 3.50542.0093v10.08392l4.68638.0093c.98415,0 1.85581.14953 2.60564.46728 .89041.37382 1.60274.9626 2.13699,1.78501 .97477,1.4953 1.46215,3.299 1.46215,5.39242 0,1.72894-.29056,3.18686-.88104,4.39244-.59986,1.20558-1.26532,2.00931-2.02452,2.44855-.21557.11215-.44052.21495-.69358.29906h-.009c-.68421.23364-1.55588.34579-2.59626.34579-2.72747,0-5.46432-.0093-8.1918-.01869v-25.21447zm3.50542,20.9996h3.42106c1.08724.0093 1.84644-.08411 2.26821-.23364 .4124-.15887.79669-.49532 1.13411-1.04671 .25306-.42055.40303-.91587.46864-1.48595 .0187-.16822.0187-.35513.0187-.55139s0-.40186-.0187-.58877c0,0-.009,0-.009-.0093-.0844-.85045-.34679-1.50464-.81543-1.94389-.56236-.5327-1.52776-.80372-2.89618-.81307-1.19035,0-2.38069,0-3.57103-.0093v6.68212z" fill-rule="evenodd"/>
   <path d="m209.62 20.523c4.6302-0.02804 9.2416-0.06542 13.862-0.12149v25.214c-1.1622 0.01869-2.3432 0.02804-3.5148 0.03738v-20.981l-6.8234 0.05607v20.981c-1.1716 0.0093-2.3526 0.01869-3.5242 0.01869v-25.205" fill-rule="evenodd"/>
   <path d="m226.37 33.13c0-2.5607 0.26244-4.7289 0.78731-6.4765 0.38429-1.299 0.95603-2.4486 1.6402-3.4766 0.66547-1.0374 1.4247-1.785 2.2401-2.3084 1.0685-0.69158 2.3338-1.028 3.7585-1.0561 2.5681-0.03738 4.6395 1.0654 6.1579 3.3551s2.3244 5.4578 2.3244 9.5699c0 4.0747-0.79668 7.2522-2.3057 9.5886-1.509 2.3458-3.571 3.5233-6.1298 3.57-2.6056 0.03738-4.6676-1.0748-6.1767-3.3551-1.5184-2.2803-2.2963-5.4018-2.2963-9.411zm3.6179-0.22429c0 2.8598 0.46864 5.0092 1.3684 6.4672 0.89978 1.4766 2.062 2.1869 3.4773 2.1682 1.4059-0.02804 2.5681-0.77569 3.4586-2.2616 0.87166-1.486 1.3403-3.6728 1.3403-6.598 0-2.8878-0.44989-5.0186-1.3028-6.4391-0.8623-1.4205-2.0433-2.1028-3.496-2.0747-1.4622 0.01869-2.6337 0.75699-3.5148 2.2056-0.87166 1.4673-1.3309 3.6354-1.3309 6.5326z" fill-rule="evenodd"/>
   <path d="m246.03 45.251v-25.214c1.8746-0.03738 3.7585-0.08411 5.6518-0.13084 2.137-0.04673 3.5242 0.02804 4.1709 0.27102 0.99351 0.36448 1.8464 1.1589 2.5119 2.4018 0.66547 1.2617 1.0216 2.8784 1.0216 4.8878 0 1.5514-0.2062 2.8598-0.59048 3.9252-0.38428 1.056-0.89041 1.8878-1.4809 2.514-0.59986 0.62616-1.2091 1.0467-1.8277 1.2523-0.83418 0.26168-2.0433 0.41121-3.6366 0.44859l-2.3151 0.05607v9.5045c-1.1716 0.03738-2.3338 0.05607-3.5054 0.08411zm3.5054-21.028v7.1587l1.9402-0.04673c1.3966-0.03738 2.3244-0.19626 2.7837-0.46728s0.83417-0.68223 1.0966-1.2617 0.39366-1.2336 0.39366-1.9719c0-0.90652-0.18746-1.6635-0.553-2.2616s-0.84355-0.93456-1.4059-1.0748c-0.42178-0.11215-1.2653-0.14953-2.54-0.11215-0.57174 0.01869-1.1435 0.02804-1.7152 0.03738z" fill-rule="evenodd"/>
   <path d="m261.56 32.411c0-2.5607 0.27181-4.7289 0.79668-6.4952 0.38429-1.299 0.94665-2.4579 1.6215-3.4953 0.66547-1.0467 1.4247-1.813 2.2495-2.3364 1.0779-0.72896 2.3526-1.0748 3.7678-1.1215 2.5588-0.08411 4.6395 0.97194 6.1673 3.2429 1.5184 2.2616 2.3151 5.4111 2.3151 9.5232 0 4.084-0.78731 7.2709-2.3057 9.6353-1.509 2.3738-3.5804 3.5794-6.1298 3.6635-2.5962 0.09346-4.6864-0.99064-6.1954-3.2429s-2.287-5.3644-2.287-9.3736zm3.6085-0.28037c0 2.8504 0.47801 4.9999 1.3872 6.4485 0.89042 1.4579 2.0714 2.1495 3.4773 2.1028 1.3965-0.04673 2.5494-0.82242 3.4398-2.3177 0.88104-1.5046 1.3497-3.6915 1.3497-6.6167 0-2.8971-0.45927-5.0186-1.3122-6.4204-0.87167-1.4018-2.0339-2.0654-3.4773-2.0186-1.4528 0.04673-2.6338 0.79438-3.5148 2.2616-0.88104 1.486-1.3497 3.6541-1.3497 6.5606z" fill-rule="evenodd"/>
   <path d="m281.25 18.981 3.5523-0.14018v20.981l5.0144-0.21495v-20.981c1.181-0.05607 2.3619-0.11215 3.5335-0.15888v20.981c1.7246-0.07476 3.4492-0.15887 5.1925-0.25233v-20.981c1.181-0.06542 2.3526-0.12149 3.5242-0.17757 0 8.411 9e-3 16.813 0.0187 25.224-6.9358 0.36448-13.881 0.67288-20.836 0.93456v-25.214" fill-rule="evenodd"/>
   <path d="m305.72107,17.85013c1.18097-.07476 2.36193-.13084 3.5429-.2056v10.72877c.78732-.16822 1.33094-.48597 1.59338-.97194 .26243-.46728.71233-1.81305 1.27469-3.99992 .71233-2.7663 1.44341-4.4859 2.17449-5.21485s1.93079-1.12147 3.56165-1.21493c.0937-.01869.26244-.01869.50613-.05607v3.75694c-.16871.01869-.31868.01869-.48739.01869-.73107.05607-1.25595.2056-1.59337.48597s-.6186.69158-.80606,1.23362c-.2062.54205-.54362,1.64483-.93727,3.30835-.2062.89718-.4499,1.62614-.69359,2.22426s-.69358,1.17755-1.31219,1.73828c.76857.28037 1.42467.8598 1.9308,1.83174 .50612.95325 1.10598,2.28033 1.70584,4.01861 .76857,2.26164 1.59337,4.50459 2.38068,6.76623-1.38717.07476-2.77434.16822-4.16151.26168-.67484-2.14949-1.38717-4.2616-2.06201-6.41109-.0375-.07476-.0937-.26168-.2062-.50466-.0375-.09346-.18745-.46728-.43115-1.15886-.44989-1.21493-.8248-1.96258-1.10598-2.26164-.29993-.29906-.73108-.4299-1.33094-.41121v11.04652c-1.18097.07476-2.36193.13084-3.5429.2056v-25.21447" fill-rule="evenodd"/>
   <path d="m319.82 29.756c0-2.5607 0.26243-4.7476 0.78731-6.5232 0.37491-1.3271 0.93728-2.5046 1.6121-3.57s1.4622-1.8504 2.2682-2.4299c1.0872-0.74765 2.3432-1.1589 3.7491-1.2523 2.5494-0.2056 4.6489 0.76634 6.1673 2.9719 1.4996 2.1869 2.2682 5.3083 2.2682 9.4204 0 4.0747-0.74982 7.327-2.2495 9.7381-1.5184 2.4486-3.5991 3.7382-6.1485 3.9252-2.5681 0.2056-4.6676-0.78503-6.186-2.9906-1.4996-2.1869-2.2682-5.2896-2.2682-9.2895zm3.6179-0.4299c0 2.8598 0.46864 4.9906 1.3872 6.3924 0.89978 1.4205 2.062 2.0747 3.4492 1.9813 1.3684-0.11215 2.5494-0.91587 3.4492-2.4672 0.88104-1.5514 1.3497-3.7569 1.3497-6.6728 0-2.8971-0.46863-4.9906-1.3122-6.3737-0.8623-1.3832-2.0808-1.9626-3.4867-1.8691-1.4434 0.11215-2.6244 0.89718-3.4867 2.4112-0.88104 1.514-1.3497 3.7009-1.3497 6.598z" fill-rule="evenodd"/>
   <path d="m339.42555,15.49503c2.3432-.18691 4.6489-.41121 6.91711-.61681 1.40591-.14953 2.45567-.16822 3.1305-.07477 .67484.11215 1.2747.37383 1.79958.8598s.95602,1.12147 1.29344,1.96258c.35616.8411.52487,1.81305.52487,2.89714 0,1.19624-.2062,2.29902-.63734,3.32704-.43115,1.00933-1.03101,1.81305-1.76209,2.39248 1.04976.35513 1.83707,1.00933 2.39943,2.03734 .54363,1.02802.82481,2.26164.82481,3.71956 0,1.14017-.16871,2.26164-.54362,3.38311-.35617,1.12147-.84355,2.05604-1.44341,2.7663-.63735.71027-1.40591,1.19624-2.34319,1.43923-.58111.14953-2.00578.35513-4.27399.59812-1.91204.16822-3.88032.35513-5.8861.52335v-25.21447zm3.54291,3.88778v5.83166c.74982-.07476 1.49964-.13084 2.24947-.2056 1.34968-.13084 2.23072-.26168 2.56814-.33644 .59985-.16822 1.08724-.52335 1.42466-1.0654 .35616-.54205.52487-1.19624.52487-1.99996 0-.78503-.14996-1.40184-.44989-1.86912-.28118-.46728-.74982-.69158-1.33093-.74765-.35617-.01869-1.38717.05607-3.01804.2056-.65609.05607-1.31218.13084-1.96828.18691zm0,10.03719v6.72884c1.04975-.09346 2.11825-.18691 3.168-.29906 1.31219-.11215 2.11824-.26168 2.45566-.39252 .52488-.18691.97477-.57943 1.29345-1.14017 .31867-.57943.48738-1.2897.48738-2.18687 0-.74765-.13122-1.38315-.39366-1.88781-.22494-.50466-.59985-.8411-1.08724-1.04671-.48738-.18691-1.53713-.2056-3.16799-.03738-.91854.07476-1.83707.16822-2.7556.26168z" fill-rule="evenodd"/>
   <path d="m357.01 13.738c1.181-0.13084 2.3244-0.28037 3.4679-0.41121v10.075c1.4809-0.18691 3.093-0.39252 4.6864-0.61681 1.2185-0.16822 2.2495-0.07477 3.093 0.28037s1.5371 1.1215 2.1182 2.299 0.91853 2.542 0.91853 4.1868c0 1.7009-0.35617 3.2149-0.97477 4.542-0.58111 1.3458-1.2185 2.2803-1.9308 2.7663-0.73108 0.50466-1.7808 0.8598-3.2242 1.0654-2.8118 0.37383-5.4362 0.71027-8.1543 1.028v-25.214zm3.4679 20.56c1.0872-0.13084 2.212-0.28037 3.3929-0.4299 1.106-0.14953 1.8746-0.33644 2.3057-0.56074 0.41241-0.22429 0.78732-0.61681 1.106-1.1962 0.33742-0.59812 0.48738-1.3084 0.48738-2.0934 0-1.1215-0.26243-1.9252-0.78731-2.4112-0.54362-0.50466-1.5184-0.6355-2.9618-0.4299-1.2185 0.16822-2.4182 0.31775-3.5429 0.44859v6.6728zm12.878-22.841c1.1247-0.2056 2.2307-0.39252 3.318-0.59812v25.214c-1.0872 0.2056-2.1932 0.39252-3.318 0.59812v-25.214z" fill-rule="evenodd"/>
   <path d="m380.4 10.093c1.1247-0.06759 2.1932-0.12618 3.2055-0.21318v16.766c2.1932-5.6962 5.5112-11.834 7.442-18.379 0.74982-0.45003 2.507-1.2678 2.5633-1.8936 0 8.3924 0.16807 16.72 0.16807 25.131-0.0562 0.58842-1.9253 1.4616-2.5814 1.8904v-16.467c-1.8558 6.446-5.1925 12.506-7.4045 18.142-1.0685 0.09598-2.1932 0.16357-3.3929 0.2369v-25.214zm9.5227-7.6275c0.50613-0.19303 0.95602-0.39576 1.3497-0.60819-0.075 1.6132-0.33742 2.9884-0.88104 4.0909-0.59986 1.1488-1.5746 1.8778-2.943 2.1463-1.5559 0.25486-2.287-0.13298-2.8868-0.92807-0.6186-0.79833-0.91853-2.0089-0.99351-3.5732l1.4059-0.1499c0.0562 0.81342 0.16871 1.431 0.48739 1.785 0.29993 0.3882 1.0498 0.4989 1.987 0.32421 0.88104-0.16571 1.5184-0.48563 1.8558-1.0442s0.56237-1.2113 0.61861-2.0427z" fill-rule="evenodd"/>
   <text y="13.45769" font-family="Times New Roman" font-size="14.996"></text>
  </g>
  <path d="m452.04 578.22c-4.1335 0.6193-9.934 1.2772-17.875 1.854v22.457c7.6667-0.63494 13.573-1.354 17.875-1.9846v-22.327zm-135.53 0.20891v22.327c4.562 0.63734 10.675 1.3198 18.562 1.9324v-22.457c-8.1226-0.54612-14.166-1.1884-18.562-1.8018zm98.562 2.6635c-6.2524 0.21841-13.364 0.34378-21.312 0.41781v22.771c7.9543-0.0963 15.014-0.29635 21.406-0.57449v-22.614h-0.0937zm-61 0.0522v22.64c6.1994 0.24743 13.085 0.41673 20.688 0.49615v-22.745c-7.6746-0.0616-14.569-0.19525-20.688-0.3917z" fill="#1e7db3"/>
  <path transform="matrix(1 0 0 1.0059 0 -2.363)" d="m324.22 424.34v314.38c13.227 2.3051 32.522 4.3438 59.344 4.3438s46.117-2.0387 59.344-4.3438v-314.38c-12.644 2.0447-31.501 3.7188-59.344 3.7188s-46.699-1.674-59.344-3.7188z" filter="url(#g)" opacity=".1898"/>
  <path d="m379.00223,266.77445c.005.10638.0339.20339.0874.29104 .0887.14543.22098.23694.397.27443s.34442.0112.50179-.0848c.0836-.051.14917-.12289.1962-.21604s.0715-.19195.0731-.29675c.00099-.0252-.005-.0478-.0168-.0677-.0172-.0277-.0422-.0445-.0758-.0501s-.0632-.00046-.089.0153c-.0384.0225-.0561.0561-.0546.0988-.003.0673-.0183.12888-.0472.18464s-.0711.10076-.127.13469c-.0976.0595-.20067.0787-.30923.0575s-.18599-.0765-.24195-.16806c-.0314-.0519-.0497-.11048-.0542-.17616l.0201-1.66036c-.001-.0377-.009-.0684-.0235-.0923-.0328-.0538-.0861-.0582-.15975-.0133l-.81569.4977c-.0318.0194-.0499.0455-.0556.0769s.00015.0608.0159.0867 .0417.0491.0702.0577 .0597.003.0934-.0182l.63343-.38648z"/>
  <path d="m319.43 557.69s19.656 4.2543 63.778 4.2543 63.778-4.2543 63.778-4.2543" fill="none" stroke="#000" stroke-dasharray="1.28125783, 1.28125783" stroke-width="1.2813"/>
  <path d="m319.43 562.16s19.656 4.2543 63.778 4.2543 63.778-4.2543 63.778-4.2543" fill="none" stroke="#000" stroke-dasharray="1.28125783, 1.28125783" stroke-width="1.2813"/>
  <path transform="translate(203.48 133.28)" d="m231.96875,434.4375-.21875.03125-.84375.09375 .125,1.25 .875-.09375h.0625v-1.28125zm-103.25.125-.15625,1.28125 1.28125.125 .125-1.28125-1.25-.125zm100.90625.125-1.28125.125 .15625,1.28125 1.28125-.125-.15625-1.28125zm-98.375.15625-.125,1.28125h.125l1.15625.125 .125-1.28125-1.15625-.125h-.125zm95.84375.09375-1.28125.125 .125,1.28125 1.28125-.125-.125-1.28125zm-93.28125.15625-.125,1.25 1.25.125 .125-1.25-1.25-.125zm90.71875.09375-.59375.0625-.65625.0625 .09375,1.28125 .6875-.0625 .59375-.0625-.125-1.28125zm-88.1875.125-.09375,1.28125 1.25.09375 .125-1.28125-1.28125-.09375zm85.65625.09375-1.28125.09375 .09375,1.28125 1.28125-.09375-.09375-1.28125zm-83.09375.125-.125,1.28125 1.28125.09375 .125-1.28125-1.28125-.09375zm80.34375.09375-1.09375.09375 .09375,1.25 1.09375-.0625h.03125 .15625l-.09375-1.28125h-.15625-.03125zm-77.8125.09375-.09375,1.28125 1.28125.09375 .09375-1.28125-1.28125-.09375zm75.46875.0625-1.28125.09375 .09375,1.28125 1.25-.09375-.0625-1.28125zm-72.90625.125-.09375,1.25 1.28125.09375 .09375-1.28125-1.28125-.0625zm70.34375.0625-.28125.03125h-.03125l-.96875.03125 .0625,1.28125 1-.03125 .3125-.03125-.09375-1.28125zm-67.78125.09375-.09375,1.28125 1.28125.0625 .0625-1.28125-1.25-.0625zm65.21875.0625-1.28125.0625 .09375,1.28125 1.25-.0625-.0625-1.28125zm-62.6875.0625-.0625,1.28125 1.28125.0625 .0625-1.25-1.28125-.09375zm60.125.0625-.9375.0625h-.3125l.03125,1.28125h.34375l.96875-.0625-.09375-1.28125zm-57.5625.09375-.0625,1.28125 1.28125.03125 .0625-1.28125-1.28125-.03125zm55.03125.03125-1.28125.0625 .03125,1.28125 1.28125-.0625-.03125-1.28125zm-52.46875.0625-.0625,1.28125 1.28125.0625 .0625-1.28125-1.28125-.0625zm49.90625.0625-1.28125.03125 .0625,1.28125 1.28125-.03125-.0625-1.28125zm-47.34375.0625-.0625,1.28125 .71875.03125h.5625l.0625-1.28125h-.5625l-.71875-.03125zm44.78125.03125-1.28125.03125 .03125,1.28125 1.28125-.03125-.03125-1.28125zm-42.21875.03125-.0625,1.28125 1.28125.0625 .0625-1.28125-1.28125-.0625zm39.65625.0625-1.28125.03125 .03125,1.28125 1.28125-.03125-.03125-1.28125zm-37.09375.03125-.0625,1.28125 1.28125.03125 .0625-1.28125-1.28125-.03125zm34.53125.03125-1.28125.03125 .03125,1.28125 1.28125-.03125-.03125-1.28125zm-32,.03125-.03125,1.28125 1.28125.03125 .03125-1.28125-1.28125-.03125zm29.4375.03125-1.28125.03125 .03125,1.28125 1.28125-.03125-.03125-1.28125zm-26.875.03125-.03125,1.28125 1.28125.03125 .03125-1.28125-1.28125-.03125zm2.5625.03125-.03125,1.28125 1.28125.03125 .03125-1.28125-1.28125-.03125zm20.46875,0 .03125,1.28125h1.28125l-.03125-1.28125h-1.28125zm-1.28125.03125-1.03125.03125h-.21875v1.28125h.21875 .03125l1.03125-.03125-.03125-1.28125zm-16.625.03125v1.28125h1.28125v-1.28125h-1.28125zm2.5625,0v1.28125h1.28125v-1.28125h-1.28125zm8.96875,0-1.28125.03125v1.28125l1.28125-.03125v-1.28125zm1.28125,0v1.28125h1.28125v-1.28125h-1.28125zm-7.6875.03125v1.28125h1.28125v-1.28125h-1.28125zm2.5625,0v1.28125h1.28125v-1.28125h-1.28125z"/>
  <path d="m319.43 571.12s19.656 4.2543 63.778 4.2543 63.778-4.2543 63.778-4.2543" fill="none" stroke="#000" stroke-dasharray="1.28125783, 1.28125783" stroke-width="1.2813"/>
  <path d="m319.43 609.44s19.656 4.2543 63.778 4.2543 63.778-4.2543 63.778-4.2543" fill="none" stroke="#000" stroke-dasharray="1.28125783, 1.28125783" stroke-width="1.2813"/>
  <path d="m319.43 613.91s19.656 4.2543 63.778 4.2543 63.778-4.2543 63.778-4.2543" fill="none" stroke="#000" stroke-dasharray="1.28125783, 1.28125783" stroke-width="1.2813"/>
  <path d="m319.43 618.39s19.656 4.2543 63.778 4.2543 63.778-4.2543 63.778-4.2543" fill="none" stroke="#000" stroke-dasharray="1.28125783, 1.28125783" stroke-width="1.2813"/>
  <path d="m319.43 622.87s19.656 4.2543 63.778 4.2543 63.778-4.2543 63.778-4.2543" fill="none" stroke="#000" stroke-dasharray="1.28125783, 1.28125783" stroke-width="1.2813"/>
  <path d="m319.31 537.06 0.9375 0.1875 0.34375 0.0625 0.21875-1.2812-0.3125-0.03125h-0.0312l-0.90625-0.1875zm125.19-0.8125 0.21875 1.25 1.25-0.21875-0.21875-1.25zm-122.66 1.2812 1.25 0.1875v0.0312h0.0312l0.1875-1.2812h-0.0312l-1.2188-0.21875zm121.28-1.0625-1.1562 0.15625 0.1875 1.2812 1.1562-0.15625v-0.0312h0.1249l-0.21875-1.2812zm-118.72 1.4375 1.25 0.1875 0.1875-1.25-1.2812-0.1875zm115.03-0.90625 0.1875 1.25 1.25-0.15625-0.15625-1.2812zm-112.5 1.2812 0.9375 0.125h0.0312l0.3125 0.0625 0.15625-1.2812-0.3125-0.0312-0.93745-0.1563zm109.97-0.96875 0.15625 1.2812 1.2812-0.15625-0.15625-1.2812zm-107.41 1.3125 1.25 0.15625 0.15625-1.2812-1.2812-0.15625zm105.72-1.0938-0.84375 0.0937 0.125 1.2812 0.875-0.0937 0.40625-0.0625-0.15625-1.2812zm-103.19 1.375 1.2812 0.15625 0.125-1.2812-1.25-0.15625zm99.781-1 0.15625 1.2812 1.2812-0.15625-0.15625-1.2812zm-97.219 1.2812h0.125l1.1562 0.125 0.125-1.2812-1.1562-0.0937-0.125-0.0312zm94.688-1.0312 0.125 1.25 1.2812-0.0937-0.125-1.2812zm-92.125 1.2812 1.25 0.125 0.125-1.2812-1.25-0.125zm90.25-1.125-0.65625 0.0625 0.0937 1.2812 0.6875-0.0625 0.59375-0.0625-0.12495-1.2812zm-87.688 1.3438 1.25 0.125 0.125-1.2812-1.2812-0.125zm84.469-1.0625 0.0937 1.2812 1.2812-0.125-0.0937-1.2812zm-81.938 1.2812 1.2812 0.0937 0.125-1.2812-1.2812-0.0937zm80.5-1.1562h-0.0312l-1.0938 0.0625 0.0937 1.2812 1.0938-0.0937h0.18745l-0.0937-1.2812zm-77.938 1.3438 1.2812 0.0937 0.0937-1.2812-1.2812-0.0937zm74.281-1.0938 0.0937 1.2812 1.25-0.0937-0.0625-1.2812zm-71.719 1.2812 1.2812 0.0937 0.0937-1.2812-1.2812-0.0937zm70.156-1.1875h-0.0312l-0.96875 0.0625 0.0625 1.2812 1-0.0625 0.3125-0.0312-0.0937-1.2812zm-67.594 1.3438 1.2812 0.0625 0.0625-1.2812-1.25-0.0625zm64.031-1.1562 0.0937 1.2812 1.25-0.0625-0.0625-1.2812zm-61.469 1.3125 1.2812 0.0625 0.0625-1.2812-1.2812-0.0625zm59.25-1.1875-0.3125 0.0312 0.0312 1.2812 0.34375-0.0312 0.96875-0.0312-0.0937-1.2812zm-56.688 1.3125 1.2812 0.0625 0.0625-1.2812-1.2812-0.0625zm53.812-1.1875 0.0312 1.2812 1.2812-0.0312-0.0312-1.2812zm-51.25 1.2812 1.2812 0.0625 0.0625-1.2812-1.2812-0.0312zm48.688-1.1562 0.0625 1.2812 1.2812-0.0625-0.0625-1.2812zm-46.125 1.2812 0.71875 0.0312 0.5625 0.0312 0.0625-1.2812-0.5625-0.0312-0.71875-0.0312zm43.562-1.1875 0.0312 1.2812 1.2812-0.0625-0.0312-1.2812zm-41 1.2812 1.2812 0.0312 0.0625-1.2812-1.2812-0.0312zm38.438-1.2188 0.0312 1.2812 1.2812-0.0312-0.0312-1.2812zm-35.875 1.2812 1.2812 0.0625 0.0625-1.2812-1.2812-0.0625zm33.312-1.1875 0.0312 1.2812 1.2812-0.0625-0.0312-1.2812zm-30.75 1.2812 1.2812 0.0312 0.0312-1.2812-1.2812-0.0312zm28.188-1.25 0.0312 1.2812 1.2812-0.0312-0.0312-1.2812zm-25.625 1.2812 1.2812 0.0312 0.0312-1.2812-1.2812-0.0312zm23.062-1.2188 0.0312 1.2812 1.2812-0.0312-0.0312-1.2812zm-20.5 1.2812 1.2812 0.0312 0.0312-1.2812-1.2812-0.0312zm18.188-1.25h-0.21875v1.2812h0.24995l1.0312-0.0312-0.0312-1.2812zm-15.594 1.2812h1.2812v-1.2812h-1.2812zm12.812-1.25v1.2812l1.2812-0.0312v-1.2812zm-10.25 1.2812h1.2812v-1.2812h-1.2812zm2.5625 0h1.2812v-1.2812h-1.2812zm2.5625-1.25v1.2812l1.2812-0.0312v-1.2812zm2.5625 1.25h1.2812v-1.2812h-1.2812z" fill="#df0000"/>
  <path d="m319.31 541.53 0.9375 0.1875 0.34375 0.0625 0.21875-1.25-0.3125-0.0625h-0.0312l-0.90625-0.1875zm125.19-0.8125 0.21875 1.25 1.25-0.21875-0.21875-1.25zm-122.66 1.2812 1.25 0.21875h0.0312l0.1875-1.2812h-0.0312l-1.2188-0.1875zm120.12-0.875 0.1875 1.25 1.1562-0.15625h0.0312l0.0937-0.0312-0.21875-1.25h-0.0937zm-117.56 1.2812 1.25 0.1875 0.1875-1.2812-1.2812-0.1875zm115.03-0.9375 0.1875 1.2812 1.25-0.1875-0.15625-1.2812zm-112.5 1.2812 0.9375 0.15625h0.0312l0.3125 0.0312 0.15625-1.2812-0.3125-0.0312-0.9375-0.125zm109.97-0.9375 0.15625 1.25 1.2812-0.15625-0.15625-1.25zm-107.41 1.2812 1.25 0.15625 0.15625-1.2812-1.2812-0.15625zm105.72-1.0938-0.84375 0.0937 0.125 1.2812 0.875-0.0937 0.40625-0.0625-0.15625-1.25zm-103.19 1.375 1.2812 0.15625 0.125-1.2812-1.25-0.125zm99.781-1 0.15625 1.2812 1.2812-0.15625-0.15625-1.25zm-97.219 1.2812 0.125 0.0312 1.1562 0.0937 0.125-1.2812-1.1562-0.0937h-0.125zm94.688-1.0312 0.125 1.2812 1.2812-0.125-0.125-1.2812zm-92.125 1.2812 1.25 0.125 0.125-1.2812-1.25-0.125zm90.25-1.0938-0.65625 0.0312 0.0937 1.2812 0.6875-0.0625 0.59375-0.0312-0.12495-1.2812zm-87.688 1.3438 1.25 0.0937 0.125-1.2812-1.2812-0.0937zm84.469-1.0938 0.0937 1.2812 1.2812-0.0937-0.0937-1.2812zm-81.938 1.2812 1.2812 0.125 0.125-1.2812-1.2812-0.125zm80.5-1.1562h-0.0312l-1.0938 0.0625 0.0937 1.2812 1.0938-0.0625h0.0312l0.15625-0.0312-0.0937-1.2812zm-77.938 1.3438 1.2812 0.0937 0.0937-1.2812-1.2812-0.0625zm74.281-1.0938 0.0937 1.2812 1.25-0.0937-0.0625-1.2812zm-71.719 1.2812 1.2812 0.0937 0.0937-1.2812-1.2812-0.0937zm69.156-1.125 0.0625 1.2812 1-0.0625h0.3125l-0.0937-1.2812h-0.31245zm-66.594 1.2812 1.2812 0.0937 0.0625-1.2812-1.25-0.0937zm64.031-1.125 0.0937 1.2812 1.25-0.0937-0.0625-1.2812zm-61.469 1.2812 1.2812 0.0625 0.0625-1.2812-1.2812-0.0625zm59.25-1.1562h-0.3125l0.0312 1.2812h0.34375l0.96875-0.0625-0.0937-1.2812zm-56.688 1.2812 1.2812 0.0625 0.0625-1.2812-1.2812-0.0625zm53.812-1.1562 0.0312 1.2812 1.2812-0.0625-0.0312-1.2812zm-51.25 1.2812 1.2812 0.0625 0.0625-1.2812-1.2812-0.0625zm48.688-1.1875 0.0625 1.2812 1.2812-0.0625-0.0625-1.2812zm-46.125 1.2812 0.71875 0.0312 0.5625 0.0312 0.0625-1.2812-0.5625-0.0312-0.71875-0.0312zm43.562-1.1875 0.0312 1.2812 1.2812-0.0312-0.0312-1.2812zm-41 1.2812 1.2812 0.0312 0.0625-1.2812-1.2812-0.0312zm38.438-1.1875 0.0312 1.2812 1.2812-0.0625-0.0312-1.2812zm-35.875 1.2812 1.2812 0.0312 0.0625-1.2812-1.2812-0.0312zm33.312-1.2188 0.0312 1.2812 1.2812-0.0312-0.0312-1.2812zm-30.75 1.2812 1.2812 0.0312 0.0312-1.2812-1.2812-0.0312zm28.188-1.2188 0.0312 1.2812 1.2812-0.0312-0.0312-1.2812zm-25.625 1.2812h1.2812l0.0312-1.2812h-1.2812zm23.062-1.25 0.0312 1.2812 1.2812-0.0312-0.0312-1.2812zm-20.5 1.2812 1.2812 0.0312 0.0312-1.2812-1.2812-0.0312zm2.5938 0.0312 1.2812 0.0312v-1.2812l-1.2812-0.0312zm15.375 0h1.2812l-0.0312-1.2812h-1.25zm-12.812 0.0312h1.2812v-1.2812h-1.2812zm2.5625 0 1.2812 0.0312v-1.2812l-1.2812-0.0312zm5.125 0h1.2812v-1.2812h-1.2812zm2.5625 0h1.2812v-1.2812h-1.2812zm-5.125 0.0312h1.2812v-1.2812h-1.2812z" fill="#df0000"/>
  <path d="m319.31 546.03 0.9375 0.1875 0.34375 0.0312 0.21875-1.25-0.3125-0.0625h-0.0312l-0.90625-0.1875zm125.19-0.84375 0.21875 1.2812 1.25-0.21875-0.21875-1.2812zm-122.66 1.2812 1.25 0.21875h0.0312l0.1875-1.25h-0.0312l-1.2188-0.21875zm121.28-1.0312-1.1562 0.15625 0.1875 1.25 1.1562-0.15625h0.0312l0.0937-0.0312-0.21875-1.25zm-118.72 1.4375 1.25 0.1875 0.1875-1.2812-1.2812-0.1875zm115.03-0.9375 0.1875 1.2812 1.25-0.1875-0.15625-1.25zm-112.5 1.3125 0.9375 0.125h0.0312l0.3125 0.0312 0.15625-1.25-0.3125-0.0625-0.9375-0.125zm109.97-0.96875 0.15625 1.2812 1.2812-0.15625-0.15625-1.2812zm-107.41 1.2812 1.25 0.15625 0.15625-1.2812-1.2812-0.15625zm105.72-1.0625-0.84375 0.0937 0.125 1.25 0.875-0.0937 0.40625-0.0312-0.15625-1.2812zm-103.19 1.375 1.2812 0.125 0.125-1.2812-1.25-0.125zm99.781-1.0312 0.15625 1.2812 1.2812-0.125-0.15625-1.2812zm-97.219 1.3125h0.125l1.1562 0.125 0.125-1.2812-1.1562-0.125h-0.125zm94.688-1.0625 0.125 1.2812 1.2812-0.125-0.125-1.2812zm-92.125 1.2812 1.25 0.125 0.125-1.25-1.25-0.125zm90.25-1.0938-0.65625 0.0625 0.0937 1.2812 0.6875-0.0625 0.5938-0.0625-0.125-1.2812zm-87.688 1.3438 1.25 0.0937 0.125-1.2812-1.2812-0.0937zm84.469-1.0938 0.0937 1.2812 1.2812-0.0937-0.0937-1.2812zm-81.938 1.3125 1.2812 0.0937 0.125-1.2812-1.2812-0.0937zm79.375-1.0938 0.0937 1.25 1.0938-0.0625h0.18745l-0.0937-1.2812h-0.18745zm-76.812 1.2812 1.2812 0.0937 0.0937-1.2812-1.2812-0.0937zm74.281-1.125 0.0937 1.2812 1.25-0.0937-0.0625-1.2812zm-71.719 1.2812 1.2812 0.0937 0.09375-1.2812-1.2812-0.0625zm70.156-1.1562h-0.0312l-0.96875 0.0312 0.0625 1.2812 1-0.0312 0.3125-0.0312-0.0938-1.2813zm-67.594 1.3438 1.2812 0.0625 0.0625-1.2812-1.25-0.0625zm64.031-1.1562 0.0937 1.2812 1.25-0.0625-0.0625-1.2812zm-61.469 1.2812 1.2812 0.0625 0.0625-1.25-1.2812-0.0937zm59.25-1.1562h-0.3125l0.0312 1.2812h0.34375l0.96875-0.0625-0.0937-1.2812zm-56.688 1.3125 1.2812 0.0312 0.0625-1.2812-1.2812-0.0312zm53.812-1.1875 0.0312 1.2812 1.2812-0.0625-0.0312-1.2812zm-51.25 1.2812 1.2812 0.0625 0.0625-1.2812-1.2812-0.0625zm48.688-1.1875 0.0625 1.2812 1.2812-0.0312-0.0625-1.2812zm-46.125 1.3125 0.71875 0.0312h0.5625l0.0625-1.2812h-0.5625l-0.71875-0.0312zm43.562-1.2188 0.0312 1.2812 1.2812-0.0312-0.0312-1.2812zm-41 1.2812 1.2812 0.0625 0.0625-1.2812-1.2812-0.0625zm38.438-1.1875 0.0312 1.2812 1.2813-0.03125-0.0312-1.2812zm-35.875 1.2812 1.2812 0.0312 0.0625-1.2812-1.2812-0.0312zm33.312-1.2188 0.0312 1.2812 1.2812-0.0312-0.0312-1.2812zm-30.75 1.2812 1.2812 0.0312 0.0312-1.2812-1.2812-0.0312zm28.188-1.2188 0.0312 1.2812 1.2812-0.0312-0.0312-1.2812zm-25.625 1.2812 1.2812 0.0312 0.0312-1.2812-1.2812-0.0312zm2.5625 0.0312 1.2812 0.0312 0.0312-1.2812-1.2812-0.0312zm20.531 0h1.2812l-0.0312-1.2812h-1.2812zm-2.3438-1.2188h-0.21875v1.2812h0.24995l1.0312-0.0312-0.0312-1.2812zm-15.594 1.2812h1.2812v-1.2812h-1.2812zm2.5625 0h1.2812v-1.2812h-1.2812zm7.6875-1.25v1.2812l1.2812-0.0312v-1.2812zm2.5625 1.25h1.2812v-1.2812h-1.2812zm-7.6875 0.0312h1.2812v-1.2812h-1.2812zm2.5625 0h1.2812v-1.2812h-1.2812z" fill="#df0000"/>
  <path d="m338.41 553 0.125-1.2812c-1.7265-0.37429-1.8674 1.107-0.125 1.2812zm1.3125 0.0937 1.25 0.125 0.125-1.2812-1.2812-0.125zm84.469-1.0625 0.0937 1.2812 1.2812-0.125-0.0937-1.2812zm-81.938 1.2812 1.2812 0.0937 0.125-1.2812-1.2812-0.0937zm79.375-1.0938 0.0937 1.2812 1.0938-0.0937h0.18745l-0.0937-1.2812-0.15625 0.0312v-0.0312zm-76.812 1.2812 1.2812 0.0937 0.0937-1.2812-1.2812-0.0937zm74.281-1.0938 0.0937 1.25 1.25-0.0625-0.0625-1.2812zm-71.719 1.2812 1.2812 0.0937 0.0937-1.2812-1.2812-0.0937zm70.156-1.1875h-0.0312l-0.96875 0.0625 0.0625 1.2812 1-0.0625 0.3125-0.0312-0.0937-1.2812zm-67.594 1.3438 1.2812 0.0625 0.0625-1.2812-1.25-0.0625zm64.031-1.1562 0.0937 1.2812 1.25-0.0625-0.0625-1.2812zm-61.469 1.2812 1.2812 0.0937 0.0625-1.2812-1.2812-0.0625zm59.25-1.1562-0.3125 0.0312 0.0312 1.2812 0.34375-0.0312 0.96875-0.0312-0.0937-1.2812zm-56.688 1.3125 1.2812 0.0625 0.0625-1.2812-1.2812-0.0625zm53.812-1.1875 0.0312 1.2812 1.2812-0.0625-0.0312-1.2812zm-51.25 1.2812 1.2812 0.0625 0.0625-1.2812-1.2812-0.0625zm48.688-1.1562 0.0625 1.2812 1.2812-0.0625-0.0625-1.2812zm-46.125 1.2812 0.71875 0.0312h0.5625l0.0625-1.25-0.5625-0.0312-0.71875-0.0312zm43.562-1.1875 0.0312 1.2812 1.2812-0.0625-0.0312-1.2812zm-41 1.2812 1.2812 0.0312 0.0625-1.2812-1.2812-0.0312zm38.438-1.2188 0.0312 1.2812 1.2812-0.0312-0.0312-1.2812zm-35.875 1.2812 1.2812 0.0625 0.0625-1.2812-1.2812-0.0625zm33.312-1.1875 0.0312 1.2812 1.2812-0.0625-0.0312-1.2812zm-30.75 1.2812h1.2812l0.0312-1.2812h-1.2812zm28.188-1.25 0.0312 1.2812 1.2812-0.0312-0.0312-1.2812zm-25.625 1.2812 1.2812 0.0312 0.0312-1.2812-1.2812-0.0312zm23.062-1.2188 0.0312 1.2812 1.2812-0.0312-0.0312-1.2812zm-20.5 1.2812h1.2812l0.0312-1.2812h-1.2812zm18.188-1.25h-0.21875v1.2812h0.24995l1.0312-0.0312-0.0312-1.2812zm-15.594 1.2812h1.2812v-1.2812h-1.2812zm12.812-1.25v1.2812l1.2812-0.0312v-1.2812zm-10.25 1.2812h1.2812v-1.2812h-1.2812zm2.5625 0h1.2812v-1.2812h-1.2812zm2.5625-1.25v1.2812l1.2812-0.0312v-1.2812zm2.5625 1.25h1.2812v-1.2812h-1.2812z" fill="#df0000"/>
  <path d="m319.43 630.94s19.656 4.2543 63.778 4.2543 63.778-4.2543 63.778-4.2543" fill="none" stroke="#000" stroke-dasharray="1.28125783, 1.28125783" stroke-width="1.2813"/>
  <path d="m319.43 635.41s19.656 4.2543 63.778 4.2543 63.778-4.2543 63.778-4.2543" fill="none" stroke="#000" stroke-dasharray="1.28125783, 1.28125783" stroke-width="1.2813"/>
  <path d="m319.43 639.89s19.656 4.2543 63.778 4.2543 63.778-4.2543 63.778-4.2543" fill="none" stroke="#000" stroke-dasharray="1.28125783, 1.28125783" stroke-width="1.2813"/>
  <path d="m319.43 644.37s19.656 4.2543 63.778 4.2543 63.778-4.2543 63.778-4.2543" fill="none" stroke="#000" stroke-dasharray="1.28125783, 1.28125783" stroke-width="1.2813"/>
  <path d="m319.43 653.94s19.656 4.2543 63.778 4.2543 63.778-4.2543 63.778-4.2543" fill="none" stroke="#000" stroke-dasharray="1.28125783, 1.28125783" stroke-width="1.2813"/>
  <path d="m319.43 658.41s19.656 5.0043 63.778 5.0043 63.778-5.0043 63.778-5.0043" fill="none" stroke="#000" stroke-dasharray="1.28125783, 1.28125783" stroke-width="1.2813"/>
  <path d="m319.43 662.89s19.906 6.2543 64.028 6.2543 63.528-6.2543 63.528-6.2543" fill="none" stroke="#000" stroke-dasharray="1.28125783, 1.28125783" stroke-width="1.2813"/>
  <path d="m319.43 667.37s20.156 6.2543 64.278 6.2543 63.278-6.2543 63.278-6.2543" fill="none" stroke="#000" stroke-dasharray="1.28125783, 1.28125783" stroke-width="1.2813"/>
  <path transform="translate(-31.82 10.607)" d="m395.63 219.57a3.5355 3.5355 0 1 1 -7.0711 0 3.5355 3.5355 0 1 1 7.0711 0z" fill="#ececec"/>
  <path transform="translate(203.48 133.28)" d="m157.22 94.219c1.6163 0.57169 1.2713 3.0931 0.60339 3.8265-0.79277 0.87053-2.6915 0.61827-3.2909-0.23277-7e-3 2.1611 2.9113 2.9547 4.5498 1.0788 1.2803-1.4658 0.6701-5.1868-1.8623-4.6725z" fill="#666"/>
 </g>
</svg>
