<?xml version="1.0" encoding="UTF-8"?>
<svg viewBox="0 0 147.09 118.2" xmlns="http://www.w3.org/2000/svg">
 <defs>
  <linearGradient id="d" x1=".38228" x2=".38323" y1="-.066019" y2="1.1531">
   <stop stop-color="#fff" offset="0"/>
   <stop stop-color="#101010" offset="1"/>
  </linearGradient>
  <linearGradient id="c" x1=".58987" x2=".62529" y1=".32678" y2=".70787">
   <stop stop-color="#cdcdcd" offset="0"/>
   <stop stop-color="#7e7e7e" offset="1"/>
  </linearGradient>
 </defs>
 <g transform="rotate(97.27 69.17 59.379)">
  <g transform="matrix(.48379 .32473 .31489 -.49892 -284.2 -120.1)" stroke="#000" stroke-dashoffset="3.003" stroke-linecap="round" stroke-linejoin="round">
   <path d="m624.59 79.145c0.10522 4.0988-3.2097 8.0808-7.4504 8.5634-3.4204 0.45831-6.9957-1.3599-8.5704-4.3472-1.8452-3.3018-1.2897-7.7503 1.5004-10.4 2.2656-2.2502 5.9189-3.1128 8.946-1.9092 3.1727 1.1834 5.4302 4.2873 5.5602 7.5844 0.009949 0.16919 0.014465 0.33865 0.014221 0.50809zm8.4712-38.793c-9.7257 0.068512-19.446 4.2067-26.286 11.375-12.251 12.275-14.681 32.888-6.5792 48.188 6.9142 13.842 22.598 22.248 37.617 20.125 13.315-1.5992 24.544-11.487 29.697-23.938l9.5336 5.4688c2.7915 1.7417 4.3561-0.44379 4.3556-3l-0.1827-10.219 10.843 0.25 7.371 6.9375 9.5945-9.715 8.7721 8.3712h6.4878l8.9854-9 6.5049 5.4987 8.2781-0.3475 7.1817-6.9025 7.7326-7.1237c-1.3116-4.3685-5.0488-7.0697-11.91-10.086l-70.36 0.555-0.4265-7.7812c-0.033447-2.7765-3.3696-3.9446-5.5434-2.5l-7.9193 6.4688c-4.1691-9.0407-11.571-16.515-20.742-20.125-4.1536-1.7429-8.5851-2.5311-13.006-2.5z" fill="url(#c)" stroke-width="2"/>
   <path d="m663.85 79.317l97.107-1.1968-4.5477 3.351-81.859 1.1968-10.701-3.351z" fill="url(#d)"/>
  </g>
 </g>
</svg>
