<?xml version="1.0" encoding="UTF-8"?>
<svg viewBox="0 0 744.09448819 1052.3622047" xmlns="http://www.w3.org/2000/svg">
 <path d="m255.03 432.47c99.779-199.34 215.77-302.7 350.19-6.5708l-2.8059-5.8407" fill="none" stroke="#005366" stroke-width="16.431"/>
 <path d="m246.5 426.45c152.68-44.506 267.78-55.884 365.43 7.9275l-141.19 71.348h-70.595z" fill="#2f4f4f"/>
 <path d="m244.35 425.13c194.03 51.087 271.51 18.519 368.57 0l-4.2365 369.49c-100.98 33.738-214.19 49.889-360.1-6.8424z" fill="#5f9ea0"/>
 <path d="m369.55 576.68-250.65-124.24-7.7124 42.842 235.69 207.11c29.043-25.615 54.165-55.258 22.669-125.71z" fill="#2f4f4f"/>
 <path transform="matrix(1.7017 0 0 1.4325 -77.316 -162.44)" d="m138.47 446.88a21.4 54.129 0 1 1 -42.799 0 21.4 54.129 0 1 1 42.799 0z" fill="#2f4f4f"/>
 <path transform="matrix(.53177 0 0 .47647 80.745 270.55)" d="m74.769 352.74a7.1209 22.253 0 1 1 -14.242 0 7.1209 22.253 0 1 1 14.242 0z" fill="#f5fffa"/>
 <path transform="matrix(.53177 0 0 .47647 95.892 284.18)" d="m74.769 352.74a7.1209 22.253 0 1 1 -14.242 0 7.1209 22.253 0 1 1 14.242 0z" fill="#f5fffa"/>
 <path transform="matrix(.53177 0 0 .47647 65.598 287.21)" d="m74.769 352.74a7.1209 22.253 0 1 1 -14.242 0 7.1209 22.253 0 1 1 14.242 0z" fill="#f5fffa"/>
 <path transform="matrix(.53177 0 0 .47647 64.084 325.08)" d="m74.769 352.74a7.1209 22.253 0 1 1 -14.242 0 7.1209 22.253 0 1 1 14.242 0z" fill="#f5fffa"/>
 <path transform="matrix(.53177 0 0 .47647 79.23 308.42)" d="m74.769 352.74a7.1209 22.253 0 1 1 -14.242 0 7.1209 22.253 0 1 1 14.242 0z" fill="#f5fffa"/>
 <path transform="matrix(.53177 0 0 .47647 100.44 319.02)" d="m74.769 352.74a7.1209 22.253 0 1 1 -14.242 0 7.1209 22.253 0 1 1 14.242 0z" fill="#f5fffa"/>
 <path transform="matrix(.53177 0 0 .47647 83.775 344.77)" d="m74.769 352.74a7.1209 22.253 0 1 1 -14.242 0 7.1209 22.253 0 1 1 14.242 0z" fill="#f5fffa"/>
 <path d="m484.36 457.03c38.873 102.9 34.572 223.73 3.0294 357.67 42.627-0.99403 81.597-9.2978 113.8-34.115-4.0943-118.93-3.3493-236.47 7.3706-352.06-34.849 12.588-73.314 23.473-124.2 28.512z" fill="#008b8b"/>
 <path d="m472.45 394.16c-15.501 8.7379 70.112-18.364-207.51 30.294 85.107 19.335 172.54 23.604 220.61 21.741-22.466-18.681-26.14-29.605-13.097-52.035z" fill="#008080"/>
</svg>
