<?xml version="1.0" encoding="UTF-8"?>
<svg enable-background="new 0 0 292.559 325.833" viewBox="0 0 292.559 325.833" xmlns="http://www.w3.org/2000/svg">
 <path d="m145.104,3.709c10.82,0 21.746-1.877 31.274,3.857 5.22,3.142 3.866,7.225 3.183,12.461-.804,6.155 6.215,6.041 11.333,7.804 10.665,3.674 21.613,5.994 32.586,8.612 4.516,1.078 9.146,1.726 13.713,2.545 3.163.567 12.839,2.18 14.607,4.519 1.753,2.317 1.189,10.251 1.516,13.059 .896,7.718 1.791,15.436 2.688,23.153 1.091,9.405 1.005,18.875 1.778,28.305 1.78,21.711 4.512,43.485 7.922,65 1.502,9.476 2.364,18.997 4.129,28.435 .938,5.012 1.387,10.425 3.098,15.244 1.401,3.947 1.828,11.977 4.862,14.396 2.135,1.701 4.601,2.473 4.216,5.263-.21,1.529-1.766,6.384-.396,7.308 3.554,2.397 7.859,7.024 3.382,11.501-2.22,2.221 1.935,3.155 3.291,3.679 1.872.723 3.036,4.348 4.011,6.036 .896,1.554-.754,5.516-1.097,7.212-.681,3.37-1.484,2.981-.117,6.901 2.006,5.745 2.675,6.239-2.783,9.646-4.89,3.051-8.944,6.152-14.545,7.396-5.262,1.168-10.151,2.194-15.505,2.619l-9.265.736c-3.786.302-2.617,2.068-2.416,5.399 .29,4.798 2.823,9.926 2.823,14.396 0,3.251-12.545,2.764-14.897,2.764-10.791,0-22.006,2.363-32.738,3.54-8.097.887-17.313-.103-25.39-1.401-9.122-1.468-25.504-.572-31.744-8.856-13.161,16.773-39.791,8.391-58.586,8.391-10.1,0-20.173-1.848-30.188-3.116-6.664-.843-8.706-.062-7.632-7.655 .636-4.496 1.966-10.219 2.41-15.364-10.042-.673-20.268-.663-30.118-2.788-5.416-1.168-10.84-1.966-15.931-4.156-6.95-2.992-3.306-7.773-1.539-14.022 .436-1.54-3.011-2.85-3.011-4.6 0-2.868-.297-4.832 1.098-7.305 .654-1.16 4.193-4.129 4.43-4.772 1.418-3.858-1.531-3.599-2.41-6.719-1.881-6.68 4.082-6.816 4.082-11.636 0-6.428-2.23-8.854 1.575-14.735 10.486-16.207 10.123-41.277 10.738-60.195 .767-23.531.974-47.059 1.261-70.601 .179-14.759 1.924-29.513 2.886-44.245 .549-8.414 11.257-9.015 17.753-11.269 8.128-2.82 16.248-5.573 24.444-8.185s16.117-5.836 24.127-8.99c8.275-3.259 8.625-10.582 10.4-18.396 1.653-7.28 9.696-4.414 15.821-3.845l28.871,2.674" fill-rule="evenodd"/>
 <path d="m161.63,6.119c-9.012.452-18.315,1.762-27.303.813-5.292-.559-25.803-6.188-28.794-2.032 7.627,6.247 15.049,12.296 23.244,17.745-6.603-3.361-12.847-5.87-18.015-11.167-2.607-2.671-7.075-5.001-5.537-8.699 .702-1.687 6.93.247 8.521.484 16.285,2.433 31.383,2.856 47.884,2.856" fill="#699" fill-rule="evenodd"/>
 <path d="m127.359,9.945h21.114c6.778,0 14.727-1.226 21.321.595 8.313,2.296-2.459,8.92-6.236,9.998-3.727,1.063-18.198,2.808-17.745,8.343-2.583-.177-8.149.585-10.318-.708-.946-.564-.681-2.982-1.602-3.726l-4.378-3.542c-6.137-4.962-12.259-9.935-18.483-14.786 5.401,1.304 10.853,2.965 16.327,3.826" fill="#333" fill-rule="evenodd"/>
 <path d="m128.549,10.172h30.458c3.807,0 13.046-.78 11.494,4.082-2.473,7.747-25.972,5.565-24.945,13.209-2.056-.236-6.661.427-8.391-.482-2.698-1.417-4.271-5.247-7.54-7.441-5.704-3.828-10.989-8.518-16.413-12.713 4.883,1.541 10.304,2.599 15.337,3.345" fill="#383838" fill-rule="evenodd"/>
 <path d="m129.513,10.427c5.382,0 40.754-2.434 39.061,3.827-2.086,7.712-23.591,4.078-23.244,11.764-2.21-.302-5.67.347-7.682-.482-1.878-.774-3.878-4.201-6.236-6.009-5.3-4.064-10.51-8.459-16.044-11.991 4.756.716 9.349,2.411 14.145,2.891" fill="#3d3d3d" fill-rule="evenodd"/>
 <path d="m130.704,10.909h26.816c2.947,0 10.609-.811 8.9,3.6-2.592,6.691-21.058,2.942-21.316,10.063-2.184-.18-4.408-.482-6.604-.482-2.061,0-3.198-3.19-5.287-4.677-5.125-3.648-10.218-8.228-15.689-11.14 4.363.412 8.928,1.66 13.18,2.636" fill="#424242" fill-rule="evenodd"/>
 <path d="m131.667,11.136h26.587c3.03,0 7.876.072 5.784,3.6-3.187,5.375-18.029,2.06-19.19,8.391-1.911-.228-4.056-.482-5.981-.482-1.898,0-2.308-1.988-3.855-3.345-4.507-3.95-10.248-7.435-15.335-10.545 3.607,1.148 8.212,2.206 11.99,2.381" fill="#474747" fill-rule="evenodd"/>
 <path d="m132.858,11.391c8.931,0 19.706-1.797 28.343.525 4.647,1.249-3.039,4.705-4.558,5.078-3.154.775-10.995,1.193-11.795,4.687-5.773-.377-5.7-1.102-9.783-3.737-4.349-2.806-8.725-5.573-13.007-8.48 3.58.668 7.187,1.534 10.8,1.927" fill="#4c4c4c" fill-rule="evenodd"/>
 <path d="m176.257,9.945c3.576,4.438-1.161,10.431-5.018,12.699-5.151,3.03-12.429,3.49-18.123,4.568-5.375,1.018-4.862,11.125-5.463,15.166-.878,5.905-7.803,8.884-12.159,11.929 2.95-4.03 9.985-7.145 10.856-12.32l2.118-12.582c.437-2.599 5.253-3.334 7.503-4.271 6.027-2.51 11.482-3.561 17.032-7.135 7.824-5.039-1.193-10.633-6.583-11.172 4.073.407 6.208,1.212 9.837,3.118" fill="#699" fill-rule="evenodd"/>
 <path d="m128.067,26.245c2.449,3.955.462,9.86 0,14.145-9.313-2.952-15.873-7.037-24.108-12.383-2.546-1.653-7.037-4.629-5.403-7.461 2.65-4.591 3.125-7.935 3.857-13.237 8.629,8.318 14.942,13.691 25.654,18.936" fill="#666" fill-rule="evenodd"/>
 <path d="m175.548,34.153c-5.758,4.279-18.672,14.282-26.136,11.055 4.074-6.264-1.039-14.53 8.505-15.478 5.212-.517 14.813-3.77 18.34-7.568 .188,3.754 1.577,8.699-.709,11.991" fill="#666" fill-rule="evenodd"/>
 <path d="m132.376,40.39c-3.145,5.632 2.541,5.056 2.41,9.609-2.588-.817-4.376-2.888-5.528-5.272 3.575-1.478 3.549-18.441.737-20.863 3.35,5.871 2.667,9.709 2.381,16.526" fill="#699" fill-rule="evenodd"/>
 <path d="m112.25,38.008 7.677,3.635c1.685.798 4.353.272 5.731,1.155 1.42.91 2.148,3.782 2.922,5.538 .732,1.662 3.571,2.965 5.015,4.043-5.574,3.145-9.061,6.139-12.671,11.354-4.146,5.99 8.284,9.055 8.421,12.311 .188,4.453.375,8.907.563,13.36 .046,1.094.087,2.174.087,3.27 0,2.857-2.335-.017-3.855,1.205-4.732,3.804-2.055,15.656 3.855,12.246 1.173,42.068 5.708,86.731-.874,128.416-1.685,10.669-1.607,20.337-1.424,31.186 .108,6.444.217,12.888.326,19.332 .072,4.275 2.143,7.828 3.162,11.952 .69,2.795-.267,3.249 1.532,5.612 2.042,2.685 4.085,5.368 6.127,8.053s-5.135,7.764-7.594,7.662l-39.046-1.609c-10.057-.414-19.921-2.01-29.898-3.361-2.117-.286-10.49-.568-10.49-1.997 0-1.886.633-13.878 1.559-13.878-.974,0 4.645-51.742 5.31-59.722 3.538-42.45 3.287-85.56-1.371-127.851-.605-5.492-.421-11.89-1.898-17.231-.562-2.032.318-4.705-2.41-3.6-2.35.952-.463,5.853-.482,7.909l-12.148-29.109c-2.745-6.576-5.085-15.068-9.168-20.781 13.318-4.887 29.38-7.754 41.831-14.245 3.431-1.789 6.482-2.946 10.185-4.096 2.175-.675 8.089-4.162 10.063-4.195 5.767-.096 14.773,10.228 18.963,13.436" fill="#666" fill-rule="evenodd"/>
 <path d="m125.658,48.071c.985,31.708 1.97,63.415 2.956,95.122 .771,24.827 1.055,49.039-2.219,73.709-4.659-19.76-10.082-39.358-12.613-59.504-2.505-19.941-5.048-39.933-7.059-59.919-.964-9.586-3.063-19.134-4.896-28.581-.979-5.042-1.987-10.082-2.884-15.139-.913-5.148.074-6.922-5.097-5.919l-41.708,8.096c-2.478.481-7.646,2.598-10.159,1.972-3.908-.974-9.351-8.097-12.473-10.8 16.723-5.062 34.724-8.736 50.712-15.799 2.976-1.315 9.849-6.103 13.067-5.773 3.058.314 9.232,7.76 11.604,9.754 6.304,5.297 14.227,7.804 20.769,12.781" fill="#666" fill-rule="evenodd"/>
 <path d="m125.658,48.071c.514,29.044 1.69,58.08 2.646,87.113 .878,26.681 3.956,55.436-1.909,81.719-5.64-39.878-11.958-79.657-18.309-119.429-1.075-6.732-6.718-54.005-12.876-52.628-9.316,2.084-18.708,3.866-28.045,5.876-4.39.944-8.763,1.947-13.181,2.749-5.401.98-8.427,2.309-13.195-.127-3.448-1.762-6.677-4.228-9.836-6.463 18.239-5.301 38.142-9.721 55.162-18.227 5.517-2.757 7.276-3.305 11.976.836 3.842,3.384 7.693,6.813 12.005,9.482 5.153,3.19 10.809,5.432 15.562,9.099" fill="#626262" fill-rule="evenodd"/>
 <path d="m125.658,48.071c.514,29.044 1.69,58.08 2.646,87.113 .878,26.681 3.956,55.436-1.909,81.719-2.279-21.047-4.481-42.104-6.704-63.157-2.154-20.41-6.182-39.801-9.971-59.931-1.46-7.758-6.381-53.64-15.738-51.471-9.948,2.306-19.914,4.536-29.861,6.842-5.287,1.226-10.579,2.424-15.865,3.649-3.604.835-8.375-2.233-11.663-4.041-1.34-.737-2.769-1.362-4.196-1.914 17.711-6.208 36.886-9.815 53.717-18.227 5.517-2.757 7.276-3.305 11.976.836 3.842,3.384 7.693,6.813 12.005,9.482 5.154,3.191 10.81,5.433 15.563,9.1" fill="#5e5e5e" fill-rule="evenodd"/>
 <path d="m125.658,48.071c.514,29.044 1.69,58.08 2.646,87.113 .878,26.681 3.956,55.436-1.909,81.719-1.849-21.453-3.434-42.928-5.24-64.387-1.697-20.163-1.309-40.897-7.674-60.181-3.038-9.202-4.888-18.334-6.985-27.71-1.295-5.788-3.695-22.229-9.609-25.186-2.801-1.401-9.534,1.773-12.556,2.5-4.905,1.18-9.816,2.337-14.721,3.522-5.029,1.216-10.03,2.494-15.015,3.881-5.478,1.524-7.648.976-12.842-.322-2.688-.672-5.198-1.791-7.909-2.396 17.315-5.492 35.994-9.837 52.271-17.972 5.517-2.757 7.276-3.305 11.976.836 3.842,3.384 7.693,6.813 12.005,9.482 5.153,3.192 10.809,5.434 15.562,9.101" fill="#5a5a5a" fill-rule="evenodd"/>
 <path d="m125.658,48.071c.514,29.044 1.69,58.08 2.646,87.113 .878,26.681 3.956,55.436-1.909,81.719-2.422-42.17-5.022-84.365-8.036-126.496-.337-4.711-.308-7.896-2.489-11.963-2.31-4.306-4.951-8.542-6.738-13.109-3.272-8.363-3.24-18.606-9.241-25.895-4.919-5.974-16.004-.404-22.512,1.608-4.719,1.459-9.486,2.628-14.263,3.878-4.204,1.1-9.846,4.03-14.177,3.514-4.595-.548-9.097-1.403-13.677-2.041 16.877-5.325 35.002-9.823 50.854-17.745 5.517-2.757 7.276-3.305 11.976.836 3.842,3.384 7.693,6.813 12.005,9.482 5.152,3.19 10.808,5.432 15.561,9.099" fill="#565656" fill-rule="evenodd"/>
 <path d="m125.658,48.071c.985,31.708 1.97,63.415 2.956,95.122 .771,24.827 1.055,49.039-2.219,73.709-2.426-48.172-4.851-96.345-7.277-144.517-.225-4.476 1.495-12.028-3.282-13.883-9.003-3.495-7.859-10.669-11.798-18.014-4.122-7.686-8.517-7.26-15.925-5.071l-36.19,10.694c-4.324,1.278-10.677.032-15.216.032 15.591-5.19 31.656-9.598 46.695-16.242 1.927-.851 8.78-5.293 10.533-3.82l12.099,10.169c5.873,4.937 13.498,7.161 19.624,11.821" fill="#525252" fill-rule="evenodd"/>
 <path d="m225.664,39.681c7.129,1.673 15.295,4.986 22.536,5.528l-12.246,35.49c-.218-2.425.503-7.774-1.899-8.646 0,42.509.103,84.632 3.149,127.058 1.604,22.352 3.26,44.61 5.643,66.89 1.088,10.164 1.753,19.718 1.753,29.931v17.25c0,.738-14.936,2.658-16.534,2.926-21.941,3.674-42.961,1.186-64.849-1.728-4.946-.658-8.534-1.326-13.156-3.183-4.899-1.968-8.527-8.364-11.954-12.282-5.439-6.218-4.131-22.421-5.601-30.276-1.9-10.157 1.119-21.397 2.559-31.496 1.493-10.473 2.949-20.951 4.401-31.431 1.313-9.473-1.562-19.867-1.562-29.442v-35.484c0-10.696-1.249-21.453-1.395-32.179-.193-14.115 1.332-29.342-1.371-43.245-.271-1.394-2.348-7.713-.87-8.121 3.947-1.091 6.118-2.911 9.408-5.437 2.064-1.585 3.038-3.477 5.734-3.477 3.818,0 5.687-.08 9.109-1.558 5.292-2.285 11.005-4.365 15.81-7.57 2.982-1.989 5.627-4.834 8.349-7.172 1.411-1.212-2.435-3.475-2.821-5.045 14.672,6.061 30.406,8.916 45.807,12.699" fill="#666" fill-rule="evenodd"/>
 <path d="m142.21 43.989c-1.076 2.037-2.921 3.401-5.046 4.337-1.101-3.838-3.117-5.387-2.292-10.37 1.347-8.147 2.09-6.615 10.229-6.185-0.963 4.073-1.927 8.146-2.891 12.218" fill="#333" fill-rule="evenodd"/>
 <path d="m256.11 115.93c4.583 35.478 7.106 71.928 15.817 106.72 4.661 18.618 10.813 36.976 16.201 55.398 2.833 9.688-35.906 12.806-41.146 13.455 0-19.623-3.058-38.676-4.588-58.226-1.797-22.964-3.464-45.915-4.956-68.9-1.219-18.781-1.111-38-0.709-56.813 0.213-9.995-0.166-18.937 2.801-28.43 3.392-10.851 6.157-22.171 10.344-32.743 2.99 23.292 4.98 46.084 6.236 69.535" fill="#666" fill-rule="evenodd"/>
 <path d="m42.234,81.18 6.572,15.811c1.166,2.803 4.892,6.217 5.077,8.295 1.179,13.238 2.359,26.477 3.539,39.715 1.964,22.043.121,44.803-.034,66.921-.133,18.945-1.784,37.992-4.025,56.799l-2.187,18.351c-.461,3.871-7.256,2.11-9.481,1.901-11.844-1.107-23.161-3.032-34.86-5.243-4.726-.894 1.265-18.508 1.898-23.7 1.375-11.272 2.622-22.057 5.439-33.035 4.231-16.489 5.692-35.411 7.067-52.57 1.85-23.076 1.608-46.146 1.831-69.296 .081-8.357-.149-16.758.567-25.089 .422-4.907.839-9.802 1.405-14.694 .488-4.219-.387-14.103 3.048-17.019 4.772,10.928 9.49,21.874 14.144,32.853" fill="#666" fill-rule="evenodd"/>
 <path d="m134.05 101.79v23.272c-0.547-22.727-0.785-45.092-3.571-67.634 2.872 14.768 3.014 29.319 3.571 44.362" fill="#699" fill-rule="evenodd"/>
 <path d="m126.14,69.671c-2.796-2.519-2.941-8.584 1.219-9.836l1.417,10.29c-.846-.146-1.838-.148-2.636-.454" fill="#fc0" fill-rule="evenodd"/>
 <path d="m151.085,66.553c-4.571,1.032-6.043,1.884-9.565,5.051-3.271,2.943-5.552.366-4.354-3.86 .979-3.452 5.104-2.845 8.378-5.027 4.803-3.202 5.159.02 5.541,3.836" fill-rule="evenodd"/>
 <path d="m139.576,70.125c-1.463.595.196-2.598 1.154-3.094 2.593-1.346 4.928-3.193 7.945-2.887l-9.099,5.981" fill="#699" fill-rule="evenodd"/>
 <path d="m151.085,98.188c-.836,2.11-1.961,1.278-2.41-1.19-3.562,2.677-5.167,4.264-7.355,8.121-2.293,4.042-1.744-4.644-1.744-6.047 0-3.789 2.186-5.862 6.329-6.508 4.962-.774 4.241.904 5.18,5.624" fill-rule="evenodd"/>
 <path d="m142.694,98.925c-.413.008-.521.625-1.19.482-.088-3.232 4.04-5.414 7.171-4.819l-5.981,4.337" fill="#699" fill-rule="evenodd"/>
 <path d="m130.48 103.01c-3.459 0.244-5.972-2.729-3.6-6.009 3.623-5.011 3.468 4.036 3.6 6.009" fill="#fc0" fill-rule="evenodd"/>
 <path d="m219.428,99.407c4.597.095 4.252,9.578-1.943,8.32-7.156-1.453-13.723-1.782-21.047-2.009-6.468-.2-12.948-.075-19.418-.075-9.877,0 1.103,7.682-5.071,10.771-8.541,4.275-4.478-11.32-3.967-13.916 .294-1.494.129-4.974 1.769-5.077 4.368-.275 8.737-.549 13.105-.824 12.04-.757 24.549,1.719 36.572,2.81" fill-rule="evenodd"/>
 <path d="m215.828,102.525c2.586-1.526 4.114-.535 3.6,2.381l-30.391-2.081c-4.416-.302-19.775,2.544-19.017-3.418 15.548.392 30.411,1.027 45.808,3.118" fill="#699" fill-rule="evenodd"/>
 <path d="m171.239,113.552c-3.82,2.108-3.288-6.497-1.701-9.127 .258,3.137.964,6.073 1.701,9.127" fill="#699" fill-rule="evenodd"/>
 <path d="m149.895,127.47c4.194-.909 7.789,4.958 4.69,5.69-3.355.793-8.834,7.984-12.453,4.85-4.688-4.06-4.127-5.929-2.68-11.743 1.652-6.635 8.223-1.017 10.443,1.203" fill-rule="evenodd"/>
 <path d="m148.68 131.78c1.188 5.828-9.402 3.706-8.2-1.27 2.046-8.463 5.332-4.267 8.2 1.27" fill="#dfb406" fill-rule="evenodd"/>
 <path d="m148.19 131.52c0.881 5.126-7.246 3.375-7.171-1.417 0.121-7.798 5.495-2.368 7.171 1.417" fill="#e5bc18" fill-rule="evenodd"/>
 <path d="m147.74,131.523c.589,4.448-6.162,2.554-6.491-.936-.694-7.357 4.97-2.528 6.491.936" fill="#ebc42a" fill-rule="evenodd"/>
 <path d="m147.258,131.296c.211,3.752-4.946,2.25-5.527-.482-1.175-5.514 4.199-3.454 5.527.482" fill="#f0cc3b" fill-rule="evenodd"/>
 <path d="m146.776,131.042c-.026,3.511-4.234,1.462-4.337-.936-.195-4.564 3.456-1.812 4.337.936" fill="#f6d44d" fill-rule="evenodd"/>
 <path d="m146.294,130.814c-.475,2.556-2.57,1.782-3.6-.227-1.297-2.529 2.46-2.518 3.6.227" fill="#fbdc5e" fill-rule="evenodd"/>
 <path d="m153.013,130.106c-.478,2.815-1.214,1.611-1.928-.737 1.022-.232 1.223.214 1.928.737" fill="#9cc" fill-rule="evenodd"/>
 <path d="m136.685,198.676c-.257,7.846.239,16.059-1.086,23.805-1.62,9.474-5.423,20.568-5.114,30.16 .282,8.793.019,17.697 1.452,26.387 1.257,7.621 1.227,21.882 8.348,27.109-10.496-13.357-10.381-25.521-10.743-41.985-.316-14.403 1.171-28.219 3.443-42.444 4.709-29.477-.319-59.561 1.8-89.22 .685,22.062 1.338,44.123 1.9,66.188" fill="#699" fill-rule="evenodd"/>
 <path d="m153.013,161.741c1.743-.039 3.6.787 3.6,2.634 0,4.464-.963,1.172-3.6,3.376-2.208,1.846-.895,3.035-4.033,3.288-1.398.112-4.952,1.006-6.025-.187-3.689-4.103-5.712-7.969-1.426-12.67 3.257-3.572 9.075,1.434 11.484,3.559" fill-rule="evenodd"/>
 <path d="m150.6 165.82c-0.274 5.622-8.39 3.266-8.39-1.936-1e-3 -8.679 6.521-2.707 8.39 1.936" fill="#dfb406" fill-rule="evenodd"/>
 <path d="m150.12 165.6c-0.317 4.629-7.427 2.845-7.427-2.041 0-6.826 6.016-1.976 7.427 2.041" fill="#e5bc18" fill-rule="evenodd"/>
 <path d="m149.412,165.34c-.193,3.927-6.708,2.489-6.236-1.899 .581-5.387 5.43-1.566 6.236,1.899" fill="#ebc42a" fill-rule="evenodd"/>
 <path d="m148.931,165.114c-.907,3.323-6.032,1.8-5.046-1.927 .991-3.745 4.358-.92 5.046,1.927" fill="#f0cc3b" fill-rule="evenodd"/>
 <path d="m148.19 164.86c-0.773 2.436-4 1.513-3.827-1.191 0.217-3.372 3.525-1.1 3.827 1.191" fill="#f6d44d" fill-rule="evenodd"/>
 <path d="m147.74 164.63c-3.856 3.31-2.498-5.557 0 0" fill="#fbdc5e" fill-rule="evenodd"/>
 <path d="m154.2 165.34c-1.256-1.256-1.256-1.256 0 0" fill="#9cc" fill-rule="evenodd"/>
 <path d="m153.013,195.076c1.194,1.339 4.31.552 4.79,1.22 2.091,2.906-.283,5.017-2.666,5.017-1.372,0-2.467,2.548-4.239,3.258-3.678,1.475-3.938,1.542-7.53-.065-11.179-5.003 6.747-21.506 9.645-9.43" fill-rule="evenodd"/>
 <path d="m151.793,198.194c.502,6.224-7.958,6.033-9.099.482-.389-1.896.155-5.482 2.561-5.197 3.937.468 4.189,1.469 6.538,4.715" fill="#dfb406" fill-rule="evenodd"/>
 <path d="m151.08 198.19c0.799 5.25-5.877 4.97-7.427 1.219-2.746-6.649 5.019-6.16 7.427-1.219" fill="#e5bc18" fill-rule="evenodd"/>
 <path d="m150.6 198.19c0.166 4.049-4.688 4.533-6.236 1.446-2.773-5.527 3.855-6.031 6.236-1.446" fill="#ebc42a" fill-rule="evenodd"/>
 <path d="m149.895,198.194c.202,3.596-3.927,3.505-5.046.964-1.936-4.398 3.631-4.851 5.046-.964" fill="#f0cc3b" fill-rule="evenodd"/>
 <path d="m149.412,198.194c-.458,2.666-3.42,2.838-4.082.482-.978-3.481 2.83-2.966 4.082-.482" fill="#f6d44d" fill-rule="evenodd"/>
 <path d="m148.68 198.19c-3.072 4.951-3.599-4.967 0 0" fill="#fbdc5e" fill-rule="evenodd"/>
 <path d="m156.612,198.194c-.478.946.17,1.745-1.701,1.219 .226-2.743.612-1.425 1.701-1.219" fill="#699" fill-rule="evenodd"/>
 <path d="m149.9 230.59c4.965-2.84 7.646 2.873 1.381 4.604-3.917 1.082-6.634 7.696-11.699 4.495-7.043-4.449 1.331-22.577 10.318-9.099" fill-rule="evenodd"/>
 <path d="m147 230.59c0 1.432 0.74 4.902-0.617 5.581-2.014 1.007-5.196 1.845-6.81-0.309-3.505-4.677 3.91-12.475 7.427-5.272" fill="#dfb406" fill-rule="evenodd"/>
 <path d="m146.29 230.82c0.357 4.709-4.155 8.933-6.236 3.373-1.854-4.953 4.55-8.592 6.236-3.373" fill="#e5bc18" fill-rule="evenodd"/>
 <path d="m145.81 231.08c0.974 5.204-5.272 6.557-5.272 2.509-1e-3 -3.691 3.602-7.334 5.272-2.509" fill="#ebc42a" fill-rule="evenodd"/>
 <path d="m145.33 231.3c0.964 3.744-2.933 5.254-4.309 2.636-1.871-3.56 2.862-6.048 4.309-2.636" fill="#f0cc3b" fill-rule="evenodd"/>
 <path d="m144.849,231.53c.76,3.299-2.609,3.829-3.345,1.445-.995-3.225 2.429-3.196 3.345-1.445" fill="#f6d44d" fill-rule="evenodd"/>
 <path d="m144.37 231.78c-1.06 6.225-3.838-3.343 0 0" fill="#fbdc5e" fill-rule="evenodd"/>
 <path d="m153.013,232.975h-1.928c.69-.871 1.078-.893 1.928-1.19v1.19" fill="#9cc" fill-rule="evenodd"/>
 <path d="m279.83 238.5c-0.996-1.254-1.573-2.121-1.19-3.854 1.719 0.959 2.202 2.228 1.19 3.854" fill="#f6d44d" fill-rule="evenodd"/>
 <path d="m284.17 252.42-2.409-6.01c2.181 1.424 3.562 3.443 2.409 6.01" fill="#f6d44d" fill-rule="evenodd"/>
 <path d="m4.817,250.72c.323-1.29.796-2.558 1.191-3.827v5.046l-1.191-1.219" fill="#f6d44d" fill-rule="evenodd"/>
 <path d="m289.67 271.36-3.118-10.317c3.206 4.265 3.578 5.039 3.118 10.317" fill="#f6d44d" fill-rule="evenodd"/>
 <path d="m149.895,267.756c2.753-.364 3.118.539 3.118,2.791 0,1.931-3.485,2.117-4.819,3.219-1.53,1.263-.731,3.535-3.572,4.309-1.23.335-6.076-1.478-6.501-2.677-1.702-4.791-2.291-8.291.598-12.606 2.852-4.262 9.559,3.262 11.176,4.964" fill-rule="evenodd"/>
 <path d="m3.626,264.638 1.19-1.928-1.672,8.164c.161-2.079.322-4.157.482-6.236" fill="#f6d44d" fill-rule="evenodd"/>
 <path d="m147 268.95c0.201 6.632-5.853 8.438-7.466 1.695-1.019-4.26-1.941-4.469 2.077-6.224 2.123-0.927 4.762 2.882 5.389 4.529" fill="#dfb406" fill-rule="evenodd"/>
 <path d="m146.294,268.947c.442,6.286-5.256,7.21-6.492.964-1.226-6.201 4.61-5.66 6.492-.964" fill="#e5bc18" fill-rule="evenodd"/>
 <path d="m145.813,269.202c.157,5.167-4.717,5.912-5.528.709-.796-5.109 3.802-5.006 5.528-.709" fill="#ebc42a" fill-rule="evenodd"/>
 <path d="m145.104,269.202c.521,4.042-3.513,5.163-4.337.709-.749-4.049 3.046-4.154 4.337-.709" fill="#f0cc3b" fill-rule="evenodd"/>
 <path d="m144.62 269.43c-0.074 2.622-2.245 4.019-3.373 1.219-1.524-3.782 2.254-3.996 3.373-1.219" fill="#f6d44d" fill-rule="evenodd"/>
 <path d="m143.88 269.43c-0.927 6.273-4.128-4.83 0 0" fill="#fbdc5e" fill-rule="evenodd"/>
 <path d="m281.054,290.292c-6.157,1.636-12.31,3.813-18.667,4.372-3.33.293-6.578.672-9.884,1.169-1.341.202-7.937-.377-4.688-.841 7.62-1.089 15.418-1.771 22.938-3.428 6.27-1.383 12.038-7.185 18.209-7.509l-7.908,6.237" fill="#699" fill-rule="evenodd"/>
 <path d="m41.016,292.702c2.801,0 8.874-1.236 9.609,1.19-8.351-.305-16.671-.257-24.919-1.615-4.676-.771-21.689-1.717-22.561-7.002 10.537,6.145 25.901,5.64 37.871,7.427" fill="#699" fill-rule="evenodd"/>
 <path d="m152.275,316.427c.677.601 1.287,1.287 1.928,1.928-3.172-1.586-7.959-2.572-8.391-6.719 2.071,1.658 4.203,3.66 6.463,4.791" fill="#699" fill-rule="evenodd"/>
 <path d="m134.048,321.247c-13.846,2.44-26.75.316-40.753-.05-7.725-.202-15.264-.24-22.898-1.396-4.267-.646-20.458-.674-20.509-3.826 15.104.973 30.566,4.54 45.583,4.816 8.339.154 16.689.456 25.03.456 10.196,0 14.888.037 21.711-7.909-2.416,4.598-3.523,5.481-8.164,7.909" fill="#699" fill-rule="evenodd"/>
 <path d="m190.175,320.764c15.899-.315 39.791,3.085 54.425-4.337 3.725,4.073-5.541,3.118-7.435,3.118-3.635,0-6.971.256-10.582.683-8.259.978-16.385,2.209-24.697,2.209-8.192,0-16.096.153-24.198-.934-5.058-.679-20.372.385-22.776-5.529 11.729,2.427 23.339,3.581 35.263,4.79" fill="#699" fill-rule="evenodd"/>
 <path d="m27.607,49.744c-4.628,42.858-5.272,86.344-5.272,129.476 0,8.67-3.121,18.688-4.641,27.282-1.825,10.315-3.759,20.617-5.456,30.954l-6.377,38.864c-.313,1.91-1.121,7.75 1.672,8.052 6.641.717 13.281,1.435 19.922,2.151l12.852,1.388c-2.045-8.575-4.09-17.15-6.135-25.726-1.889-7.922.236-18.059.509-26.166 .251-7.436 8.22-13.168 12.906-18.62 3.659-4.257 3.748-3.702.854-8.715-1.892-3.277-6.001-5.031-9.098-7.117l7.2-1.672c-2.345-7.643-9.409-10.985-10.8-18.964 8.073-1.148 11.143-1.03 16.764-6.854 2.398-2.485-4.78-11.103-6.597-14.633-3.22-6.254-5.672-11.192-7.196-17.995-1.826-8.153-1.39-11.423.66-19.607 1.606-6.414 4.417-12.435 6.87-18.569 1.818-4.544-.3-7.115-2.117-11.713l-16.52-41.816" fill="#666" fill-rule="evenodd"/>
 <path d="m27.607,49.744c-3.915,35.832-5.272,72.29-5.272,108.325 0,34.708-8.069,69.004-14.061,103.188-.892,5.088-5.743,18.016-1.53,22.316 1.994,2.035 10.831,1.658 14.175,1.869 5.21.328 10.629.681 15.787,1.504-1.806-9.588-6.427-20.515-5.813-30.247 .494-7.83-1.667-22.618 3.677-28.592 2.803-3.133 5.582-6.383 8.187-9.683 2.774-3.515 3.872-3.596 2.595-7.504-1.269-3.883-5.123-6.984-7.909-9.836 .82-.399 3.385-1.134 3.827-1.928 1.257-2.262-.654-5.376-2.409-8.391-2.092-3.593-3.194-6.328-4.791-10.063 6.956-1.545 11.542-4.005 17.036-8.391-11.4-16.41-18.603-34.74-13.918-54.936 1.194-5.147 3.748-9.508 5.641-14.386 1.088-2.803 2.566-4.278 1.43-7.147-1.297-3.272-2.5-6.565-3.697-9.875-4.362-12.057-8.627-24.151-12.955-36.223" fill="#616161" fill-rule="evenodd"/>
 <path d="m27.607,49.744c-3.915,35.832-5.272,72.29-5.272,108.325 0,34.708-8.069,69.004-14.061,103.188-.872,4.974-5.777,18.162-1.53,22.316 3.252,3.181 21.149,2.334 26.362,2.183-2.916-13.54-5.701-25.771-4.725-39.569 .431-6.091-.017-13.857 3.052-18.966 1.854-3.086 12.879-11.906 10.432-15.109-1.845-2.413-3.025-5.291-4.663-7.795-2.072-3.165-.299-3.095-.015-5.641 .669-5.979-1.815-12.537-4.791-18.227 5.714-2.444 10.662-5.738 16.073-8.618-2.598-3.051-5.25-6.134-8.051-9-2.623-2.685-3.358-11.488-4.195-15.236-2.669-11.964-3.418-22.335-.964-34.299 1.025-5 3.198-8.646 5.173-13.309 2.445-5.771.433-9.428-1.573-15.463-3.843-11.565-7.431-23.205-11.252-34.78" fill="#5c5c5c" fill-rule="evenodd"/>
 <path d="m27.607,49.744c-3.915,35.832-5.272,72.29-5.272,108.325 0,34.708-8.069,69.004-14.061,103.188-.877,5.003-5.769,18.124-1.53,22.316 2.917,2.886 18.301,1.219 23.017,1.219-1.507-8.01-3.032-16.018-4.607-24.011-1.575-7.996.283-16.865 1.364-24.945 .561-4.188.117-7.303 3.002-10.643 2.405-2.783 4.711-5.825 6.945-8.759 3.765-4.945-2.313-6.588-3.359-11.75-1.247-6.155 3.666-15.163.014-20.749-2.503-3.83-1.748-4.499 2.041-7.072 3.356-2.281 7.018-3.77 10.672-5.514-2.945-3.289-6.323-6.154-9.482-9.241-2.9-2.834-2.161-13.249-2.636-17.263-1.341-11.331-2.286-20.918-1.205-32.258 .503-5.278 1.761-8.991 4.45-13.436 3.363-5.559 2.506-8.059.589-14.364-3.531-11.614-6.424-23.421-9.942-35.043" fill="#575757" fill-rule="evenodd"/>
 <path d="m27.607,49.744c-3.915,35.832-5.272,72.29-5.272,108.325 0,34.708-8.069,69.004-14.061,103.188-.91,5.189-4.889,15.892-2.267,20.644 2.669,4.837 14.538,1.755 20.154,1.928-1.339-12.229-5.775-23.864-4.309-36.227 .686-5.782 1.014-12.092 2.381-17.745 1.342-5.55 4.962-7.955 7.909-12.699 2.793-4.498.895-5.047-1.786-9.481-2.411-3.987-.664-2.459.113-6.109 1.131-5.314-1.722-10.667 2.891-15.845-2.479-3.984-4.702-4.502-1.927-8.618 2.705-4.014 7.507-4.638 11.764-6.491-3.081-2.536-10.068-6.52-11.764-10.063-2.123-4.435.194-14.1-.293-19.137-1.019-10.539-1.982-20.247-.964-30.778 .429-4.441.469-9.805 3.298-13.397 3.536-4.49 4.261-5.124 2.877-11.107-2.807-12.153-5.996-24.223-8.744-36.388" fill="#525252" fill-rule="evenodd"/>
 <path d="m27.607,49.744c-4.597,42.569-5.272,85.763-5.272,128.604 0,8.068-2.627,16.771-4.042,24.767-1.955,11.053-4.044,22.091-5.862,33.166l-6.176,37.638c-.399,2.432-2.137,8.507.716,10.394 2.438,1.612 12.725-1.161 15.846-1.446l-2.687-15.716c-.674-3.941-2.975-9.973-2.331-13.963 1.396-8.654.705-23.033 6.021-30.091 3.822-5.073 7.933-6.971 4.206-12.371-4.803-6.959-4.957-6.148 1.604-11.501 .2-.163-3.976-5.34-3.469-7.719 .546-2.562 4.322-4.902 6.463-6.01-4.137-4.931-5.396-5.017-3.065-10.957 1.379-3.515 7.76-3.511 11.229-4.378l-12.906-9.747c-2.418-1.827.535-13.427.833-16.396 .959-9.546-2.417-19.192-1.393-28.686l2.161-20.042c.525-4.865 6.221-3.177 5.072-9.189l-6.948-36.357" fill="#4c4c4c" fill-rule="evenodd"/>
 <path d="m46.543,76.843 6.25,14.312c1.481,3.391 5.452,9.058 5.488,12.817 .106,11.012.213,22.023.319,33.034 .192,19.861.446,39.708.261,59.567-.206,22.086.95,44.628-.934,66.645l-3.624,42.359c-.286,3.338-1.897,6.143 1.514,7.158 5.133,1.527 10.454,3.946 15.845,3.946 8.932,0 11.072,1.334 15.429-6.487 3.053-5.481 5.98-11.014 8.779-16.629 5.46-10.957 10.897-22.399 12.044-34.682 2.255-24.133 1.963-50.452-.454-74.58-6.558,1.275-13.115,2.552-19.672,3.827l-3.72-30.111-2.571-20.814c-.247-2.001.052-5.859-1.074-7.613-11.295-17.582-22.587-35.166-33.88-52.749" fill="#666" fill-rule="evenodd"/>
 <path d="m49.661,83.816c1.601,4.724 3.655,9.271 5.527,13.89 1.554,3.834 5.5,10.113 5.5,14.169v32.334c0,20.31-.127,40.521-.595,60.83-.465,20.188-.702,40.691-2.523,60.789-.897,9.903-1.684,19.831-2.395,29.75-.355,4.941-.952,9.855-1.307,14.799-.221,3.077 7.496,3.406 10.42,4.137 4.644,1.159 9.542,1.092 14.272.368 2.865-.438 4.149.424 5.446-2.473 1.427-3.19 2.752-6.407 4.067-9.646 4.621-11.378 9.49-22.955 12.336-34.932 5.921-24.915 4.964-53.473 4.867-78.991-6.858,1.871-13.5,4.448-20.381,6.235-1.761-19.644-2.996-39.347-4.826-58.983-.879-9.44-9.281-19.185-14.556-27.059-5.5-8.212-10.753-16.745-15.852-25.217" fill="#626262" fill-rule="evenodd"/>
 <path d="m52.524,90.761c1.967,4.633 3.535,9.436 5.301,14.145 1.48,3.948 5.606,10.429 5.487,14.584-.296,10.343-.469,20.739-.469,31.084 0,20.995-1.025,41.767-2.052,62.723-.994,20.281-2.375,40.52-3.828,60.765-.733,10.215-1.548,20.485-2.664,30.667-.698,6.366-1.464,6.687 4.235,8.112 3.79.948 8.401,1.555 12.217,1.432 2.31-.074 10.043-.255 11.764-1.673 2.731-2.252 3.481-11.792 4.448-15.24 3.2-11.41 6.235-22.884 8.492-34.521 4.431-22.849 5.162-46.551 7.667-69.661-6.889,3.11-13.917,6.479-21.09,8.872-1.119-20.066-1.973-40.142-3.091-60.211-.32-5.733-.398-8.91-3.303-13.82-2.31-3.906-4.692-7.848-7.138-11.67-5.419-8.473-10.557-17.118-15.976-25.588" fill="#5e5e5e" fill-rule="evenodd"/>
 <path d="m55.642,97.706c3.138,9.617 6.853,19.038 9.901,28.679 2.387,7.552-.403,19.741-.546,27.702-.35,19.393-1.49,38.513-2.978,57.85-1.562,20.299-3.51,40.576-4.966,60.881-.724,10.092-1.475,20.249-2.578,30.308-.265,2.414-.433,4.828-.606,7.252-.213,2.971 1.451,1.477 3.702,1.996 3.368.778 9.107,1.441 12.472.836 2.863-.515 8.082-.747 10.545-2.281 3.146-1.96 2.962-8.275 3.6-12.473 1.711-11.269 3.35-22.547 5.046-33.817 3.333-22.146 6.168-45.2 11.735-66.897-7.43,3.522-14.418,7.942-21.827,11.509-.494-20.354-.812-40.707-1.304-61.059-.09-3.712 1.188-11.566-.666-14.503-2.636-4.176-5.094-8.441-7.564-12.717-4.523-7.829-9.443-15.435-13.966-23.266" fill="#5a5a5a" fill-rule="evenodd"/>
 <path d="m58.76 104.91c2.701 7.677 4.954 15.516 7.509 23.242 2.742 8.292 1.479 15.985 1.111 24.637-0.754 17.748-1.836 35.297-3.574 52.978-3.483 35.445-7.514 70.827-10.063 106.36 7.252 0 20.406 2.041 26.617-2.863 3.213-2.536 1.603-10.386 1.731-14.712 0.212-7.148 0.421-14.287 0.809-21.429 1.333-24.537 8.961-47.407 15.686-70.839-7.458 4.557-14.661 9.686-22.309 13.918v-75.543c0-5.39-1.679-8.068-4.309-12.728-4.347-7.705-8.843-15.319-13.208-23.017" fill="#565656" fill-rule="evenodd"/>
 <path d="m61.878,111.879 7.584,26.025c2.047,7.024.646,14.053.161,21.342-1.036,15.551-2.537,30.722-4.506,46.18-4.534,35.588-8.316,70.946-11.374,106.692 4.788-.296 11.456.571 15.933-1.091l10.604-3.937c2.104-.781.87-3.476.637-5.554-1.272-11.371-2.711-22.542-2.711-34.021 0-23.149 11.108-39.595 18.198-60.676l-23.017,16.299 1.428-63.769c.148-6.628 2.064-15.817.5-22.319-2.018-8.384-9.351-17.517-13.437-25.171" fill="#525252" fill-rule="evenodd"/>
 <path d="m126.88 58.39c-2.819 5.755-3.57 9.334 1.672 13.663-7.708-1.102-8.071-10.157-1.672-13.663" fill="#191919" fill-rule="evenodd"/>
 <path d="m129.258,94.588c-6.865,3.622-1.484,6.221.255,10.8-5.965.534-8.881-11.847-.255-10.8" fill="#191919" fill-rule="evenodd"/>
 <path d="m220.846,137.051c-5.173,20.807-10.099,41.684-15.817,62.348-1.082,3.91-1.373,9.738-4.533,12.508-3.652,3.199-11.86,7.845-13.921,12.196-.821,1.733.149,6.104.194,7.96 .171,6.98.341,13.961.512,20.94 .352,14.414.704,28.828 1.057,43.242 .015.615-.258,6.66.308,6.812l17.807,4.759c2.949.788 9.667,4.063 12.7,3.286 6.234-1.595 12.469-3.19 18.703-4.785 3.582-.916.965-10.699.741-13.834-2.281-31.897-4.563-63.795-6.844-95.692-.993-13.885-1.986-27.77-2.979-41.654-.688-9.607-1.075-10.557-7.928-18.086" fill="#666" fill-rule="evenodd"/>
 <path d="m221.101,148.814c-4.55,18.831-8.993,37.723-14.209,56.378-.899,3.217-1.304,8.172-3.054,11.001-2.182,3.527-8.186,7.062-11.382,9.822-5.761,4.978-2.254,22.591-2.041,30.015 .323,11.223.627,22.446.905,33.67 .061,2.442.045,4.885.045,7.328 0,4.608.004,2.604 3.6,4.29 4.393,2.061 10.147,2.837 14.844,4.104 5.205,1.404 8.949,2.338 14.155,1.196 1.448-.317 14.172-3.17 14.129-3.836-.737-11.45-1.543-22.883-2.45-34.32-1.705-21.48-2.862-43.007-4.565-64.488-.859-10.836-1.792-21.671-2.509-32.518-.335-5.07.405-11.877-1.969-16.18-1.295-2.345-3.843-4.322-5.499-6.462" fill="#626262" fill-rule="evenodd"/>
 <path d="m221.101,160.805c-4.06,17.979-8.4,36.004-13.437,53.717-1.497,5.266-2.597,7.643-6.718,11.253-3.564,3.123-7.964,5.247-7.809,10.176 .309,9.8.348,19.598.637,29.396 .29,9.806.348,19.61.62,29.414 .139,5.011 5.196,4.433 9.67,5.622 4.432,1.179 8.807,2.511 13.281,3.528 4.282.974 8.938-.969 13.109-2.111 1.071-.293 5.65-.848 6.236-1.672 .931-1.31-.563-7.648-.68-9.23-.766-10.391-1.51-20.782-2.257-31.175-1.393-19.354-2.796-38.709-4.188-58.064-.644-8.947-1.287-17.894-1.946-26.84-.518-7.07-1.733-9.155-6.518-14.014" fill="#5e5e5e" fill-rule="evenodd"/>
 <path d="m221.327,172.795c-1.91,9.783-5.13,19.273-7.095,29.039-1.571,7.808-3.129,20.248-8.014,26.577-2.27,2.94-6.528,4.323-8.617,7.455-2.504,3.754-1.129,10.418-.98,15.268 .301,9.853.578,19.72.753,29.576 .044,2.484-1.319,12.777.228,14.627 1.502,1.796 9.677,2.451 12.023,3.054 7.095,1.825 17.228,4.483 23.948-.645 4.056-3.094.025-23.751-.459-29.702-.813-9.994-1.227-20.023-1.951-30.023-.979-13.524-1.937-27.055-3.036-40.57-.798-9.809.566-17.701-6.8-24.656" fill="#5a5a5a" fill-rule="evenodd"/>
 <path d="m221.582,184.787c-2.034,8.536-4.182,17.029-6.155,25.578-1.591,6.895-2.865,17.838-7.28,23.348-1.959,2.445-5.742,3.829-7.427,6.463-2.361,3.692-1.116,10.063-.938,14.59 .422,10.698.287,21.424.708,32.119 .169,4.273-.514,4.651 2.639,6.525 1.511.898 4.473,1.059 6.222,1.573 4.194,1.234 8.729,2.818 12.94,2.509 2.22-.163 8.334-1.235 10.063-2.636 3.06-2.479 1.046-9.207.714-13.743-1.56-21.333-3.124-42.664-4.684-63.997-.794-10.87 1.307-24.491-6.802-32.329" fill="#565656" fill-rule="evenodd"/>
 <path d="m221.81,196.522-6.907,28.613c-1.021,4.229-2.37,8.402-3.554,12.589-.787,2.783-8.771,5.404-8.698,8.092 .298,11.107.597,22.216.895,33.323 .054,2.024-.987,9.255.293,10.926 1.766,2.304 12.1,3.246 15,4.024 4.048,1.086 8.578-1.202 12.548-2.255 2.051-.544 1.064-2.461.919-4.424l-2.481-33.396c-.979-13.174-1.957-26.347-2.937-39.521-.591-7.946.182-12.088-5.078-17.971" fill="#525252" fill-rule="evenodd"/>
 <path d="m151.566,48.071c4.436-.297 8.872-.595 13.308-.893 3.575-.24 7.806-4.733 10.681-6.721 3.294-2.278 4.983-5.754 7.193-9.081 .585-.88 4.697.734 5.6.951l57.442,13.816-6.673,16c-1.965,4.712-5.658,2.963-10.633,2.963h-32.83c-4.765,0-9.236,1.713-13.827,2.943-4.011,1.075-6.947-3.466-10.14-5.965-5.186-4.059-13.137-13.763-20.121-14.013" fill="#666" fill-rule="evenodd"/>
 <path d="m155.648,48.553c7.254-.711 11.724-2.23 17.745-6.463 2.876-2.021 4.555-3.721 6.59-6.491 2.976-4.049 2.257-4.743 7.787-3.396 19.328,4.71 38.707,9.165 58.02,13.94-1.921,4.703-4.902,8.938-6.945,13.563-2.115,4.79-7.205,2.856-11.99,2.509-8.549-.621-17.155-.724-25.687-1.483-4.341-.387-7.86-.378-11.958,1.016-3.457,1.176-7.585,4.218-10.453,1.896-5.874-4.756-15.259-14.621-23.109-15.091" fill="#626262" fill-rule="evenodd"/>
 <path d="m159.702,49.035c5.224-1.688 9.125-3.735 13.691-6.945 2.876-2.021 4.555-3.721 6.59-6.491 2.976-4.049 2.257-4.743 7.787-3.396 19.328,4.71 38.707,9.165 58.02,13.94-1.802,3.675-4.353,7.62-6.944,10.8-2.079,2.551-1.445,2.905-4.564,3.373-1.838.276-5.027-.699-6.944-.964-8.984-1.243-17.933-2.399-26.999-3.06-4.266-.311-6.789-.954-10.659,1.019-2.586,1.318-6.448,3.956-9.113,3.487-7.267-1.278-12.5-12.108-20.865-11.763" fill="#5e5e5e" fill-rule="evenodd"/>
 <path d="m163.784,49.744c3.228-4.988 9.834-6.549 13.918-10.771 1.603-1.657 2.256-4.574 4.082-6.01 3.018-2.374 5.107-.973 9.537.107 18.145,4.422 36.339,8.592 54.469,13.075-2.022,3.009-4.542,5.624-6.832,8.404-3.483,4.231-4.983,3.796-10.317,2.041-8.156-2.684-16.855-3.159-25.285-4.436-3.973-.602-8.342-2.271-11.749,0-2.712,1.807-5.665,3.229-8.391,5.045-3.057,2.037-14.129-8.613-19.432-7.455" fill="#5a5a5a" fill-rule="evenodd"/>
 <path d="m167.866,50.226c-4.872-4.788 6.755-8.067 9.836-11.253 1.603-1.657 2.256-4.574 4.082-6.01 3.018-2.374 5.107-.973 9.537.107 18.145,4.422 36.339,8.592 54.469,13.075-2.331,2.348-4.657,4.713-7.186,6.846-4.106,3.464-4.768,2.688-9.836.723-8.107-3.145-16.398-4.31-24.931-5.868-3.848-.702-7.747-2.196-11.282-.737-2.884,1.19-4.922,4.735-7.908,5.754-4.872,1.662-11.149-4.749-16.781-2.637" fill="#565656" fill-rule="evenodd"/>
 <path d="m171.692,50.708-5.754-3.6c6.895-4.768 11.616-7.913 16.212-14.832 1.889-2.843 11.475,1.321 14.393,2.023l49.247,11.845-9.014,6.279c-3.191,2.223-5.208-.227-8.604-1.957-7.275-3.708-14.059-4.932-22.111-6.627l-11.641-2.451c-1.433-.302-7.035,6.163-8.205,7.218-3.516,3.172-9.827.577-14.523,2.102" fill="#525252" fill-rule="evenodd"/>
 <path d="m246.754,50.708-8.711,30.865c-1.806,6.399-.495,15.044-.647,21.63-.477,20.632-3.208,42.539-1.378,63.105 3.701,41.598 4.936,84.14 12.664,125.203 6.147-1.185 12.295-2.369 18.442-3.554 5.722-1.103 11.994-5.605 17.281-8.106 .598-.282-14.224-32.961-15.353-35.53-4.531-10.309-9.599-20.526-13.471-31.107-1.162-3.174-7.54-14.765-5.76-17.605l10.85-17.312-13.918-3.118 10.8-8.618c-1.829-.669-12.568-3.551-12.423-5.076 .677-7.073 1.353-14.146 2.029-21.22 .503-5.256.645-10.702 1.521-15.912 .843-5.006 2.88-7.749 4.55-11.877 3.51-8.679.875-21.348-.241-30.331-1.213-9.77-1.46-22.612-6.235-31.437" fill="#666" fill-rule="evenodd"/>
 <path d="m246.754,50.708c-1.772,7.881-4.22,15.921-6.653,23.62-2.927,9.256-2.48,18.522-2.701,28.197-.455,19.936-.872,39.872-1.364,59.807-.497,20.102 3.436,41.1 5.183,61.147 1.785,20.492 3.737,40.941 6.132,61.313 .264,2.239.813,4.521 1.332,6.718 5.692-2.2 12.401-2.106 17.972-4.563 2.277-1.004 12.263-6.623 12.954-8.872 .856-2.786-5.685-14.011-6.854-16.882-2.536-6.225-4.973-12.488-7.509-18.714-4.493-11.029-10.196-22.131-13.034-33.699-.949-3.871-4.842-10.535-4.266-14.412 .627-4.222 7.975-11.563 10.545-15.109-4.208-1.211-9.049-2.061-12.926-4.081 3.342-2.541 6.39-5.423 9.581-8.136-3.558-1.821-6.964-3.865-10.545-5.655-2.081-1.041.609-16.021.889-18.796 .964-9.595.311-20.818 3.675-30.002 3.152-8.604 3.681-17.54 2.813-27.444-.929-10.593-.491-24.779-5.224-34.437" fill="#626262" fill-rule="evenodd"/>
 <path d="m246.754,50.708c-1.939,8.703-5.112,17.133-7.276,25.788-2.282,9.129-1.659,18.822-1.889,28.281-.489,20.156-1.139,40.302-1.626,60.458s3.799,41.538 5.552,61.652c1.703,19.553 1.362,40.776 6.189,59.818 .401,1.586.601,3.208.978,4.805 5.125-1.744 12.779-2.569 17.263-5.527 1.757-1.159 8.428-7.398 8.873-9.354 .711-3.118-4.874-13.41-6.096-16.581-2.297-5.959-4.648-11.894-6.785-17.913-4.001-11.274-8.891-22.122-11.646-33.777-.925-3.912-4.908-11.778-4.018-15.662 .908-3.965 7.359-9.027 9.836-12.245-3.989-1.662-8.056-3.193-11.99-5.018 3.025-2.559 5.689-5.571 8.872-7.938-2.483-1.578-7.468-4.289-9.1-6.689-2.446-3.6-.188-11.422.035-16.112 .515-10.833 1.659-21.64 3.311-32.332 1.405-9.095 3.289-17.015 3.037-26.938-.271-10.634.587-24.833-3.52-34.716" fill="#5e5e5e" fill-rule="evenodd"/>
 <path d="m246.754,50.708c-2.376,9.532-5.603,18.839-8.141,28.32-2.413,9.012-.67,20.892-1.089,30.278-.832,18.629-3.089,38.952-1.464,57.503 1.907,21.787 4.014,43.556 5.912,65.345 .874,10.025 1.762,20.049 2.627,30.075 .419,4.855.248,10.152 1.432,14.882 .803,3.209.289,9.855 2.169,12.473 .16.643.321,1.284.481,1.927 8.399-4.515 18.622-4.11 20.607-15.363 .854-4.838-2.885-11.203-4.487-16.141-2.108-6.502-4.214-12.992-6.564-19.41-4.129-11.272-7.674-22.463-10.229-34.148-.619-2.835-4.685-14.405-2.814-16.275 2.874-2.874 5.73-5.771 8.505-8.76-3.636-1.975-7.311-3.932-11.027-5.754 2.399-2.48 5.03-4.715 7.441-7.199 .879-.905-6.795-7.744-8.036-8.986-2.239-2.24.424-15.77.775-19.264 .658-6.534.801-13.129 1.421-19.672 2.204-23.237 7.585-46.133 2.481-69.831" fill="#5a5a5a" fill-rule="evenodd"/>
 <path d="m246.754,50.708c-2.408,8.995-7.767,19.638-8.181,28.915-.47,10.542-.688,21.081-.91,31.631-.404,19.246-3.021,39.359-1.343,58.525 1.885,21.522 3.967,43.026 5.843,64.551 1.656,19.01 2.125,38.591 6.519,57.181 4.83-2.531 9.994-4.287 14.854-6.717 1.984-.993 1.567-7.854 1.445-10.092-.607-11.16-6.742-23.745-9.986-34.587-3.434-11.476-6.597-22.483-8.905-34.208-.525-2.664-4.375-15.828-2.566-17.293 2.562-2.074 5.33-3.827 7.795-6.01-3.201-2.35-6.538-4.486-9.836-6.69 1.944-2.456 4.474-4.52 6.35-6.974 1.229-1.605-5.847-8.027-6.604-9.835-1.866-4.455-.215-11.784.04-16.833 .333-6.596.593-13.318 1.254-19.888 1.114-11.066 3.186-22.099 3.877-33.133 .739-11.827 3.217-26.983.354-38.543" fill="#565656" fill-rule="evenodd"/>
 <path d="m246.754,50.708c-2.66,9.07-6.652,18.518-8.164,27.836-1.232,7.596-.486,16.058-.719,23.732-.629,20.764-3.724,43.019-1.881,63.723 3.71,41.698 4.943,84.347 12.691,125.511l14.271-7.711c2.011-1.087-2.12-9.968-2.763-12.216-3.16-11.064-5.963-22.244-8.942-33.359-2.235-8.337-4.931-16.599-6.131-25.154-.987-7.035-1.976-14.07-2.963-21.105-.896-6.38 1.033-5.597 7.009-8.397l-7.155-6c-2.965-2.485-.87-2.988 1.518-5.882 4.594-5.566-3.184-8.908-4.453-14.962-1.048-4.997.726-12.068 1.03-17.128 .45-7.482.9-14.964 1.351-22.446 .657-10.938 2.378-21.804 3.132-32.737 .755-10.922 3.47-22.803 2.169-33.705" fill="#525252" fill-rule="evenodd"/>
</svg>
