<?xml version="1.0" encoding="UTF-8"?>
<svg viewBox="0 0 260 220" xmlns="http://www.w3.org/2000/svg" xmlns:xlink="http://www.w3.org/1999/xlink">
 <defs>
  <linearGradient id="a">
   <stop stop-color="#f00" offset="0"/>
   <stop stop-color="#f00" stop-opacity="0" offset="1"/>
  </linearGradient>
  <linearGradient id="b">
   <stop stop-color="#920000" offset="0"/>
   <stop stop-color="#a79765" offset="1"/>
  </linearGradient>
  <linearGradient id="c">
   <stop stop-color="#1a1a1a" offset="0"/>
   <stop stop-color="#666" offset=".5"/>
   <stop stop-color="#1a1a1a" offset="1"/>
  </linearGradient>
  <linearGradient id="d">
   <stop stop-color="#a9945b" offset="0"/>
   <stop stop-color="#e4d3a7" offset="1"/>
  </linearGradient>
  <linearGradient id="e">
   <stop stop-color="#77111b" offset="0"/>
   <stop stop-color="#ad0117" offset="1"/>
  </linearGradient>
  <linearGradient id="f">
   <stop stop-color="#a1915f" offset="0"/>
   <stop stop-color="#f5e8bc" offset=".5"/>
   <stop stop-color="#d7c698" offset="1"/>
  </linearGradient>
  <linearGradient id="z" x1="-269.81" x2="-82.496" y1="312.11" y2="570.13" gradientUnits="userSpaceOnUse">
   <stop stop-color="#b9a775" offset="0"/>
   <stop stop-color="#f3e1b1" offset=".5"/>
   <stop stop-color="#c6af7b" offset="1"/>
  </linearGradient>
  <linearGradient id="u" x1="-79.677" x2="-271" y1="511.37" y2="338.04" gradientUnits="userSpaceOnUse">
   <stop stop-color="#a00" offset="0"/>
   <stop stop-color="#800000" offset="1"/>
  </linearGradient>
  <linearGradient id="q" x1="-277.01" x2="-111.97" y1="510.36" y2="467.64" gradientUnits="userSpaceOnUse">
   <stop stop-color="#500" offset="0"/>
   <stop stop-color="#500" stop-opacity="0" offset="1"/>
  </linearGradient>
  <linearGradient id="p" x1="-274.02" x2="-204.56" y1="393.91" y2="509.11" gradientUnits="userSpaceOnUse">
   <stop stop-color="#d6c596" offset="0"/>
   <stop stop-color="#f5e6bc" offset=".62"/>
   <stop stop-color="#e3d1a4" offset="1"/>
  </linearGradient>
  <linearGradient id="l" x1="-260.69" x2="-185.14" y1="384.34" y2="499.13" gradientUnits="userSpaceOnUse">
   <stop stop-color="#d38d5f" stop-opacity="0" offset="0"/>
   <stop stop-color="#d38d5f" stop-opacity=".40191" offset=".5"/>
   <stop stop-color="#d38d5f" stop-opacity="0" offset="1"/>
  </linearGradient>
  <linearGradient id="k" x1="-157.42" x2="-439.76" y1="513.82" y2="246.76" gradientUnits="userSpaceOnUse">
   <stop stop-color="#ab0215" offset="0"/>
   <stop stop-color="#800000" offset="1"/>
  </linearGradient>
  <linearGradient id="i" x1="-307.05" x2="-275.38" y1="334.33" y2="395.01" gradientUnits="userSpaceOnUse">
   <stop stop-color="#ff2a2a" offset="0"/>
   <stop stop-color="#ff2a2a" stop-opacity="0" offset="1"/>
  </linearGradient>
  <linearGradient id="y" x1="-232.62" x2="-158.65" y1="329.61" y2="554.89" gradientUnits="userSpaceOnUse" xlink:href="#b"/>
  <linearGradient id="x" x1="-184.85" x2="-198.02" y1="411.92" y2="514.53" gradientUnits="userSpaceOnUse" xlink:href="#d"/>
  <linearGradient id="w" x1="-198.03" x2="-197.61" y1="515.56" y2="385.19" gradientUnits="userSpaceOnUse" xlink:href="#e"/>
  <linearGradient id="v" x1="-202.41" x2="-191.68" gradientUnits="userSpaceOnUse" xlink:href="#c"/>
  <linearGradient id="t" x1="-84.638" x2="-117.37" y1="445.06" y2="500.95" gradientUnits="userSpaceOnUse" xlink:href="#a"/>
  <linearGradient id="s" x1="-277.96" x2="-164.93" y1="340.85" y2="494.42" gradientUnits="userSpaceOnUse" xlink:href="#f"/>
  <linearGradient id="r" x1="-193.37" x2="-230.7" y1="351.5" y2="439.33" gradientUnits="userSpaceOnUse" xlink:href="#b"/>
  <linearGradient id="o" x1="-272.93" x2="-286.1" y1="406.28" y2="508.88" gradientUnits="userSpaceOnUse" xlink:href="#d"/>
  <linearGradient id="n" x1="-278.96" x2="-165.93" y1="340.85" y2="494.42" gradientUnits="userSpaceOnUse" xlink:href="#f"/>
  <linearGradient id="m" x1="-286.1" x2="-285.69" y1="509.92" y2="379.55" gradientUnits="userSpaceOnUse" xlink:href="#e"/>
  <linearGradient id="j" x1="-290.49" x2="-279.76" gradientUnits="userSpaceOnUse" xlink:href="#c"/>
  <linearGradient id="h" x1="-113.82" x2="-172.76" y1="421" y2="508.83" gradientUnits="userSpaceOnUse" xlink:href="#a"/>
  <radialGradient id="g" cx="-118" cy="591.29" r="131.55" gradientTransform="matrix(.96851 0 0 .08584 -3.7156 540.54)" gradientUnits="userSpaceOnUse">
   <stop stop-color="#333" offset="0"/>
   <stop stop-color="#333" stop-opacity="0" offset="1"/>
  </radialGradient>
 </defs>
 <g transform="translate(310.13 -323.69)">
  <path transform="matrix(.87983 0 0 2.4 -63.124 -907.24)" d="m13.55 591.29c0 6.2364-58.898 11.292-131.55 11.292s-131.55-5.0556-131.55-11.292 58.898-11.292 131.55-11.292 131.55 5.0556 131.55 11.292z" fill="url(#g)"/>
  <path d="m-125.34 473.73-53.637 9.0336-89.772-124.21s0.47363-24.589 9.5982-29.359c1.7413-0.91027 4.0018 0.61812 5.646 1.6938 6.816 4.459 10.747 12.251 15.809 18.632 3.9298 4.9543 7.7578 10 11.292 15.244 4.4377 6.5843 8.5439 13.397 12.421 20.326 5.0554 9.0345 9.6472 18.326 14.115 27.665 3.3811 7.0675 6.5307 14.246 9.5982 21.455 2.164 5.0856 3.2611 10.699 6.2106 15.373 3.27 5.1818 7.5154 9.8793 12.421 13.55 4.0279 3.0142 8.7104 5.2736 13.55 6.646 4.1839 1.1864 8.6394 1.1115 12.986 1.2584 2.9677 0.10034 5.9558-0.60871 8.9044-0.25841 3.7241 0.44243 10.857 2.9522 10.857 2.9522z" fill="url(#z)" stroke="url(#y)"/>
  <g transform="translate(-65.078 -19.646)">
   <path d="m-196.43 431.49-1.1977 84.238 5.787 0.39923s-0.71982-18.942 0.20154-28.346c0.83221-8.494 2.6879-16.88 4.7908-25.152 0.8607-3.3854 2.3268-6.597 3.1939-9.9808 2.0845-8.1347 6.6404-4.1958 6.787-7.5854 0.17241-3.9886-3.968-7.2189-7.1862-9.5816-1.9339-1.4198-4.5014-1.6663-6.787-2.3954-1.846-0.58887-0.37447-0.69218-5.5893-1.5969z" fill="url(#x)"/>
   <path d="m-217.37 395.59s-1.451 6.0749-0.82301 7.3398c3.9902 8.0366 6.9165 14.807 9.292 22.019 3.0512 9.2645 5.8485 18.664 7.5756 28.264 1.2699 7.0586 1.7666 14.253 2.0226 21.421 0.29573 8.2777-0.0712 16.574-0.5646 24.842-0.34913 5.8511-1.6938 17.503-1.6938 17.503l7.7752-0.4354s-0.66464-33.6-0.30619-50.395c0.18007-8.4374 1.2336-21.2 1.2339-25.288 8e-5 -1.0135 1.3246-2.9376 2.6234-3.7242 1.9388-1.1743 6.741-0.89534 6.741-0.89534l-14.68-37.828z" fill="url(#w)"/>
   <path d="m-218.97 388.91c-0.015 2.4144 0.18028 4.8561 0.375 7.25 0.21379 2.6284 0.0303 5.5316 1.4062 7.7812 1.7647 2.8852 5.5287 3.952 8.0938 6.1562 6.2585 5.3782 12.391 10.97 17.781 17.219 3.4309 3.9774 7.6325 8.176 10.375 12.656h0.625c-2.8713-4.8604-7.3126-9.3815-11-13.656-5.3899-6.2484-11.523-11.841-17.781-17.219-2.5651-2.2043-6.3291-3.271-8.0938-6.1562-1.376-2.2497-1.1925-5.1528-1.4062-7.7812-0.16784-2.0635-0.3389-4.1652-0.375-6.25z" fill="#800000"/>
   <path d="m-201.56 516.2 9.3159-0.5646 0.5646 5.646-10.727 0.2823z" fill="url(#v)"/>
  </g>
  <path d="m-259.2 329.06c-0.75775-2.6822-13.574 15.372-13.574 15.372l88.63 160.29s54.838 2.5028 82.242 1.5969c9.3445-0.3089 27.946-2.3954 27.946-2.3954s0.0873-4.4333-0.79847-6.3877c-2.3151-5.108-6.4232-9.601-11.179-12.574-7.7347-4.8355-17.594-4.8283-26.349-7.3877-6.1418-1.7954-11.966-5.5592-18.365-5.5893-4.7162-0.0221-8.9687 2.9748-13.574 3.9923-5.2559 1.1614-10.621 3.0034-15.969 2.3954-9.3797-1.0662-19.361-4.0336-26.349-10.38-11.279-10.243-20.76-40.722-20.76-40.722s-8.706-19.333-13.574-28.745c-6.5977-12.756-14.237-24.947-21.163-37.528-5.8292-10.587-16.143-28.326-17.163-31.939z" fill="url(#u)"/>
  <path d="m-130.66 471.97c-4.7162-0.0221-8.9573 2.9824-13.562 4-5.2559 1.1614-10.621 3.0142-15.969 2.4062-5.5212-0.62764-11.232-1.941-16.438-4.1875l-4.625 25.156 15 6.0938c18.456 0.661 46.9 1.4516 64.344 0.875 9.3445-0.3089 27.969-2.4062 27.969-2.4062s0.07327-4.4206-0.8125-6.375c-2.3151-5.108-6.4321-9.5896-11.188-12.562-7.7347-4.8355-17.588-4.8468-26.344-7.4062-6.1418-1.7954-11.976-5.5637-18.375-5.5938z" fill="url(#t)"/>
  <path d="m-216.36 492.54c1.0412 2.2485 2.1944 4.4555 3.9688 6.125 2.1756 2.0471 5.0913 3.291 7.9688 4.0938 15.266 4.2592 31.597 2.8643 47.438 3.375 19.576 0.63114 37.833 0.81528 56.735 0.20109 8.583-0.27889 16.745-1.438 25.702-1.7636 1.2003-2.7462 0.8955-1.0489 0-1-9.3332 0.33928-17.657 1.4285-26.507 1.7012-18.635 0.57423-36.685 0.48181-55.931-0.13867-15.841-0.51072-32.171 0.88418-47.438-3.375-2.8774-0.80279-5.7931-2.0466-7.9688-4.0938-1.5113-1.422-2.5736-3.231-3.5-5.125z"/>
  <path d="m-280.71 343.6 6.3877 39.524s13.399 7.7045 19.163 12.775c6.0907 5.3584 10.988 11.962 15.969 18.365 4.8736 6.2643 9.8737 12.541 13.574 19.562 4.7127 8.9429 6.5367 19.17 10.779 28.346 3.8246 8.2712 7.5129 16.814 13.175 23.954 3.3371 4.2086 11.977 10.779 11.977 10.779l40.722-7.9847s-11.268-4.0381-16.768-6.3877c-5.4194-2.315-11.265-4.0364-15.969-7.5854-7.0759-5.3378-12.84-12.463-17.566-19.962-5.2456-8.3227-7.4892-18.2-11.578-27.148-5.1696-11.314-9.8271-22.956-16.369-33.536-5.6409-9.1236-13.326-16.824-19.562-25.551-2.9651-4.1495-5.76-8.4208-8.4799-12.735-3.0382-4.819-5.5308-9.9805-8.7513-14.68-1.5537-2.267-3.0217-4.6733-5.0814-6.4929-1.2336-1.0898-2.6025-2.3261-4.2345-2.5407-1.579-0.20758-3.4283 0.22955-4.593 1.3157-1.1392 1.0623-1.1666 2.8946-1.5969 4.3916-0.52644 1.8312-1.1977 5.5893-1.1977 5.5893z" fill="url(#s)" stroke="url(#r)"/>
  <path d="m-265.92 336.35-9.9808 11.06c-8.2761 1.2445 13.914 5.7525 0.16834 5.7525l54.938 115.31 117.84 51.406c0.16094-0.76335 0.19135-1.6522 0.15625-2.5312 0.0489-1.4427-0.15141-3.013-0.40625-4.125-1.2014-5.2424-1.9458-9.1391-6.0938-12.562-5.0499-4.1678-11.323-6.6876-17.375-9.1875-6.3029-2.6037-13.291-3.2894-19.562-5.9688-3.5065-1.4981-6.1813-5.1521-9.9688-5.5938-2.845-0.33178-5.609 0.41974-8.3438 1.4688l-0.65625-0.28125c-5.4194-2.315-11.264-4.0447-15.969-7.5938-7.0759-5.3378-12.836-12.439-17.562-19.938-5.2456-8.3227-7.4739-18.208-11.562-27.156-5.1696-11.314-9.8335-22.951-16.375-33.531-5.6409-9.1236-13.326-16.835-19.562-25.562-2.9651-4.1495-5.7488-8.4046-8.4688-12.719-3.0382-4.819-5.5295-9.9884-8.75-14.688-0.80649-1.1768-1.6105-2.4104-2.4688-3.5625z" fill="url(#q)"/>
  <path d="m-277.22 371.16 31.939 114.18 56.691 12.775-28.745-56.691-28.745-59.885z" fill="url(#p)"/>
  <path d="m-284.5 425.84-1.1977 84.238 5.787 0.39923s-0.71982-18.942 0.20154-28.346c0.83221-8.494 2.6879-16.88 4.7908-25.152 0.8607-3.3854 2.3268-6.597 3.1939-9.9808 2.0845-8.1347 6.6404-4.1958 6.787-7.5854 0.17241-3.9886-3.968-7.2189-7.1862-9.5816-1.9339-1.4198-4.5014-1.6663-6.787-2.3954-1.846-0.58887-0.37447-0.69218-5.5893-1.5969z" fill="url(#o)"/>
  <path d="m-281.71 343.6 6.3877 39.524s13.399 7.7045 19.163 12.775c6.0907 5.3584 10.988 11.962 15.969 18.365 4.8736 6.2643 9.8737 12.541 13.574 19.562 4.7127 8.9429 6.5367 19.17 10.779 28.346 3.8246 8.2712 7.5129 16.814 13.175 23.954 3.3371 4.2086 11.977 10.779 11.977 10.779l40.722-7.9847s-11.268-4.0381-16.768-6.3877c-5.4194-2.315-11.265-4.0364-15.969-7.5854-7.0759-5.3378-12.84-12.463-17.566-19.962-5.2456-8.3227-7.4892-18.2-11.578-27.148-5.1696-11.314-9.8271-22.956-16.369-33.536-5.6409-9.1236-13.326-16.824-19.562-25.551-2.9651-4.1495-5.76-8.4208-8.4799-12.735-3.0382-4.819-5.5308-9.9805-8.7513-14.68-1.5537-2.267-3.0217-4.6733-5.0814-6.4929-1.2336-1.0898-2.6025-2.3261-4.2345-2.5407-1.579-0.20758-3.4283 0.22955-4.593 1.3157-1.1392 1.0623-1.1666 2.8946-1.5969 4.3916-0.52644 1.8312-1.1977 5.5893-1.1977 5.5893z" fill="url(#n)"/>
  <path d="m-305.45 389.94s-1.451 6.0749-0.82301 7.3398c3.9902 8.0366 6.9165 14.807 9.292 22.019 3.0512 9.2645 5.8485 18.664 7.5756 28.264 1.2699 7.0586 1.7666 14.253 2.0226 21.421 0.29573 8.2777-0.0712 16.574-0.5646 24.842-0.34913 5.8511-1.6938 17.503-1.6938 17.503l7.7752-0.4354s-0.66464-33.6-0.30619-50.395c0.18007-8.4374 1.2336-21.2 1.2339-25.288 8e-5 -1.0135 1.3246-2.9376 2.6234-3.7242 1.9388-1.1743 6.741-0.89534 6.741-0.89534l-14.68-37.828z" fill="url(#m)"/>
  <path d="m-266.49 390.16c-1.5288 2.0409 23.836 23.56 33.311 37.264 5.2921 7.6532 10.424 21.13 15.803 31.922 6.6454 13.332 13.039 23.409 13.039 23.409s-5.7764-11.122-11.615-24.615c-4.472-10.335-8.403-22.472-13.275-29.587-10.077-14.715-37.264-38.393-37.264-38.393z" fill="url(#l)"/>
  <path d="m-263.83 408.57s9.9521 11.848 13.55 18.632c3.3753 6.3637 7.3398 20.326 7.3398 20.326h5.646s-4.2532-13.984-7.7752-20.326c-3.8985-7.0193-14.55-19.196-14.55-19.196z" fill="#dbcec6"/>
  <path d="m-239.39 515.67c2.1756 2.0471 5.1012 3.2787 7.9786 4.0815 15.266 4.2592 31.586 2.8769 47.427 3.3876 27.464 0.88544 51.242 0.5692 82.432-0.5646 2.796-0.10164 2.427-5.2688 1.823-7.9044-1.2014-5.2424-5.9626-9.1506-10.111-12.574-5.0499-4.1678-11.313-6.6825-17.365-9.1824-6.3029-2.6037-13.291-3.3092-19.562-5.9885-3.5065-1.4981-6.1934-5.1476-9.9808-5.5893-5.7738-0.67333-11.2 3.1208-16.768 4.7908-4.6765 1.4027-9.156 3.5963-13.973 4.3916-5.7787 0.95403-11.751 1.0966-17.566 0.39923-5.8815-0.70533-11.889-1.9042-17.167-4.5931-4.4257-2.2546-8.2135-5.7261-11.578-9.3801-2.4002-2.6068-4.2944-5.6709-5.9885-8.7831-3.9348-7.2289-6.9789-14.948-9.5816-22.756-2.9497-8.8491-4.7859-18.037-6.787-27.148-1.6853-7.6732-2.7257-15.478-4.3916-23.156-3.4428-15.866-6.4761-31.897-11.574-47.311-1.2921-3.907-4.2674-7.295-4.7946-11.376-0.12057-0.93325-0.20371-2.0722 0.39923-2.7946 0.53929-0.64619 1.555-0.84501 2.3954-0.79847 1.9025 0.10537 4.722 3.1819 5.19 2.3954 0 0-4.019-4.0796-5.3896-3.9904-4.8759 0.31743-9.0524 4.9292-12.576 8.5816-4.5884 4.7564-7.4527 10.946-10.58 16.768-3.4524 6.4282-7.3972 12.839-8.9828 19.962-0.93992 4.2222-0.54837 8.6638-0.1977 12.975 0.21379 2.6284 0.0213 5.5373 1.3973 7.787 1.7647 2.8852 5.5091 3.9402 8.0742 6.1444 6.2585 5.3782 12.395 10.972 17.785 17.22 4.0612 4.708 7.8341 9.7324 10.868 15.159 3.522 6.2992 5.8946 13.188 8.3839 19.962 2.8888 7.8615 5.2595 15.908 7.5854 23.954 1.6046 5.5505 2.7134 11.239 4.3916 16.768 1.0635 3.5036 2.0552 7.0573 3.5931 10.38 1.4284 3.0861 2.7134 6.4528 5.19 8.7831z" fill="url(#k)"/>
  <path d="m-243.36 510.54c1.0412 2.2485 2.1944 4.4555 3.9688 6.125 2.1756 2.0471 5.0913 3.291 7.9688 4.0938 15.266 4.2592 31.597 2.8643 47.438 3.375 27.464 0.88544 51.248 0.5713 82.438-0.5625 1.884-0.0685 2.3124-2.4372 2.2188-4.7812-0.07 1.9687-0.60775 3.7227-2.2188 3.7812-31.19 1.1338-54.974 1.4479-82.438 0.5625-15.841-0.51072-32.171 0.88418-47.438-3.375-2.8774-0.80279-5.7931-2.0466-7.9688-4.0938-1.5113-1.422-2.5736-3.231-3.5-5.125h-0.46875z"/>
  <path d="m-307.05 383.26c-0.015 2.4144 0.18028 4.8561 0.375 7.25 0.21379 2.6284 0.0303 5.5316 1.4062 7.7812 1.7647 2.8852 5.5287 3.952 8.0938 6.1562 6.2585 5.3782 12.391 10.97 17.781 17.219 3.4309 3.9774 3.6325 4.176 6.375 8.6562h0.625c-2.8713-4.8604-3.3126-5.3815-7-9.6562-5.3899-6.2484-11.523-11.841-17.781-17.219-2.5651-2.2043-6.3291-3.271-8.0938-6.1562-1.376-2.2497-1.1925-5.1528-1.4062-7.7812-0.16784-2.0635-0.3389-4.1652-0.375-6.25z" fill="#800000"/>
  <path d="m-289.64 510.55 9.3159-0.5646 0.5646 5.646-10.727 0.2823z" fill="url(#j)"/>
  <path d="m-274.31 331.22c-4.8759 0.31743-9.0703 4.9413-12.594 8.5938-4.5884 4.7564-7.4355 10.928-10.562 16.75-3.4524 6.4282-7.4145 12.847-9 19.969-0.93992 4.2222-0.53817 8.6574-0.1875 12.969 0.21379 2.6284 0.0302 5.5316 1.4062 7.7812 1.7647 2.8852 5.4974 3.952 8.0625 6.1562 3.4143 2.934 6.791 5.9289 10.031 9.0625l23.75-30.812c-2.4492-11.424-5.0553-22.829-8.7188-33.906-1.2921-3.907-4.254-7.2938-4.7812-11.375-0.12057-0.93325-0.22794-2.0588 0.375-2.7812 0.53929-0.64619 1.5659-0.85904 2.4062-0.8125 1.9025 0.10537 4.7195 3.1928 5.1875 2.4062 0 0-4.0044-4.0892-5.375-4z" fill="url(#i)"/>
  <path d="m-157.81 481.25c-5.374-0.13186-10.468 3.3093-15.688 4.875-4.6765 1.4027-9.1829 3.5797-14 4.375-5.7787 0.95403-11.747 1.1036-17.562 0.40625-1.73-0.20747-3.4575-0.46302-5.1875-0.78125l-35.312 14.375c0.30877 0.80168 0.63904 1.5951 1 2.375 1.4284 3.0861 2.7108 6.4509 5.1875 8.7812 2.1756 2.0471 5.0913 3.291 7.9688 4.0938 15.266 4.2592 31.597 2.8643 47.438 3.375 27.464 0.88544 51.217 0.5713 82.406-0.5625 2.796-0.10164 2.4478-5.2706 1.8438-7.9062-1.2014-5.2424-5.977-9.1391-10.125-12.562-5.0499-4.1678-11.292-6.6876-17.344-9.1875-6.3029-2.6037-13.291-3.3207-19.562-6-3.5065-1.4981-6.2126-5.1208-10-5.5625-0.36086-0.0421-0.70423-0.085-1.0625-0.0937z" fill="url(#h)"/>
 </g>
</svg>
