<?xml version="1.0" encoding="UTF-8"?>
<svg width="30.039mm" height="26.979mm" version="1.1" viewBox="0 0 106.43646 95.594016" xmlns="http://www.w3.org/2000/svg" xmlns:xlink="http://www.w3.org/1999/xlink">
 <defs>
  <linearGradient id="aa">
   <stop stop-color="#2a1f13" offset="0"/>
   <stop stop-color="#775128" offset=".14984"/>
   <stop stop-color="#47331d" offset=".19532"/>
   <stop stop-color="#775128" offset=".32432"/>
   <stop stop-color="#775128" offset=".69317"/>
   <stop stop-color="#a76620" offset=".77938"/>
   <stop stop-color="#775128" offset=".84264"/>
   <stop stop-color="#775128" offset=".91305"/>
   <stop stop-color="#423323" offset="1"/>
  </linearGradient>
  <linearGradient id="a">
   <stop stop-color="#42221f" offset="0"/>
   <stop stop-color="#87251c" offset=".23492"/>
   <stop stop-color="#6d2d27" offset=".41722"/>
   <stop stop-color="#450f0a" offset=".64167"/>
   <stop stop-color="#6d2d27" offset="1"/>
  </linearGradient>
  <linearGradient id="z">
   <stop stop-color="#1e1e1e" offset="0"/>
   <stop stop-color="#666" offset=".13161"/>
   <stop stop-color="#666" offset=".26978"/>
   <stop stop-color="#303030" offset=".41803"/>
   <stop stop-color="#666" offset=".67134"/>
   <stop stop-color="#9c9c9c" offset=".73611"/>
   <stop stop-color="#666" offset=".79944"/>
   <stop stop-color="#666" offset="1"/>
  </linearGradient>
  <pattern id="al" xlink:href="#ac" patternTransform="matrix(1.2 0 0 1.125 -3.8408 951.41)"/>
  <pattern id="ac" width="10" height="10" patternTransform="translate(0) scale(10)" patternUnits="userSpaceOnUse">
   <circle cx="2.567" cy=".81" r=".45"/>
   <circle cx="3.048" cy="2.33" r=".45"/>
   <circle cx="4.418" cy="2.415" r=".45"/>
   <circle cx="1.844" cy="3.029" r=".45"/>
   <circle cx="6.08" cy="1.363" r=".45"/>
   <circle cx="5.819" cy="4.413" r=".45"/>
   <circle cx="4.305" cy="4.048" r=".45"/>
   <circle cx="5.541" cy="3.045" r=".45"/>
   <circle cx="4.785" cy="5.527" r=".45"/>
   <circle cx="2.667" cy="5.184" r=".45"/>
   <circle cx="7.965" cy="1.448" r=".45"/>
   <circle cx="7.047" cy="5.049" r=".45"/>
   <circle cx="4.34" cy=".895" r=".45"/>
   <circle cx="7.125" cy=".34" r=".45"/>
   <circle cx="9.553" cy="1.049" r=".45"/>
   <circle cx="7.006" cy="2.689" r=".45"/>
   <circle cx="8.909" cy="2.689" r=".45"/>
   <circle cx="9.315" cy="4.407" r=".45"/>
   <circle cx="7.82" cy="3.87" r=".45"/>
   <circle cx="8.27" cy="5.948" r=".45"/>
   <circle cx="7.973" cy="7.428" r=".45"/>
   <circle cx="9.342" cy="8.072" r=".45"/>
   <circle cx="8.206" cy="9.315" r=".45"/>
   <circle cx="9.682" cy="9.475" r=".45"/>
   <circle cx="9.688" cy="6.186" r=".45"/>
   <circle cx="3.379" cy="6.296" r=".45"/>
   <circle cx="2.871" cy="8.204" r=".45"/>
   <circle cx="4.59" cy="8.719" r=".45"/>
   <circle cx="3.181" cy="9.671" r=".45"/>
   <circle cx="5.734" cy="7.315" r=".45"/>
   <circle cx="6.707" cy="6.513" r=".45"/>
   <circle cx="5.73" cy="9.67" r=".45"/>
   <circle cx="6.535" cy="8.373" r=".45"/>
   <circle cx="4.37" cy="7.154" r=".45"/>
   <circle cx=".622" cy="7.25" r=".45"/>
   <circle cx=".831" cy="5.679" r=".45"/>
   <circle cx="1.257" cy="8.519" r=".45"/>
   <circle cx="1.989" cy="6.877" r=".45"/>
   <circle cx=".374" cy="3.181" r=".45"/>
   <circle cx="1.166" cy="1.664" r=".45"/>
   <circle cx="1.151" cy=".093" r=".45"/>
   <circle cx="1.151" cy="10.093" r=".45"/>
   <circle cx="1.302" cy="4.451" r=".45"/>
   <circle cx="3.047" cy="3.763" r=".45"/>
  </pattern>
  <radialGradient id="ar" cx="68.237" cy="1029.8" r="42.034" gradientTransform="matrix(-.035825 -.67529 1.6206 -.085973 -1598.2 1155.1)" gradientUnits="userSpaceOnUse">
   <stop stop-color="#a06d37" offset="0"/>
   <stop stop-color="#7b4912" offset=".054256"/>
   <stop stop-color="#623300" offset=".11428"/>
   <stop stop-color="#623300" offset=".41449"/>
   <stop stop-color="#492600" offset="1"/>
  </radialGradient>
  <pattern id="am" xlink:href="#ag" patternTransform="matrix(.80761 0 0 1.6915 -2.8284 950.35)"/>
  <pattern id="ag" width="2" height="1" patternTransform="translate(0) scale(10)" patternUnits="userSpaceOnUse">
   <rect y="-.5" width="1" height="2"/>
  </pattern>
  <linearGradient id="ah" x1=".60434" x2="87.453" y1="1023.9" y2="1023.9" gradientUnits="userSpaceOnUse" xlink:href="#z"/>
  <radialGradient id="as" cx="39.583" cy="996.65" r="13.366" gradientTransform="matrix(1 0 0 1.6427 0 -643.73)" gradientUnits="userSpaceOnUse" xlink:href="#a"/>
  <pattern id="an" xlink:href="#ae" patternTransform="matrix(.4931 .74811 -2.8883 1.9037 -2.4749 949.64)"/>
  <pattern id="ae" width="2" height="1" patternTransform="translate(0) scale(10)" patternUnits="userSpaceOnUse">
   <rect y="-.5" width="1" height="2"/>
  </pattern>
  <linearGradient id="ai" x1="2.3588" x2="87.219" y1="1015" y2="1019.7" gradientUnits="userSpaceOnUse" xlink:href="#aa"/>
  <pattern id="ao" xlink:href="#ad" patternTransform="matrix(.63084 0 0 2.5754 -11.109 920.12)"/>
  <pattern id="ad" width="2" height="1" patternTransform="translate(0) scale(10)" patternUnits="userSpaceOnUse">
   <rect y="-.5" width="1" height="2"/>
  </pattern>
  <linearGradient id="aj" x1="15.56" x2="100.64" y1="991.43" y2="991.43" gradientUnits="userSpaceOnUse" xlink:href="#z"/>
  <pattern id="ap" xlink:href="#ab" patternTransform="matrix(.925 0 0 1.175 4.7657 922.12)"/>
  <pattern id="ab" width="10" height="10" patternTransform="translate(0) scale(10)" patternUnits="userSpaceOnUse">
   <circle cx="2.567" cy=".81" r=".45"/>
   <circle cx="3.048" cy="2.33" r=".45"/>
   <circle cx="4.418" cy="2.415" r=".45"/>
   <circle cx="1.844" cy="3.029" r=".45"/>
   <circle cx="6.08" cy="1.363" r=".45"/>
   <circle cx="5.819" cy="4.413" r=".45"/>
   <circle cx="4.305" cy="4.048" r=".45"/>
   <circle cx="5.541" cy="3.045" r=".45"/>
   <circle cx="4.785" cy="5.527" r=".45"/>
   <circle cx="2.667" cy="5.184" r=".45"/>
   <circle cx="7.965" cy="1.448" r=".45"/>
   <circle cx="7.047" cy="5.049" r=".45"/>
   <circle cx="4.34" cy=".895" r=".45"/>
   <circle cx="7.125" cy=".34" r=".45"/>
   <circle cx="9.553" cy="1.049" r=".45"/>
   <circle cx="7.006" cy="2.689" r=".45"/>
   <circle cx="8.909" cy="2.689" r=".45"/>
   <circle cx="9.315" cy="4.407" r=".45"/>
   <circle cx="7.82" cy="3.87" r=".45"/>
   <circle cx="8.27" cy="5.948" r=".45"/>
   <circle cx="7.973" cy="7.428" r=".45"/>
   <circle cx="9.342" cy="8.072" r=".45"/>
   <circle cx="8.206" cy="9.315" r=".45"/>
   <circle cx="9.682" cy="9.475" r=".45"/>
   <circle cx="9.688" cy="6.186" r=".45"/>
   <circle cx="3.379" cy="6.296" r=".45"/>
   <circle cx="2.871" cy="8.204" r=".45"/>
   <circle cx="4.59" cy="8.719" r=".45"/>
   <circle cx="3.181" cy="9.671" r=".45"/>
   <circle cx="5.734" cy="7.315" r=".45"/>
   <circle cx="6.707" cy="6.513" r=".45"/>
   <circle cx="5.73" cy="9.67" r=".45"/>
   <circle cx="6.535" cy="8.373" r=".45"/>
   <circle cx="4.37" cy="7.154" r=".45"/>
   <circle cx=".622" cy="7.25" r=".45"/>
   <circle cx=".831" cy="5.679" r=".45"/>
   <circle cx="1.257" cy="8.519" r=".45"/>
   <circle cx="1.989" cy="6.877" r=".45"/>
   <circle cx=".374" cy="3.181" r=".45"/>
   <circle cx="1.166" cy="1.664" r=".45"/>
   <circle cx="1.151" cy=".093" r=".45"/>
   <circle cx="1.151" cy="10.093" r=".45"/>
   <circle cx="1.302" cy="4.451" r=".45"/>
   <circle cx="3.047" cy="3.763" r=".45"/>
  </pattern>
  <radialGradient id="at" cx="78.939" cy="1000.1" r="41.287" gradientTransform="matrix(-1.0921 -.00022215 9.0557e-5 -.4452 170.69 1436)" gradientUnits="userSpaceOnUse">
   <stop stop-color="#a06d37" offset="0"/>
   <stop stop-color="#7b4912" offset=".076433"/>
   <stop stop-color="#623300" offset=".142"/>
   <stop stop-color="#623300" offset=".41449"/>
   <stop stop-color="#492600" offset="1"/>
  </radialGradient>
  <pattern id="aq" xlink:href="#af" patternTransform="matrix(.52364 .6912 -4.9409 3.7431 10.891 938.12)"/>
  <pattern id="af" width="2" height="1" patternTransform="translate(0) scale(10)" patternUnits="userSpaceOnUse">
   <rect y="-.5" width="1" height="2"/>
  </pattern>
  <radialGradient id="au" cx="55.553" cy="968.16" r="5.8349" gradientTransform="matrix(1.5356 .79265 -1.2315 2.3857 1162.5 -1391.7)" gradientUnits="userSpaceOnUse" xlink:href="#a"/>
  <radialGradient id="av" cx="58.99" cy="968.38" r="4.8308" gradientTransform="matrix(1 0 0 .76078 0 231.66)" gradientUnits="userSpaceOnUse" xlink:href="#a"/>
  <radialGradient id="aw" cx="62.906" cy="972.1" r="5.9071" gradientTransform="matrix(1 0 0 .69485 0 296.64)" gradientUnits="userSpaceOnUse" xlink:href="#a"/>
  <linearGradient id="ak" x1="16.293" x2="100.3" y1="987.84" y2="987.84" gradientUnits="userSpaceOnUse" xlink:href="#aa"/>
 </defs>
 <g transform="translate(1.4658 -949.46)" fill-rule="evenodd">
  <path d="m22.336 953.96c-1.684 0.0773-3.2568 1.6946-4.385 3.9952-0.53764 1.6209-1.1191 2.8773-0.79768 5.0195-0.19359 1.8035-0.58077 4.2633-0.79643 6.2111l-0.41714 7.9953 0.55619 7.3695c4.2334 4.0915 8.6572 4.9453 13.071 5.9791l2.3568-1.4789 13.773 5.9284c0.95516 1.2606 1.4903 2.731 3.4762 3.4762l23.082 7.2306c6.0718 0.4552 12.144 1.0604 18.215-0.2781 5.653-0.8031 8.6129-3.7227 9.1772-4.8667 1.2856-2.588 0.43807-3.417 0.34762-5.1448-0.31191-1.7043-0.82718-3.2052-1.8772-4.1714 0.0927-2.781-1.0197-5.446-2.2248-7.8562-2.5029-4.0659-5.9095-4.3342-7.7172-5.0057l-16.199-5.3534c-0.5373-1.1313-1.2714-2.0657-2.3638-2.6419-7.3309-2.0752-11.268-6.6508-15.156-11.263-1.5876 0.60354-3.0467 0.17906-4.4495-0.69524-3.7782 0.32769-5.0974 1.7903-6.5352 3.1981-6.0134-1.4923-18.307-7.29-21.135-7.6476z" fill="#ffd2a2" stroke="#0f0" stroke-width=".35433"/>
  <path d="m15.781 976.83 0.70711 7.0711c-0.45655 1.9404 12.679 7.4694 13.571 6.5086 0.70711-0.17678 2.1624-1.7356 2.1624-1.7356l14.319 6.1872 1.9445 3.3588 20.153 6.5407c4.2657 0.8505 8.4944 1.8491 13.081 1.4143 4.4074-0.534 8.2991-0.3804 13.612-2.1214 4.7994-1.8693 5.0634-5.1461 5.1265-8.4852l-3.182 2.6516c-2.5545 1.0434-4.8036 2.5145-8.1317 2.4749-4.9262 0.3747-9.5089 1.2303-15.203 0.5303-3.6343-0.3553-7.1991-0.5019-11.314-2.2981-3.5355-0.78983-7.0711-2.8624-10.607-4.773-1.9194-1.7088-5.0868-3.4177-8.1317-5.1265-4.2426-1.7279-8.4853-2.9957-12.728-4.4194-3.1231-0.78567-6.2461-2.0884-9.3692-3.3588-3.0895-1.799-4.5471-3.1083-6.0104-4.4194z" fill="url(#aj)" stroke="#f00" stroke-width=".35433"/>
  <path d="m15.781 976.83 0.70711 7.0711c-0.45656 1.9404 12.679 7.4694 13.571 6.5086 0.70711-0.1768 2.1624-1.7356 2.1624-1.7356l14.319 6.1872 1.9445 3.3587 20.153 6.5407c4.2657 0.8505 8.4944 1.8491 13.081 1.4143 4.4074-0.534 8.2991-0.3804 13.612-2.1214 4.7994-1.8693 5.0634-5.1461 5.1265-8.4852l-3.182 2.6516c-2.5545 1.0434-4.8036 2.5145-8.1317 2.4749-4.9262 0.3747-9.5089 1.2303-15.203 0.5303-3.6343-0.3553-7.1991-0.5019-11.314-2.2981-3.5355-0.7898-7.0711-2.8624-10.607-4.773-1.9194-1.7088-5.0868-3.4176-8.1317-5.1265-4.2426-1.7279-8.4853-2.9957-12.728-4.4194-3.123-0.7857-6.2461-2.0884-9.3692-3.3588-3.0895-1.7989-4.5471-3.1083-6.0104-4.4194z" fill="url(#ao)" opacity=".246" stroke="#f00" stroke-width=".35433"/>
  <path d="m22.896 953.66c-1.9225-0.13791-2.8826 0.75653-3.8457 1.6465-2.6705 4.2672-1.7181 6.1901-1.75 8.75-1.0178 5.1129-1.3585 9.0858-0.875 10.875 2.382 2.7646 4.5173 3.5549 6.75 5.125l15.625 4.875s16.817 8.2116 17.125 8.625c0.5 0.6715 6.875 3.6403 6.875 3.375 4.928 1.0683 9.906 1.8869 15 2.125 5.71-0.22367 11.53-0.35911 15.625-1.875 1.7083-0.85227 3.9167-1.2687 5-5-0.25849-2.3547 0.52924-3.9484-1.375-7.5-3.7473-4.8991-5.223-4.6357-7.25-5.625l-17.625-6-2.75-3c-3.7356-1.2932-7.3023-3.0932-10.375-6.375-2.765-2.4217-5.9442-4.1184-9.375-5.375l-5.875 3.25c-6.4612-1.5733-12.469-4.7327-18.625-7.375-0.89029-0.31326-1.6385-0.47551-2.2793-0.52148zm-0.80078 3.6699c0.54818 0.011 1.1161 0.10029 1.6055 0.14844 2.2446 0.22087 3.745 1.095 5.834 1.9453 2.3081 0.93955 4.4908 2.1685 6.8047 3.0938 2.085 0.83378 4.8424 1.724 6.3652 2.209 0.55589 0.96015-0.50987 2.4405-1.1934 3.3145-1.2183 1.5577-2.8501 2.24-4.8184 2.4316-3.2575 0.3171-6.6305-0.80948-9.5449-2.2988-2.6607-1.3597-5.0976-3.383-6.8066-5.834-0.62918-0.90233-1.2625-1.9996-1.1484-3.0938 0.06863-0.65853 0.85986-1.2276 1.4141-1.5898 0.41156-0.26901 0.9401-0.33719 1.4883-0.32617z" fill="url(#at)" stroke="#f00" stroke-width=".35433"/>
  <path d="m22.896 953.66c-1.9225-0.13791-2.8826 0.75653-3.8457 1.6465-2.6705 4.2672-1.7181 6.1901-1.75 8.75-1.0178 5.113-1.3585 9.0858-0.875 10.875 2.382 2.7646 4.5173 3.5549 6.75 5.125l15.625 4.875s16.817 8.2116 17.125 8.625c0.5 0.6715 6.875 3.6403 6.875 3.375 4.928 1.0683 9.906 1.8869 15 2.125 5.71-0.2237 11.53-0.3591 15.625-1.875 1.7083-0.8523 3.9167-1.2687 5-5-0.25849-2.3546 0.52924-3.9484-1.375-7.5-3.7473-4.8991-5.223-4.6357-7.25-5.625l-17.625-6c0.1534-1.9539-1.4844-2.306-2.75-3-3.7356-1.2932-7.3023-3.0931-10.375-6.375-2.765-2.4216-5.9442-4.1184-9.375-5.375l-5.875 3.25c-6.4612-1.5733-12.469-4.7327-18.625-7.375-0.89029-0.31326-1.6385-0.47551-2.2793-0.52148zm-0.80078 3.6699c0.54818 0.011 1.1162 0.10029 1.6055 0.14844 2.2446 0.22087 3.745 1.095 5.834 1.9453 2.3081 0.93955 4.4908 2.1685 6.8047 3.0938 2.085 0.83375 4.8424 1.724 6.3652 2.209 0.55589 0.9602-0.50987 2.4406-1.1934 3.3145-1.2183 1.5577-2.8501 2.24-4.8184 2.4316-3.2575 0.3171-6.6305-0.8094-9.5449-2.2988-2.6607-1.3597-5.0976-3.383-6.8066-5.834-0.62918-0.90233-1.2625-1.9996-1.1484-3.0938 0.06863-0.65853 0.85986-1.2276 1.4141-1.5898 0.41156-0.26901 0.9401-0.33719 1.4883-0.32617z" fill="url(#ap)" opacity=".257" stroke="#f00" stroke-width=".35433"/>
  <path d="m20.715 962.21c0.31364-0.7581 0.25584-0.6891 1.3637-0.7664 3.5336 1.0111 3.5469 0.6719 5.9309 2.0279 4.5962 2.5228 9.0295 2.528 13.626 3.5003-0.27776 1.0441-1.0562 1.839-1.812 2.4748-3.927 2.2279-7.6267 0.2399-9.8553-0.2651-4.4222-1.7508-7.056-3.4365-9.253-6.9715z" fill="url(#aq)" opacity=".199"/>
  <path d="m20.715 962.21c0.31364-0.75816 0.25584-0.68911 1.3637-0.76647 3.5336 1.0112 3.5469 0.67192 5.9309 2.028 4.5962 2.5228 9.0295 2.528 13.626 3.5002-0.27776 1.0442-1.0562 1.839-1.812 2.4749-3.927 2.2279-7.6267 0.23992-9.8553-0.26516-4.4222-1.7508-7.056-3.4365-9.253-6.9714z" fill="#f0c496" opacity=".199"/>
  <path d="m16.534 974.62-0.0625 2.6875c1.1917 1.0292 1.8652 1.844 4 3.1875 2.0343 1.2092 4.2954 2.3931 7.8125 3.4375l10.5 3.125c2.7283 1.0499 5.4473 2.0766 8.5 3.9375 3.1587 1.9118 6.1935 4.0714 9.5 5.6875 2.6862 1.3076 5.5011 2.583 9.5 3.5624 4.1263 0.6703 8.1696 1.4442 12.938 1.3125 3.7083-0.2006 7.4167-0.2994 11.125-0.8125 1.6857-0.3632 3.1321-0.547 5.4375-1.375 1.3398-0.90883 2.6504-1.7592 4.3125-3.3125l-1.6875-4.8125-0.75 2.9375c-0.52457 1.297-1.6459 2.1166-3 2.75-1.6476 0.58913-3.3013 1.1741-5.4375 1.4375-4.6581 0.7096-9.4935 0.53246-14.312 0.4375-3.5646-0.18331-6.9002-0.82463-10.312-1.3125-4.0426-1.2557-6.6091-2.9331-9.5625-4.5l-13-6.875-8.875-3.0625c-4.7676-1.2899-8.6489-2.6684-11.75-4.125-2.1828-1.298-4.0184-2.6829-4.875-4.3125z" fill="url(#ak)" stroke="#ceff00" stroke-width=".35433"/>
  <path d="m22.353 953.02c-1.5201 0.11123-2.6861 0.98741-3.3741 2.0032-0.60476 0.89281-1.1943 1.437-1.6649 2.6522-0.53563 1.3832-0.84987 3.935-0.51483 6.0774-1.0064 4.325-0.88857 7.4416-0.90326 11.908-0.59438 0.9368-0.80783 1.9467-0.66048 3.2915 0.3399 3.1024 0.41359 3.9539 1.1493 6.1898 1.6497 1.36 4.2646 3.023 6.972 4.2931 2.5009 1.1733 5.0811 2.0122 7.048 1.964 0.89291-0.76299 1.2594-1.0393 1.8359-1.7685l13.557 6.1202c1.1894 3.4143 5.0993 4.312 8.1169 5.173 7.321 2.0888 14.372 5.439 22.061 5.9551 6.3745 0.4279 12.844 0.081 19.021-1.6446 1.6467-0.46 3.2708-1.5239 4.5017-2.8114 1.3552-1.4175 2.0395-3.2096 1.9141-5.3078-0.14251-2.3847-1.2721-4.2897-2.0748-6.3288-0.12678-1.249-0.25459-2.4429-0.59095-3.9194-1.068-4.6882-5.0966-8.1516-9.7529-9.3336-5.3847-1.3669-10.695-3.1211-15.875-5.11-1.4599-3.5062-5.6201-3.4041-8.3842-5.4164-3.5503-2.5846-6.8051-5.509-9.8746-8.6166-0.68257 0.45654-1.2806 0.62321-1.8837 0.51926-1.2281-0.21169-2.4028-1.2334-3.8347-1.0277-1.4304 0.20547-2.6496 0.87791-3.8086 1.5773-0.66731 0.4027-1.2896 0.95439-1.9836 1.0711-0.74632 0.1255-1.5112-0.12201-2.5181-0.46711-5.3026-1.8173-9.1381-3.6602-14.361-5.9074-0.69948-0.30095-2.6835-1.0797-3.4436-1.1363-0.23116-0.0173-0.45636-0.0159-0.67351 0zm0.42664 1.5594c0.49786-0.0126 2.2885 0.5733 2.7238 0.76157 2.1686 0.93793 5.1375 2.0342 8.2189 3.4756s7.1234 2.9096 8.8252 3.361c-0.12151 0.52992-0.36775 1.0183-0.45408 1.8554-0.82067-0.14232-2.7279-0.81846-3.4458-1.1059-2.8587-1.1445-5.6997-2.5459-8.4124-3.7543-2.6816-1.1945-5.1815-2.042-6.6251-2.2585-1.1738-0.17603-3.8875-0.16618-4.2277 1.4226-0.44056-0.39353 0.02547-2.6018 1.3744-3.3329 0.55749-0.30216 1.5249-0.41214 2.0228-0.42477zm0.09755 3.3225c1.4422 0.21855 4.4744 1.0392 6.9822 2.0683 2.7475 1.1275 5.7786 2.6249 8.4627 3.6807 1.1969 0.47079 2.4565 0.87887 3.7844 1.2186-0.35497 3.566-5.7553 5.1992-9.0883 4.5254-1.8828-0.38063-4.8593-1.6669-6.963-2.7634-2.0399-1.0632-3.4168-2.5542-4.7056-4.3385-0.47394-0.65614-1.3477-1.6306-1.7229-2.9397 0.26538-0.60804 0.82731-1.0629 1.4142-1.3186 0.5073-0.22099 1.2666-0.21916 1.8363-0.13283zm26.503 1.6403c0.53819-3e-3 0.91564 0.24223 1.2623 0.3889 1.5018 0.63536 4.2841 3.8822 5.8791 6.57 1.7044 2.8721 5.4512 4.4651 6.2398 7.9518 0.93605 4.1389 0.6902 8.7297-1.1428 12.608-2.9334-1.1769-6.9516-2.4318-8.3972-3.2416-0.19049-3.3351-1.325-6.7256-3.0504-9.779-1.6428-2.9072-3.8211-5.508-6.2289-7.463-0.65743-2.2324 0.34437-4.3255 2.1009-5.5272 0.7235-0.49496 1.9346-1.155 2.7418-1.4079 0.22009-0.069 0.4159-0.0989 0.5953-0.0999zm3.4349 0.32372c0.737 0.10445 1.3153 0.18006 1.5208 0.0173 4.462 4.5454 9.347 9.7757 15.569 11.689 1.5778 2.8026 4.6622 3.498 7.5477 4.4539 4.845 1.605 9.9997 2.4782 14.567 4.732 4.5498 2.2449 6.9234 8.3932 5.1708 12.901-1.484 3.8171-7.126 3.9196-10.455 4.3714-6.7514 0.9161-15.715-0.1359-19.18-0.6171-1.3094-0.181-4.5865-1.1532-5.8465-1.5338-2.3634-0.714-9.6044-5.5158-15.237-8.4233-1.3018-0.67203-5.1834-2.2318-6.3202-3.0612 0.59844-0.66604 1.2176-1.9598 1.9966-2.6832 1.1609-1.0778 2.1958-2.2607 3.4545-3.1981 1.3727-1.0224 2.8555-1.9015 4.393-2.668 1.5301 2.8002 1.8274 6.3028 2.2052 9.2011 3.2553 1.3714 6.6382 2.3875 9.9984 3.461 2.5092-4.0662 2.6176-9.2583 1.8207-13.829-0.3098-1.7768-2.781-4.5493-3.9172-5.5988 1.3957 0.73211 4.9343 3.6747 6.3571 4.4169 1.568 0.81799 4.7045 0.85363 6.5331 1.7772-1.5336-1.9279-3.484-1.3159-5.3099-2.2204-0.85021-0.42118-2.7391-1.8285-3.1503-2.114-2.3654-1.6421-3.3429-2.6628-5.1817-2.8526-0.99335-0.83198-1.6425-2.0839-2.5593-3.448-1.1858-1.7642-2.6384-3.6833-3.9781-4.7733zm-34.22-0.9675c0.98021 4.9284 5.682 9.0404 9.4762 10.525 3.2485 1.2709 7.98 2.2866 10.565 1.4274 2.9051-0.96535 3.2203-1.8571 4.6103-3.3024 0.7499 0.65398 1.842 1.7908 2.9091 3.0047-1.8513 1.3498-3.8245 2.654-6.1529 2.9656-4.2458 0.56833-8.6969 0.27326-12.593-1.6143-2.1278-1.0309-2.0651-0.47957-6.1442-4.204-1.5412-1.4072-2.4802-3.4429-3.0773-5.4362-0.2983-0.85877 0.20956-2.6795 0.40573-3.3658zm-0.53306 5.4757c0.24051 0.57088 0.49029 1.1381 0.74738 1.6946 0.6504 1.4078 1.661 2.5971 2.8831 3.5674 3.8878 3.0871 8.6306 5.3018 13.648 5.3599 2.4123 0.0279 4.9093-0.033 7.187-0.86688 1.6179-0.59232 3.0173-1.6485 4.3974-2.6723 1.0443 1.2558 1.996 2.526 2.4312 3.4306-0.72625 0.39913-3.7964 2.2252-4.4474 2.7223-2.0923 1.5977-4.6368 4.4081-6.4071 6.3484-3.0673-0.58757-5.7602-1.5274-8.6166-2.4507-3.0714-0.99288-6.2022-1.8839-9.1337-3.7087-1.6591-1.0328-3.1177-2.2056-3.5805-3.6326-0.51295-1.5816-0.01001-5.0024 0.34762-6.8785 0.19276-1.011 0.36039-1.9532 0.54316-2.9135zm34.047 0.19988c-1.2354 0.1344-1.6052 0.84898-1.5121 1.5208 0.0956 0.69017 0.68667 1.3932 1.3644 1.6143 0.6661 0.21725 1.5038-2e-3 1.8554-1.2167 0.27345-0.9446-0.74977-2.0226-1.7077-1.9184zm-9e-3 0.71697c0.71887-0.0125 0.92207 0.51169 0.94075 0.85384 0.0186 0.34096-0.34256 0.80083-0.52143 0.84949-0.49586 0.13492-1.0414-0.33604-1.1102-0.67134-0.0914-0.44537 0.22039-1.0238 0.69089-1.032zm3.6609 3.7065c-1.4811 0.16835-1.7235 1.1307-1.4057 1.9206 0.245 0.60901 0.82828 1.1501 1.4491 1.2645 0.61463 0.11326 1.3504-0.16406 1.6642-1.2666 0.26921-0.9458-0.75028-2.0272-1.7077-1.9184zm0.0174 0.81473c0.4114 0.0287 0.97189 0.49243 0.94292 0.99289-0.028 0.48345-0.52251 0.59643-0.87557 0.56488-0.35101-0.0314-0.80244-0.39533-0.87774-0.71261-0.0829-0.34919 0.32676-0.87884 0.81039-0.84516zm2.5811 3.4002c-1.4856 0.16835-1.7257 1.1336-1.4035 1.925 0.29753 0.7307 1.0822 1.3646 1.8315 1.2732 0.48969-0.0597 1.0395-0.40514 1.2797-1.2818 0.25965-0.94772-0.75159-2.0246-1.7077-1.9163zm0.18468 0.94292c0.38371 0.0583 1.1471 0.86921 0.72565 1.3253-0.20934 0.22653-0.71119 0.29707-1.158 0.0369-0.15425-0.0898-0.5456-0.45804-0.53663-0.71914 0.0166-0.48334 0.58527-0.70133 0.96899-0.64309zm-41.664 1.6946c3.3514 3.9836 8.3711 5.5178 13.227 6.9263 5.5817 1.6191 11.031 3.2342 15.984 5.9356 3.6521 1.992 7.0917 3.7386 10.574 5.9704 6.3785 4.0876 16.042 4.82 24.242 4.821 4.8034 6e-4 9.193-0.4842 13.735-2.1769 1.547-0.5765 3.8395-2.5672 3.7956-3.8999 0.53261 0.588 0.80744 1.1985 0.95596 2.3008-0.69002 1.155-2.2268 2.3595-4.4626 3.2524-2.4305 0.9707-5.4767 1.1992-7.6759 1.4622-5.9444 0.7109-11.993 0.4636-17.918-0.2738-7.7568-0.96565-14.344-5.021-20.916-9.0446-3.33-2.0388-6.9903-3.6602-10.9-4.9862-3.5266-1.196-7.2016-2.0946-10.809-3.4371-3.4414-1.2808-7.1278-2.6898-9.5856-5.5358-0.19375-0.53695-0.27525-0.75369-0.24768-1.3144zm0.20857 2.5528c5.9809 5.4182 14.54 6.6866 21.813 9.2576 4.7586 1.682 8.3626 3.7112 12.488 6.594 2.9991 2.0956 6.5572 3.8738 10.035 5.0904 7.3617 2.5752 15.242 3.0484 22.908 2.5876 4.1386-0.2487 8.5326-0.4622 12.269-2.492 1.0354-0.5626 2.5328-1.8916 3.0352-2.5875-0.019 0.7374 0.0665 0.7961-0.30634 2.0031-1.1894 3.851-5.8204 4.9454-9.4379 5.386-8.5505 1.0416-17.39 0.8577-25.517-2.1423-4.8305-1.7829-9.8416-3.0512-14.665-4.7928-2.0668-0.7462-1.5395-2.7992-4.3344-3.9324-4.5513-2.141-8.612-3.1015-13.163-5.2425-1.1392 1.0201-1.3972 1.1628-2.7315 1.6571-1.8263-0.23327-4.1723-1.406-6.1116-2.3742-2.0422-1.0195-3.8743-2.0964-5.3468-3.4023-1.2968-1.4117-1.0772-3.9073-0.93423-5.6097z" color="#000000" color-rendering="auto" image-rendering="auto" shape-rendering="auto" solid-color="#000000" style="block-progression:tb;isolation:auto;mix-blend-mode:normal;text-decoration-color:#000000;text-decoration-line:none;text-decoration-style:solid;text-indent:0;text-transform:none;white-space:normal"/>
  <path d="m55.064 969.65c-1.0694 0.95718 0.39224 2.5498 1.4375 1.5664 3.3759-3.102 4.8457-3.7751 6.0098-4.0879 1.2179-0.30787 0.98857-2.102-0.53661-1.8744-1.5252 0.22765-3.4148 1.1837-6.9107 4.3959z" color="#000000" color-rendering="auto" fill="url(#av)" image-rendering="auto" shape-rendering="auto" solid-color="#000000" stroke="#000" stroke-linecap="round" stroke-width="1.063" style="block-progression:tb;isolation:auto;mix-blend-mode:normal;text-decoration-color:#000000;text-decoration-line:none;text-decoration-style:solid;text-indent:0;text-transform:none;white-space:normal"/>
  <path d="m57.951 973.76c-1.1107 0.88151 0.21159 2.5475 1.3223 1.666 2.7366-2.1702 4.1492-4.5268 8.2969-4.9922 1.3245-0.12115 0.6961-2.1395-1.0321-1.8842-3.2087 0.25535-6.1928 3.3116-8.5871 5.2104z" color="#000000" color-rendering="auto" fill="url(#aw)" image-rendering="auto" shape-rendering="auto" solid-color="#000000" stroke="#000" stroke-linecap="round" stroke-width="1.063" style="block-progression:tb;isolation:auto;mix-blend-mode:normal;text-decoration-color:#000000;text-decoration-line:none;text-decoration-style:solid;text-indent:0;text-transform:none;white-space:normal"/>
  <path d="m54.387 956.18c-1.1152 0.29581-2.3301 0.54068-3.0748 2.2185l1.6279 0.52539c0.21176-0.46441 0.62916-0.73307 1.4285-1.08 0.39094-0.0793 0.76808-0.11108 0.92773 0.61914-0.12092 1.2423-0.38554 1.3232-0.61718 1.6797-2.2838-0.15777-1.9145 0.65735-2.8301 1.2363-0.18777 1.0613 0.18733 1.3377 0.57617 1.5918 0.43818 0.30155 0.78221 0.0462 1.1035-0.35352l0.53125 2.9609-3.5352 0.75195c-1.5964 0.8552-1.9642 1.8118-2.166 2.7832-0.44897 1.959 0.27018 2.8801 0.83985 3.9336 1.8302 1.445 3.2857 0.91063 3.8438 0.61914 1.493-0.8666 1.7364-2.05 2.3438-3.3594 0.34114-1.6421 0.56906-2.9459 0.79492-4.2422 1.2694 1.7708 1.2287 3.6869 1.502 5.5684 0.16445 1.8291-0.4525 2.877-0.70703 4.2871-0.66996 3.8142-0.63797 4.8258-0.75 6.4082l0.4073 0.96142c-0.11696 1.2901-0.42844 2.1195-0.58503 3.4136 0.52345 0.50139 0.951 1.1937 1.7013 0.2207 0.0426-1.8466-0.0333-2.7386-0.0437-3.3044l0.35069-0.46701 0.20074-2.6817 0.83985-6.3184c0.41362-1.5681 0.57382-2.9845 0.39844-4.1992l-0.83985-4.0215-0.24303-1.7934 0.86022-0.94684c0.14009 0.028 1.0357 0.70129 1.0763 0.76444 0.6233 0.96773 1.2433 0.61381 1.4924 0.29957 0.29418-0.37112 0.1721-0.98731-0.51824-1.4236-0.09449-0.0597-1.4131-0.30877-1.3318-0.42754 0.25063-1.6504-0.31212-1.767-0.49609-2.4394-0.94182-1.0577-1.5725-1.1806-2.166-1.1934-0.24891-1.021-0.57653-1.8054-1.0606-2.1211-0.42227-0.31881-0.76685-0.76638-1.882-0.47058zm-1.0535 11.117c0.16152-3e-3 0.30282 0.0267 0.41602 0.0937l0.57617-0.0449-0.57617 2.5625c-0.45512 0.72335-0.73471 2.535-2.8711 1.9004-0.26871-0.65722-1.0653-0.19181-0.48632-2.6504-0.26795-0.30622 1.8108-1.8418 2.9414-1.8613z" fill="url(#au)"/>
  <path d="m50.973 958.23 0.96875 0.43946c0.57942-0.98346 1.7133-2.2172 2.9258-2.1602 0.65301 0.0307 1.7635 1.5241 1.8086 2.1328-0.58146 0.01-0.90392 0.25481-1.0781 0.5918-0.01-0.91293 0.0374-1.4206-0.54297-1.666-0.97466-0.41205-1.7055 0.5995-2.3516 1.2832 0.25601 0.0663 0.36355 0.22261 0.82422 0.10742 0.39504-0.45694 0.40036-0.86477 1.0762-0.73047 0.67351 0.13385 0.23173 1.5377-0.67383 1.4961-0.33953-0.0156-0.83486 4e-3 -1.1802 0.1368-0.68958 0.26436-1.177 0.84478-1.4038 1.5605-0.35831 1.1309 0.89081 2.3867 2.0254 1.9394 0.20452 0.56383 0.24673 1.2468 0.37109 1.8594-1.7157 0.224-4.1613 0.63399-5.3027 2.041-0.8647 1.0659-0.87585 2.6038-0.61719 3.9102 0.33234 1.6784 1.7727 3.0606 3.5059 3.2188 1.526 0.13922 2.8626-0.87406 3.6055-2.1211 0.87018-1.4607 1.3503-4.8356 1.5078-5.1289s0.76731 2.7142 0.84766 3.8867c0.12965 1.892-0.45971 3.71-0.6875 5.5703-0.26403 2.1562-1.057 6.9311-0.19872 6.9348 0.0341 0.85134-0.53502 1.2052-0.66847 2.0515-0.0836 0.52997-0.3296 1.0187 0.0527 1.5 0.35278 0.4441 0.82543 0.74442 1.1497 0.77166 0.37645 0.0316 1.0288-0.1467 1.2272-0.49822 0.31864-0.56433-0.22825-2.8171-0.26721-3.5799 0.1989 0.0301 0.69903-0.39911 0.74399-0.87103 0.0788-0.82691 0.063-2.6276 0.21821-3.7694 0.29748-2.1882 0.60532-3.4501 0.92611-5.1273 0.34597-1.8088 0.44596-3.5152 6e-3 -5.334-0.31031-1.2825-0.55618-2.6336-0.98046-3.8828 0.0655-0.36127 0.0988-0.7209 0.11328-1.0352 0.40071 7e-3 0.60607-0.19708 0.96434-0.60328 0.61143 0.40592 1.3656 1.1794 1.8599 1.5584 0.78992-0.52051 0.615-1.1463 0.25976-1.7227-0.3991-0.64752-0.84474-0.5263-1.7402-0.8125-0.0255-0.7477 0.0642-1.9724-0.71094-2.6777-0.77564-0.70585-0.99898-0.83613-1.748-1.0078-0.58962-1.701-1.3963-2.7843-2.9554-2.9188s-3.1753 1.2844-3.8806 2.6571zm6.541 1.207c1.0172 0.13132 1.3628 0.32535 1.7188 1.2754 0.28413 0.75834 0.0414 1.4676-0.29297 1.8242 0.23016-1.192-1.4456-2.3981-2.6367-2.6582 0.48456-0.27455 0.97567-0.47177 1.2109-0.4414zm0.29476 2.4188c-0.15541 0.15793-0.28997 0.15135-0.42366 0.13593-0.63286-0.073-1.3513-0.15396-2.1175-0.16538-0.76626-0.0114-1.3498 0.0295-1.7809 0.22202-0.41529 0.18547-0.43163 0.49423-0.60156 0.55078-0.34832 0.11592-0.68773 0.049-0.76562-0.54687-0.0452-0.34557 0.39199-0.99656 0.83593-1.1465 0.52783-0.17827 1.0356-0.15172 1.7598-0.17773 0.36208-0.013 0.59511-0.0395 0.83984-0.0156 0.24474 0.0239 0.50118 0.0976 0.9339 0.29904s1.4752 0.68638 1.3198 0.8443zm-0.99031 0.77972c0.5242 0.0408 0.92225-4e-3 1.1792 0.26367 0.54252 0.31443-0.0836 0.675 0.0574 1.2214l0.14649 2.2676c0.45539 1.4543 1.0908 2.9321 1.0547 4.457-0.0683 2.887-0.95508 5.687-1.1465 8.5723-0.0761 1.1471-0.21395 2.997-0.25547 3.3648-0.0608 0.53858-0.15191 0.55646-0.42611 0.6015 9e-3 0.46174 0.20783 2.642 0.18331 3.1246-0.0139 0.27428-0.39193 0.35571-0.54472 0.37537-0.2949 0.0379-0.59659-0.0662-0.57224-0.48186 0.0377-0.6428 0.47741-2.2184 0.46485-3.2067-0.32401-0.0844-0.25305-0.46396-0.24235-0.66677 0.0129-0.24501 0.0753-2.3797 0.45652-4.7332 0.17971-1.1094 0.32635-2.2039 0.59777-3.1297 0.40255-1.373 0.58604-3.2252 0.33649-4.6602-0.25077-1.442-0.65675-2.933-1.5488-4.0371-0.10182-0.42807-0.56831-2.8626-0.30468-3.2148 0.10224-0.13663 0.38949-0.1315 0.56421-0.11792zm-2.2907-0.15105c0.30441-8e-3 0.57742 0.20446 0.65032 0.26509 0.26033 1.0237 0.57778 4.342 0.20703 6.4238-0.46961 1.3926-1.1637 3.1082-2.3359 4.0586-1.1851 0.96078-3.3299 0.029-4.002-1.2129-0.61751-1.1411-0.56415-2.7416 0.0684-3.8691 0.66666-1.1884 3.4041-1.9143 4.6582-2.1699-0.0157 0.39165-0.01 0.63681-0.0332 0.83203-1.3348 0.14072-2.7609 0.45011-3.4082 1.7324-0.53904 1.0679-0.83234 2.2492 0.0215 3.209 0.94313 1.0602 2.4073 0.708 3.1016-0.43164 0.68214-1.1198 1.0567-2.3419 1.1719-3.6524 0.0864-1.64-0.2534-3.1174-0.57031-4.7207 0.0919-0.15992 0.16635-0.45621 0.47077-0.46431zm5.3698 0.67904s0.83717-0.58482 1.5012 0.28722c0.18764 0.2464-0.35351 0.66407-0.35351 0.66407zm-6.8562 7.1915c-0.32604 0.77628-1.0593 1.5043-1.8789 1.1699-0.80847-0.3298-0.56656-1.4924-0.39062-2.1777 0.25085-0.97715 0.89463-1.2244 1.7593-1.4662 0.19998-0.0559 0.94334-0.1096 1.069-0.0339 0.0593 0.27454-0.23273 1.7317-0.55877 2.5079z" color="#000000" color-rendering="auto" image-rendering="auto" shape-rendering="auto" solid-color="#000000" style="block-progression:tb;isolation:auto;mix-blend-mode:normal;text-decoration-color:#000000;text-decoration-line:none;text-decoration-style:solid;text-indent:0;text-transform:none;white-space:normal"/>
  <g transform="translate(2.375 .875)">
   <path d="m1.9801 981.99c-0.39543 1.431-0.99802 2.0334-0.69524 6.2572-1.1971 6.2876-0.28267 8.352-0.41714 12.514 0.035178 1.6909 0.062735 3.397 0.2781 4.7276l-0.2781 7.5086c-0.1653 1.2394 2.0196 3.9052 2.781 4.5886l10.846 5.979 3.3372-1.6685 11.819 8.3428c1.6382 0.865 1.833 1.626 2.5724 2.8505 5.5668 3.2176 12.955 5.1686 16.06 5.6315 8.3952 1.4719 15.798 1.3996 22.526 0.2781 5.1122-1.3029 10.375-2.1524 14.6-6.1182 1.9358-2.7438 2.1837-5.3669 1.5295-7.9257-0.66719-1.3651-1.0504-2.9259-2.4333-3.7543-0.10907-2.9268-0.35075-5.721-1.7381-7.3695-4.442-5.0169-8.1732-6.7169-12.097-9.3162l-11.402-5.562c-1.4098-2.0908-3.0569-3.4486-5.576-4.0605l-14.044-11.68c-0.82705-0.56634-1.5593-0.2838-2.2107 0.0281l-5.5619 2.92c-1.288 0.57864-2.6986 0.29877-4.1714-0.41714l-15.991-5.1448c-3.0438-0.18852-5.978-0.73352-9.7334 1.3905z" fill="#ffd2a2" stroke="#0f0" stroke-width=".35433"/>
   <path d="m8.0889 980.37c-0.72807 0.01-1.4618 0.0378-2.1953 0.0664-3.6447 0.71541-3.6571 1.854-4.2539 2.9316l-0.88477 6.3652v10.594l1.0605 5.0019c0.97943 1.2964 1.6228 2.9912 3.5879 4.4531 1.8175 1.3521 4.2766 2.6288 8.7871 3.6387 3.8221 1.224 5.536 2.9746 8.1758 4.4941 0 0 6.5935 5.3585 11.094 8.0567 4.2359 2.5397 9.2704 3.5992 14.141 4.4199 7.4993 1.2637 12.328 1.1314 19.93 0.8945 4.059-0.1265 10.47-2.0318 13.574-4.5449 1.3655-1.1055 3.3594-4.4492 3.3594-4.4492-0.24744-2.7695 0.14116-6.1016-2.0371-8.8711-4.4387-3.7151-8.073-7.8056-14.85-10.43l-7.6016-3.8887c-1.4251-1.4382-2.4287-3.088-4.7734-4.0664-2.5543-0.69676-5.2352-2.7848-7.9551-5.3027-2.2887-3.196-5.3924-5.171-8.3086-7.4258-3.3594 1.8561-8.0752 4.631-8.7461 4.1914-2.7955-0.29848-15.826-5.252-15.826-5.252-1.9563-0.76915-4.0931-0.90543-6.2773-0.87696zm0.070312 4.0606s2.2685 0.23728 3.375 0.5c2.455 0.58288 6.4375 2.375 7.1875 2.375s5.2021 1.8513 7.8125 2.75c1.4773 0.5086 4.6933 0.34 4.8125 0.25l3.0625-2.3125c-0.90962 1.9792-2.5044 3.8958-2.1875 5.875-0.79986 0.57514-4.6078 2.0266-6.375 3.5-1.7773 1.4818-4.1938 2.0608-6.5 2.25-1.7143 0.14068-3.4851-0.43895-5.0625-1.125-0.84838-0.36899-1.4929-0.78075-2.25-1.3125-0.84642-0.59452-1.7767-1.0773-2.5625-1.75-1.7802-1.524-3.7088-3.0577-4.8125-5.125-0.65452-1.226-1.5769-2.8286-0.9375-4.0625 0.73515-1.4186 4.1902-1.8491 4.4375-1.8125z" fill="url(#ar)" stroke="#ff7900" stroke-width=".35433"/>
   <path d="m0.84668 1008.4 1 7.625 12.687 7.875 4.125-1.5 12.062 8.25 1.9375 2.875 16.812 5.5 17.875 0.75c4.4584-0.8325 8.9503-1.4311 13.25-3.375 2.6397-1.4869 5.332-2.9403 6.1875-5.5625 0.7712-2.1878 0.50204-3.4839 0.125-4.6875-3.8323 4.2955-8.4103 5.9063-13.062 7.25-8.3542 1.5668-16.708 1.4898-25.062 0.5625-5.8333-1.2749-11.667-1.6454-17.5-6.0625-9.2254-7.517-12.834-9.4169-16-10.875-4.5701-1.319-7.9361-3.4981-11.375-5.625z" fill="url(#ah)" stroke="#f00" stroke-width=".35433"/>
   <path d="m0.84668 1008.4 1 7.625 12.688 7.875 4.125-1.5 12.062 8.25 1.9375 2.875 16.812 5.5 17.875 0.75c4.4584-0.8325 8.9503-1.4311 13.25-3.375 2.6397-1.4869 5.332-2.9403 6.1875-5.5625 0.7712-2.1878 0.50204-3.4839 0.125-4.6875-3.8323 4.2955-8.4103 5.9063-13.062 7.25-8.3542 1.5668-16.708 1.4898-25.062 0.5625-5.8333-1.2749-11.667-1.6454-17.5-6.0625-9.2254-7.517-12.834-9.4169-16-10.875-4.5701-1.319-7.9361-3.4981-11.375-5.625z" fill="url(#am)" opacity=".229" stroke="#f00" stroke-width=".35433"/>
   <path d="m5.8819 991.42c2.7968-2.5845 6.6468 0.4478 10.076 1.2375 4.6179 1.7631 9.4716 1.8757 14.319 2.0329-2.0419 1.6704-4.156 3.2687-6.8943 4.2426-2.291 0.3139-4.3034 0.9993-7.2478 0.442l-5.5685-3.182c-2.0961-1.591-3.765-3.182-4.6846-4.773z" fill="url(#an)" opacity=".229"/>
   <path d="m1.4458 1004.9-0.66161 3.1629 4.3018 4.2424c3.1669 1.4532 5.1974 2.859 10.073 4.6326 2.762 1.0618 5.5823 2.7656 8.4621 5.1237 3.0126 2.8138 6.0253 4.4424 9.0379 6.6263 3.1364 1.7226 6.0372 3.2787 10.375 4.125 5.5 1.3046 11 1.7455 16.5 2 5.263-0.4383 10.214-0.3565 16.125-1.875 2.8112-0.927 5.3031-1.5493 8.75-4.5l2.625-2.875c-0.17751-1.6673-1.0262-2.9076-2.5-3.75-0.70866 2.2215-1.9779 3.1349-3 4.625-2.8085 2.0911-5.8353 3.1995-8.875 4.25-5.3561 0.5378-10.686 1.1271-16.5 0.75-5.8865-0.7428-11.666-1.1651-18-3.25-5.1938-1.9284-9.1352-5.2483-13.323-8.2942l-4.9268-3.8308-6.75-3.125c-3.9848-0.6856-4.9255-1.7294-7.125-2.625-1.5491-0.9792-3.1536-3.4051-4.5884-5.4129z" fill="url(#ai)" stroke="#65ff00" stroke-width=".35433"/>
   <path d="m8.0889 980.37c-0.72808 0.01-1.4618 0.0378-2.1953 0.0664-3.6447 0.71541-3.6571 1.854-4.2539 2.9316l-0.88477 6.3652v10.594l1.0606 5.0019c0.97943 1.2964 1.6228 2.9912 3.5879 4.4531 1.8176 1.3521 4.2766 2.6288 8.7871 3.6387 3.8221 1.224 5.536 2.9746 8.1758 4.4941 0 0 6.5935 5.3585 11.094 8.0567 4.2358 2.5397 9.2704 3.5992 14.141 4.4199 7.4993 1.2637 12.328 1.1314 19.93 0.8945 4.059-0.1265 10.47-2.0318 13.574-4.5449 1.3655-1.1055 3.3594-4.4492 3.3594-4.4492-0.24744-2.7695 0.14115-6.1016-2.0371-8.8711-4.4387-3.7151-8.073-7.8056-14.85-10.43l-7.6016-3.8887c-1.4252-1.4382-2.4287-3.088-4.7734-4.0664-2.5543-0.69676-5.2352-2.7848-7.9551-5.3027-2.2887-3.196-5.3924-5.171-8.3086-7.4258-3.3594 1.8561-8.0752 4.631-8.7461 4.1914-2.7955-0.29848-15.826-5.252-15.826-5.252-1.9563-0.76915-4.0931-0.90543-6.2773-0.87696zm0.0703 4.0606s2.2685 0.23728 3.375 0.5c2.455 0.58288 6.4375 2.375 7.1875 2.375s5.2021 1.8513 7.8125 2.75c1.4773 0.5086 4.6933 0.34 4.8125 0.25l3.0625-2.3125c-0.90962 1.9792-2.5044 3.8958-2.1875 5.875-0.79986 0.57514-4.6078 2.0266-6.375 3.5-1.7773 1.4818-4.1938 2.0608-6.5 2.25-1.7144 0.14068-3.4851-0.43895-5.0625-1.125-0.84838-0.36899-1.4929-0.78075-2.25-1.3125-0.84642-0.59452-1.7768-1.0773-2.5625-1.75-1.7802-1.524-3.7088-3.0577-4.8125-5.125-0.65452-1.226-1.5769-2.8286-0.9375-4.0625 0.73515-1.4186 4.1902-1.8491 4.4375-1.8125z" fill="url(#al)" opacity=".214" stroke="#ff7900" stroke-width=".35433"/>
   <path d="m5.8819 991.42c2.7968-2.5845 6.6468 0.44782 10.076 1.2374 4.6179 1.7632 9.4716 1.8757 14.319 2.0329-2.0419 1.6704-4.156 3.2687-6.8943 4.2426-2.291 0.31389-4.3034 0.99923-7.2478 0.44194l-5.5685-3.182c-2.0961-1.591-3.765-3.182-4.6846-4.773z" fill="#bc966d" opacity=".229"/>
   <path d="m1.0904 983.14c-1.0259 4.285-0.76771 8.7683-1.3134 13.127-0.41944 3.3503 1.0919 6.9122 0.56632 9.9219-1.1202 3.3486-0.6914 7.4796 1.2087 10.482 3.2306 3.0312 7.2981 5.0635 11.139 7.2243 0.7753 0.4748 1.8001 1.0923 2.7849 0.4048 0.93814-0.5949 1.475-0.7861 2.9371-1.0984 2.7946 1.868 7.7346 5.5295 10.263 7.2407 1.6486 1.1157 2.1809 2.2743 3.1462 3.4198 6.9543 3.766 15.735 5.9964 23.582 6.5221 7.1276 0.4775 14.439 0.4699 21.328-1.8284 4.4552-1.4864 10.087-3.6655 11.014-8.577 0.58742-3.1122 0.14508-6.7176-2.3825-8.9152-0.26761-3.4379-0.55185-7.1505-3.4468-9.6378-6.5032-5.5875-14.075-9.6943-21.826-13.148-2.1321-1.9154-2.7631-3.546-5.781-4.0499-2.7328-2.627-7.0598-6.3149-9.9494-8.7521-1.495-1.2609-3.7369-3.5262-5.7993-3.7751-0.9642-0.11635-1.7604 0.31601-2.6802 1.2819-1.3315 1.3982-3.0108 2.0293-4.8029 2.1726-2.4837 0.19862-5.1838-0.5398-7.4741-1.4718-5.0702-2.0633-10.466-3.8209-14.403-3.8509-2.0732-0.0158-3.9912-0.0206-5.4589 0.4642-1.3195 0.43586-2.2751 1.2675-2.6522 2.8426zm31.779 5.1517c-0.85714 0.82617-2.0045 1.5268-2.7618 1.6168-1.6815 0.19989-3.0653-0.38462-4.5016-0.8952-4.4232-1.5724-10.467-3.711-15.041-4.7657-2.7263-0.62861-5.6195-0.15361-7.0294 1.4786-1.0277 1.1896 0.33339 4.177 0.94067 4.9582 1.8548 2.3859 4.9611 5.6091 7.1474 6.3582-2.7991-0.90129-4.9899-1.9976-7.7773-5.7466-1.2288-1.6527-2.2976-4.6592-1.7203-6.7882 0.3322-1.2253 1.3149-2.7896 2.6024-3.1125 0.87966-0.22063 2.3326-0.35398 3.2459-0.29982 7.3142 0.43378 13.697 4.0517 20.61 6.1343 2.135 0.64316 4.3871-0.40466 6.1326-1.2461 1.6093-0.7758 2.6708-2.3819 4.0379-2.0292-0.16187 0.29104-0.36461 0.72866-0.57258 1.2396-1.9435 0.68988-3.8352 1.673-5.3132 3.0975zm7.1297-3.7871c2.298 2.0191 4.396 3.8062 6.8199 5.7404 2.769 2.2095 5.4264 5.0505 8.8779 6.1103 2.126 1.8458 3.5388 4.2112 6.3474 4.9974-1.2436 0.9169-5.92-1.9603-8.5564-2.0149-5.2964-0.59633-9.7752-3.7632-14.045-6.7054-2.1028-2.4388-1.3724-5.9084 0.55619-8.1278zm-17.273 4.7562c3.0612 0.97699 6.438 3.1526 9.7605 0.95468-0.37403 0.66909-0.50288 1.3235-0.6253 1.7008-0.2383 0.73448-0.37154 0.93768-0.66084 1.5277-2.9479 0.96247-5.5893 3.7245-8.7112 4.8398-0.70635 0.25235-4.0082 1.6238-7.8782-0.21778-3.3866-1.2028-4.8548-2.9384-7.2763-5.3857-0.93769-0.94765-2.2638-2.1688-3.0623-3.911-0.39377-0.85918-0.26355-2.2441 0.15481-2.6954 0.59251-0.63919 3.6019-1.6589 6.426-1.006 2.8289 0.65403 7.2396 2.7142 11.873 4.1929zm14.974-2.1832c-0.1983 0.66714-0.5486 1.3701-0.60015 1.8996-0.12639 1.2983-0.42818 2.2398 0.16877 3.2736-1.1182-0.10501-2.9329 0.58979-3.9548 0.75481 0.1887-1.0997 0.3048-2.4874 1.747-4.5309 0.68827-0.97525 1.9123-1.4878 2.6392-1.3971zm-35.635 4.3338c2.5112 4.1302 6.8778 6.4943 11.417 7.9654 4.9452 1.6026 11.246 1.1548 15.091-2.5259 0.3723 1.385 0.80768 3.2232 1.4125 3.936-5.1192 2.9755-13.44 4.7087-18.832 2.1221-3.9234-1.8824-6.5772-5.589-9.2695-8.8969 0.05471-0.86723 0.11385-1.7342 0.18033-2.6006zm44.311 0.65396c-1.6008 0.68513-1.2631 1.7372-0.51511 2.2759 0.56193 0.40472 1.3993 0.60935 1.963 0.44266 0.62992-0.18626 0.99359-0.88475 0.09898-2.1885-0.32394-0.47207-1.0339-0.74966-1.5469-0.53012zm1.3161 1.9252c-0.22067 0.30887-0.76088 0.26948-1.0838 0.0597-0.35168-0.22837-0.78201-0.66873-0.5241-1.0157 0.28213-0.37955 0.82277-0.20841 1.1795-0.0368 0.35677 0.17162 0.6182 0.72708 0.42839 0.99276zm-10.96-0.46519c1.632 0.012 3.1048 0.82523 4.3849 1.8051 1.8708 1.4322 3.313 3.5379 4.1476 5.7282 1.603 4.2067 3.0519 9.1119 0.52604 13.152-0.54255 0.8677-1.1374 2.2696-1.7606 3.3768-0.61066 1.0848-1.3385 1.6849-2.73 0.9886-1.9867-0.9942-4.0872-1.7526-6.1066-2.6735-0.42512-3.3193 0.76365-6.7918 0.11349-10.167-2.4597-2.4521-6.0606-6.9775-4.9124-9.9622 2.0523-0.93788 4.0593-2.2647 6.3376-2.2479zm13.805 1.4752c-1.1784 0.21696-0.65825 0.58663-0.12282 1.1098 0.37745 0.36882 0.73136 0.49516 1.2537 0.72598 0.63289 0.2797 1.0927 0.18032 0.3031-0.98628-0.3046-0.45004-0.86306-0.9546-1.4339-0.84951zm-13.073 0.79084c-1.4897 0.2629-1.745 1.1151-1.4661 1.8004 0.32221 0.79156 1.381 1.4755 2.1797 1.2851 0.5442-0.12971 1.1159-0.67628 0.95489-1.8495-0.09885-0.72021-0.91863-1.3684-1.6685-1.2361zm-35.67 0.0174c3.4945 4.4083 7.7513 8.7389 13.703 9.5819 5.4319 0.7693 10.608-1.0286 15.216-3.6007 0.46926 1.0895 1.6609 2.1708 2.2216 3.0693 0.34159 0.5473 0.34974 0.7786-0.08283 1.1507-0.28189 0.2425-0.77323 0.4689-1.5191 0.8281-2.2176 1.0681-4.5876 2.1969-6.6891 3.6048-1.7009 1.1396-3.2036 2.5063-4.2308 4.3242-1.1197 1.6074-4.5594-1.7556-6.8883-2.1829-4.2968-0.7886-8.8206-2.8728-10.673-7.2137-1.168-3.0323-1.1595-6.3613-1.0581-9.5617zm36.158 0.64526c0.50279 0.10022 0.74552 0.79822 0.65248 1.2512-0.07017 0.34157-0.62057 0.64305-1.2512 0.39453-0.17574-0.0692-0.63034-0.55878-0.6093-0.93168 0.02937-0.52033 0.78524-0.7983 1.208-0.71403zm7.0362 1.1298c4.1618 2.9908 9.5455 2.4746 14.013 4.688 3.2702 1.1454 6.1163-0.8 8.9872 1.9618 5.151 2.8398 10.689 6.1445 14.339 10.591 0.79184 2.3911 1.5395 5.0816 1.2912 7.2847-1.9311 4.4897-7.0322 7.3073-11.687 7.9374-10.13 1.3711-20.549 0.8848-30.493-1.4773-6.9576-1.6526-12.49-6.3082-18.026-10.548-1.107-0.8479-1.9455-1.4479-2.0355-2.1627-0.07996-0.6351 0.27401-0.982 0.78335-1.663 1.0105-1.3511 2.8022-2.6983 4.053-3.3255 2.4214-1.214 7.7754-5.5069 8.0334-3.5782 0.33399 2.497-0.5693 5.1533-0.32228 7.6083 0.06268 0.6229 0.24908 1.7295 1.0451 2.1221 2.5005 1.3275 4.6449 2.1631 7.3252 3.1793 0.9126 0.3051 2.0412-0.8846 2.6933-1.8757 1.0245-1.5572 1.7694-3.6343 2.5314-5.1419 1.1922-2.3587 1.0415-4.9406 0.54112-7.3999-0.58016-2.8516-1.8574-5.643-3.0726-8.1998zm-4.2953 2.3616c-1.4166 0.24661-1.7156 1.0393-1.5044 1.6971 0.31343 0.9758 1.7885 1.8409 2.6126 1.2004 0.34027-0.2644 0.70052-0.7968 0.56032-1.6615-0.11634-0.7176-0.91833-1.3666-1.6685-1.236zm0.16481 0.93571c0.44805 0.055 0.76169 0.6506 0.67639 1.1095-0.09161 0.4928-0.46728 0.4807-0.82486 0.3373-0.50852-0.2041-1.0208-0.567-0.9473-0.9575 0.07111-0.3779 0.6087-0.549 1.0958-0.4893zm1.3126 4.1808c-1.6637 0.3001-1.793 1.2998-1.3462 2.037 0.45291 0.7474 1.5167 1.3165 2.2513 0.9834 0.44863-0.2033 0.91552-0.7543 0.7634-1.7843-0.10621-0.7192-0.91911-1.3713-1.6685-1.2361zm0.33862 1.0101c0.43038 0.1719 0.75972 0.7527 0.67274 1.0191-0.1153 0.3532-0.68381 0.5705-1.1742 0.3254-0.18721-0.094-0.73215-0.6146-0.67151-0.9387 0.05184-0.277 0.6993-0.5947 1.173-0.4058zm-40.269 0.5803c2.5505 5.3195 8.8748 5.9645 13.693 8.099 8.2795 3.6675 14.042 11.643 22.931 14.274 9.7132 2.8753 20.033 3.5374 30.075 2.6249 5.205-0.4729 11.667-2.8826 14.47-6.23 0.73155-0.8735 1.1556-1.6175 1.6004-2.3851 0.30967 0.1567 0.81154 1.2059 0.7782 2.1648-1.8777 3.5779-5.8102 5.8459-9.6916 6.8599-7.3608 1.923-15.07 2.1909-22.598 1.7197-8.7865-0.55-17.888-2.6591-24.77-8.5304-4.9708-4.2405-10.361-8.0675-16.578-10.326-3.9299-1.4276-8.4569-3.2482-10.274-7.3262 0.066681-0.3366 0.23755-0.6311 0.36283-0.945zm-0.50622 3.1372c4.901 6.0317 13.409 6.4085 19.352 11.028 5.9511 4.626 11.74 9.9317 19.252 11.909 10.824 2.8491 22.342 3.3984 33.285 1.258 4.1118-0.8043 8.1586-2.5425 10.726-4.8185 0.55066-0.4881 1.4873-1.0045 1.8279-1.9791 0.26164 0.3093 0.0464 2.377-0.59662 3.6013-0.67629 1.2874-2.2072 2.5314-3.0966 2.983-4.4739 2.272-9.2574 4.224-14.201 4.6531-11.5 0.9985-23.404-0.5805-33.973-5.6129-2.5182-1.1991-2.872-2.9801-5.1845-4.5305-3.663-2.4562-6.8823-4.6812-10.696-6.9037-0.95056 0.5037-2.2148 0.7954-3.1892 1.2294-0.53946-0.089-1.8499-0.5763-2.5983-0.988-3.3573-1.847-7.0414-3.6847-9.7867-6.4836-0.9605-1.6059-0.94242-3.5436-1.1225-5.3461z" color="#000000" color-rendering="auto" image-rendering="auto" shape-rendering="auto" solid-color="#000000" style="block-progression:tb;isolation:auto;mix-blend-mode:normal;text-decoration-color:#000000;text-decoration-line:none;text-decoration-style:solid;text-indent:0;text-transform:none;white-space:normal"/>
   <path d="m51.502 979.64c-0.44939-3e-3 -0.98847 0.0202-1.6504 0.0723l-5.4805 2.0762c-0.92855-0.54221-1.9612-0.46318-3.0059-0.3086-1.3904 0.62012-1.5084 0.92246-2.0332 1.3262-0.47176 1.4589-0.64337 1.9589-0.2207 3.623-0.87567 0.16041-0.6884 0.58675-0.66211 0.97266-1.6858 0.55979-0.95355 1.1199-0.88477 1.6797l0.79688 0.70703c-0.98126 3.3513-1.5353 2.8505-2.2988 4.2422-3.099 1.6549-3.8796 2.979-5.4805 4.4199-2.0116 2.7578-2.1749 5.0877-2.7402 7.5117 0.45476 3.2857 1.6456 4.0716 2.6523 5.4805 2.3143 2.218 4.0961 1.0894 4.8613 0.4414 1.9912-1.8211 1.788-3.3492 2.1211-4.9492l0.79492-9.8105c0.51058 0.0298 1.299-0.77303 2.0332-1.4141 0.15714 2.4945 0.29626 4.984-0.35352 7.248-0.27128 2.8871-1.2513 4.887-1.9434 7.2481l-1.7246 9.8984c-0.54393 0.3543-0.57134 1.0116-0.76172 1.6016-0.06534 0.5751-0.60626 0.8762-0.34375 1.6699l1.3711 0.1758c0.98684-0.5819 1.7093-2.2405 1.5751-4.1343 0.62045-1.9548 0.66465-4.819 1.3643-8.1997 0.42128-2.0356 1.0226-3.9004 1.4355-5.7852 0.14656 0.7524 0.12252 1.76 0.70703 1.8555 0.7512 0.8532 1.398 0.4508 2.0332-0.088 0.41756-3.1899 1.7693-4.0647 3.1816-6.0976l5.127-4.5977c-0.17746-1.1617-0.63275-1.4877-1.2812-1.2363-2.4085 1.3848-3.6477 2.7696-5.1719 4.1543l-3.8008 5.5683c-0.76607-0.2062-0.1801-1.7636 0.17773-3.0937l2.1211-4.5977c1.383-1.6048 2.4477-2.5924 3.7129-3.1367 0.30921-0.74138-7.97e-4 -1.3216-0.39844-1.5918-0.57452-0.29084-1.1501-0.19543-1.7246 0.2207-3.5813 3.2946-2.7646 2.8972-3.7109 3.9785-0.3308-1.5139-0.43548-2.8456-0.17773-3.8887l1.1504-3.0059c-0.1549-1.1469-0.61287-1.9158-1.2383-2.4746 0.96854 0.26143 1.7949 0.379 2.6523 0.5293 2.4451 0.14724 3.9707-0.28889 5.5684-0.35351 0.24886 0.55165 0.49413 1.1011 0.97266 1.7676l0.4856 2.123 1.8108 1.6335-0.5288-3.9324-1.2832-2.2988c1.2303-0.92361 2.1405-1.7425 2.7852-2.7832 0.36509-1.1501 0.9079-2.242-0.08789-3.8457-0.61612-0.35729-1.1557-0.59337-2.5039-0.60156zm-0.60156 1.9102c0.46467 0.0198 0.94702 0.22187 1.5137 0.8125-0.0044 0.9908-0.17083 1.6371-0.83984 2.0332-0.42721 0.25292-1.0747 0.6893-1.502 0.70703l-3.3594-2.3867c0.48614-0.44195 2.7852-0.88281 2.7852-0.88281 0.49149-0.13934 0.93768-0.30297 1.4023-0.28321zm-6.9277 2.0957 4.1113 2.2539c-0.60914 0.24666-1.49 0.41288-3.5371 0.26367-0.83951-0.0612-2.6439-0.96475-2.3848-0.92773zm-7.3359 11.887s-0.20061 4.6627-0.44141 6.9825c-0.24435 2.354-0.40304 4.7715-1.1934 7.1601-0.41323 1.2489-1.5208 1.0709-2.3867 0.8399-0.44614-0.119-1.9675-1.3628-2.4746-2.5625-0.60229-1.4248-0.54564-3.0952-0.17773-4.5977 0.44032-1.7982 1.3012-3.2897 2.5195-4.6836 1.1079-1.2676 4.1543-3.1387 4.1543-3.1387z" fill="url(#as)"/>
   <path d="m51.834 978.81c-2.7946 0.21454-4.6919 1.1535-7.1432 2.4575-1.6428-0.79832-4.8031 3e-3 -5.6413 1.4375-0.4797 0.82087-0.83029 2.5762-0.40372 3.4565-0.19297 0.18125-0.41556 0.13282-0.67296 1.0603-0.12442 0.44833-0.78874 0.43623-0.88818 0.86794-0.16605 0.72089 0.62267 1.2453 0.60005 1.5355-0.18049 2.316-1.6204 3.8193-3.5339 4.9654-2.8064 1.6808-4.9754 4.3941-5.9473 7.5957-0.88381 2.9115-0.74969 6.2537 1.3281 8.6621 1.2173 1.411 3.0242 2.8761 4.9492 2.0488 2.7454-1.1799 3.3992-4.4999 3.6152-7.1855 0.20509-2.5494 0.27484-5.8136 0.61083-8.3211 0.54024-0.31433 0.90406-0.75748 1.1189-0.741 0.15001 3.0339-0.24254 7.0492-1.2415 9.9312-1.5318 4.4194-1.3894 7.9171-2.3752 12.466 0.54969 0.2942-1.7382 2.731-1.3171 4.2414 0.24012 0.8613 1.5514 1.1754 2.3095 0.4622 0.6331-0.5956 1.0481-1.6164 1.2457-2.38 0.22684-0.8769-0.39562-1.8849-0.0014-1.8043 0.65827-1.8595 1.0268-6.3713 1.5135-8.9304 0.39163-2.0591 0.42-1.7187 0.94339-3.3247 0.88543 1.1727 2.0743 0.997 2.81 0.2865 0.7254-0.7006 0.9143-1.9629 1.315-2.7123 1.628-3.0445 4.2044-5.5397 6.9766-7.5215 0.78844-0.69628 0.53638-1.7266-0.09705-2.3113-0.51976-0.47979-1.2963-0.65957-1.9655-0.10859-3.3403 2.3586-6.104 5.4973-8.082 9.0723 0.10058-1.5406 0.8486-2.8403 1.4941-4.2207 0.92546-2.0677 2.4709-3.8263 4.4082-5.002 0.7461-0.59876 0.77934-1.6444 0.30126-2.2668-0.47778-0.62201-1.4664-0.82111-2.2349-0.2586-1.3722 0.5084-3.2148 2.4718-3.8906 3.6094-0.04387-2.4464 1.2654-4.1812 1.333-6.2446 0.03129-0.95611 0.02346-0.95936-0.52976-1.4851 2.1211 0.27591 4.585 0.53865 6.6441-0.10203 0.80856 1.3244 1.1671 1.8107 1.4745 3.0966 0.49385 0.29675 0.72484 0.58322 1.0418 0.87301 0.13525-0.58808-1.0135-4.0396-1.4796-4.2891 0.24732-0.16637 0.55224-0.11948 0.71128-0.3585 0.68502 1.6254 1.5792 3.5499 1.5127 5.368 0.31279 0.22193 0.72139 0.65863 1.0879 1.0052-0.0044-1.1068-0.0231-2.7051-0.40852-4.03-0.33678-1.1577-0.88366-2.0104-1.2567-2.8729 0.77081-0.55841 1.6741-1.4669 2.2979-2.4953 0.68957-1.1369 1.0377-2.4203 0.48782-3.5394-0.65025-1.3235-1.6393-1.9671-3.0202-1.9934zm-1.0699 1.3919c1.7449-0.23611 2.4835 0.21346 2.9626 1.0501 0.32856 0.57375 0.51421 1.7006 0.16027 2.3955-0.72481 1.423-2.1556 2.4962-3.5228 3.1277-1.8166 0.83912-4.202 0.68834-6.1567 0.5459-0.88384-0.0644-3.4691-0.2753-1.9102-1.0664 3.4414 0.8909 7.6058 0.60436 10.117-2.2383 1.2762-1.4446-0.46261-3.4224-2.1426-2.9258-2.398 0.70893-5.5578 1.5056-6.9922 2.7148-0.93322 0.78676-2.5624 2.8499-2.8145 2.6699-0.58379-0.90812 2.1389-3.7044 4.0586-4.457 2.036-0.79824 4.0533-1.5205 6.2402-1.8164zm0.04492 1.834c1.3091-0.0479 1.4329 0.74462 1.0859 1.3438-0.34925 0.60307-1.1359 1.082-1.5967 1.4441-0.52606-0.38174-2.3437-1.7865-2.4151-1.9636 0.77026-0.43974 1.9557-0.7887 2.9258-0.82422zm-7.6033-0.0555c-0.99185 0.41512-1.6311 0.75349-2.17 1.429-0.39954 0.50093-1.0869 1.8528-1.4448 2.5084-0.3293-1.1358-0.52033-1.4078-0.0427-2.354 0.3082-0.61055 0.5053-0.75036 0.98774-1.1832 0.83973-0.75344 2.2412-0.44921 2.6697-0.40022zm3.0152 1.2669c0.71081 0.13802 2.6512 1.3163 3.1921 1.8906-0.302 0.41649-0.57406 0.45743-0.95366 0.51845-1.0522-0.365-2.9572-1.7298-3.4699-1.9705 0.2327-0.0908 0.99668-0.35331 1.2315-0.43849zm-2.115 1.0139c0.92976 0.45402 2.0128 1.036 2.5058 1.3919-1.1188 2e-3 -3.1525 0.0643-3.6641-0.51367 0.14274-0.16727 0.99642-0.72898 1.1583-0.87822zm-5.2696 2.7766c0.30279-0.30897 1.6155 0.36476 2.4121 1.0137 0.86961 0.7084 1.3261 1.6603 1.1016 1.7402-0.21877-0.28188-0.87946-0.77823-1.5703-1.209-0.95173-0.59342-2.2262-1.2563-1.9434-1.5449zm-0.27639 1.1424c0.49838 0.0671 1.2427 0.70112 1.6892 1.0017 0.4162 0.2802 1.6272 0.81424 1.9379 1.439 0.12409 0.24948-0.32424 1.0546-0.48358 1.3505-0.80981-1.2952-1.9022-1.7824-2.8218-2.2258-0.44281-0.21348-0.86478-0.64631-0.85987-1.2117 0.0038-0.43866 0.23904-0.394 0.53807-0.35375zm0.26758 2.4494c0.31469 0.19305 0.51718 0.39354 0.81429 0.56609-0.02539 0.63289-0.81531 1.7026-1.2653 2.9344-0.20129 0.551-0.4872 1.3104-0.51869 2.025-0.40102 3.1265-0.28375 7.4131-1.0703 11.855-0.32959 1.8614-1.584 4.4483-3.8086 4.1465-1.8463-0.2505-3.0892-2.1117-3.8359-3.7031-1.3578-2.8935-0.27499-6.3896 1.3496-8.959 1.4382-2.2746 3.7795-3.8046 6.0371-5.2129-0.62383 1.2726-2.3432 1.8526-3.375 2.9356-2.4206 2.5407-4.2534 6.0504-3.7988 9.5977 0.23998 1.8726 1.8139 3.294 3.377 4.1523 1.7898 0.9828 2.8801-1.428 3.0703-2.9257 0.43208-3.4021 1.1442-6.783 1.0898-10.227 0.21797-2.5064 0.91199-4.9058 1.9346-7.1856zm1.5967 1.0606c0.16129 0.15907 0.28362 0.33805 0.38281 0.52929-0.26618 0.41181-0.51219 0.80849-0.80664 1.1367-0.2247 0.25048-0.48972 0.47302-0.83789 0.66406 0.25266-0.84594 0.68517-1.6352 1.2617-2.3301zm6.2715 1.3809c1.5376 0.80604-1.0417 1.9713-1.6324 2.6172-1.1245 1.2295-2.488 3.4048-3.227 5.6837 0.10939-0.9861 0.13791-3.4778 0.18135-4.46 0.40975-1.003 1.5074-1.8154 2.4805-2.6043 0.65292-0.52931 1.4281-1.0057 2.1975-1.2366zm-5.5664 0.4707c0.07168 1.0632 0.02848 2.2452 0.05859 3.2539 0.02373 0.79504 0.01831 1.5117 0.03906 2.3262 0.06395 2.5099-0.07455 5.0398-0.9082 7.3965-0.61773 1.7463-0.86746 3.3907-1.1818 5.1703-0.18614 1.0538-0.24707 2.6277-0.36242 3.6131-0.16724 1.4288-0.64418 2.3267-0.62207 3.6971-0.32015 0-0.04164 1.9093-0.54458 3.0027-0.45846 0.9967-1.2046 1.3341-1.6685 1.1355-0.83351-0.3567-0.04535-1.3582 0.56396-2.3742 0.53434-0.8911 0.8986-1.8376 0.41111-1.9131 0.24877-1.3945 0.3708-2.0732 0.64701-3.6948 0.34896-2.0488 0.55697-4.3749 1.0614-6.2306 0.37732-1.3882 0.76884-2.2022 1.1842-3.4782 0.47175-1.4491 0.47339-2.9599 0.58449-4.6053 0.17186-2.5453 0.25965-5.165 0.15999-6.4279 0.33592-0.36055 0.46158-0.7097 0.57778-0.87117zm-1.145 1.1672c-0.148 0.72506-0.75803 1.6299-1.3409 1.829-0.0029-0.21389 0.24252-1.2627 0.26199-1.4725 0.14943-0.0539 0.94538-0.29393 1.0789-0.35647zm11.187 1.6942c-1.2279 0.72031-1.8116 1.0869-2.5201 1.7533-1.5243 1.4338-2.9814 2.9529-4.0334 4.6683-0.80156 1.3069-1.2568 2.765-1.9812 4.1681-1.9434 0.1327 0.24678-2.3725 0.57031-3.1972 1.8899-3.1844 4.0052-5.6981 7.0815-7.7669 0.46904-0.20999 0.76543-0.11887 0.88289 0.37431zm-14.984-0.18171c0.15589 2.3267-0.06333 4.7665-0.39913 7.1846-0.28357 2.042-0.222 4.8025-1.3572 6.5584-0.92275 1.4273-3.2712-0.7948-3.8216-1.8076-1.2551-2.3096 0.17907-5.6393 1.3845-7.7889 0.98082-1.749 2.5704-3.021 4.1934-4.1465z" color="#000000" color-rendering="auto" image-rendering="auto" shape-rendering="auto" solid-color="#000000" style="block-progression:tb;isolation:auto;mix-blend-mode:normal;text-decoration-color:#000000;text-decoration-line:none;text-decoration-style:solid;text-indent:0;text-transform:none;white-space:normal"/>
  </g>
 </g>
</svg>
